<svg width="331" height="37" viewBox="0 0 331 37" fill="none" xmlns="http://www.w3.org/2000/svg">
<path d="M0.0879999 36L14.776 2.4H25.912L40.6 36H28.888L18.04 7.776H22.456L11.608 36H0.0879999ZM8.824 30.144L11.704 21.984H27.16L30.04 30.144H8.824ZM51.5871 36.48C49.5071 36.48 47.6191 36.064 45.9231 35.232C44.2591 34.368 42.9471 33.04 41.9871 31.248C41.0271 29.424 40.5471 27.088 40.5471 24.24V9.744H51.3951V22.368C51.3951 24.224 51.6991 25.52 52.3071 26.256C52.9151 26.992 53.7471 27.36 54.8031 27.36C55.4431 27.36 56.0351 27.2 56.5791 26.88C57.1551 26.528 57.6191 25.968 57.9711 25.2C58.3231 24.4 58.4991 23.36 58.4991 22.08V9.744H69.3471V36H59.0271V28.416L61.0911 30.48C60.1631 32.528 58.8351 34.048 57.1071 35.04C55.4111 36 53.5711 36.48 51.5871 36.48ZM85.8708 36.48C82.2548 36.48 79.4388 35.616 77.4228 33.888C75.4068 32.128 74.3988 29.44 74.3988 25.824V3.84H85.2468V25.728C85.2468 26.528 85.4548 27.152 85.8708 27.6C86.3188 28.048 86.8628 28.272 87.5028 28.272C88.4308 28.272 89.2468 28.032 89.9508 27.552L92.5428 35.088C91.7108 35.568 90.7028 35.92 89.5188 36.144C88.3668 36.368 87.1508 36.48 85.8708 36.48ZM70.7988 19.104V11.184H90.6228V19.104H70.7988ZM112.557 9.264C114.573 9.264 116.397 9.68 118.029 10.512C119.661 11.312 120.941 12.576 121.869 14.304C122.829 16.032 123.309 18.272 123.309 21.024V36H112.461V22.896C112.461 21.264 112.173 20.112 111.597 19.44C111.021 18.736 110.237 18.384 109.245 18.384C108.509 18.384 107.821 18.56 107.181 18.912C106.573 19.232 106.077 19.776 105.693 20.544C105.341 21.312 105.165 22.352 105.165 23.664V36H94.3169V0.383998H105.165V17.424L102.573 15.216C103.597 13.232 104.973 11.744 106.701 10.752C108.461 9.76 110.413 9.264 112.557 9.264ZM141.401 36.48C138.425 36.48 135.785 35.904 133.481 34.752C131.209 33.568 129.417 31.952 128.105 29.904C126.793 27.856 126.137 25.504 126.137 22.848C126.137 20.192 126.793 17.84 128.105 15.792C129.417 13.744 131.209 12.144 133.481 10.992C135.785 9.84 138.425 9.264 141.401 9.264C144.377 9.264 147.017 9.84 149.321 10.992C151.625 12.144 153.417 13.744 154.697 15.792C156.009 17.84 156.665 20.192 156.665 22.848C156.665 25.504 156.009 27.856 154.697 29.904C153.417 31.952 151.625 33.568 149.321 34.752C147.017 35.904 144.377 36.48 141.401 36.48ZM141.401 28.032C142.201 28.032 142.921 27.84 143.561 27.456C144.201 27.072 144.713 26.496 145.097 25.728C145.481 24.928 145.673 23.968 145.673 22.848C145.673 21.696 145.481 20.752 145.097 20.016C144.713 19.248 144.201 18.672 143.561 18.288C142.921 17.904 142.201 17.712 141.401 17.712C140.601 17.712 139.881 17.904 139.241 18.288C138.601 18.672 138.089 19.248 137.705 20.016C137.321 20.752 137.129 21.696 137.129 22.848C137.129 23.968 137.321 24.928 137.705 25.728C138.089 26.496 138.601 27.072 139.241 27.456C139.881 27.84 140.601 28.032 141.401 28.032ZM159.1 36V9.744H169.42V17.664L167.74 15.408C168.54 13.36 169.82 11.824 171.58 10.8C173.34 9.776 175.452 9.264 177.916 9.264V18.864C177.436 18.8 177.004 18.752 176.62 18.72C176.268 18.688 175.9 18.672 175.516 18.672C173.884 18.672 172.54 19.104 171.484 19.968C170.46 20.8 169.948 22.256 169.948 24.336V36H159.1ZM193.797 36V2.4H209.973C213.109 2.4 215.813 2.912 218.085 3.936C220.389 4.96 222.165 6.432 223.413 8.352C224.661 10.24 225.285 12.48 225.285 15.072C225.285 17.664 224.661 19.904 223.413 21.792C222.165 23.68 220.389 25.152 218.085 26.208C215.813 27.232 213.109 27.744 209.973 27.744H200.085L205.125 22.896V36H193.797ZM205.125 24.144L200.085 19.008H209.253C210.821 19.008 211.973 18.656 212.709 17.952C213.477 17.248 213.861 16.288 213.861 15.072C213.861 13.856 213.477 12.896 212.709 12.192C211.973 11.488 210.821 11.136 209.253 11.136H200.085L205.125 6V24.144ZM241.576 36.48C238.6 36.48 235.96 35.904 233.656 34.752C231.384 33.568 229.592 31.952 228.28 29.904C226.968 27.856 226.312 25.504 226.312 22.848C226.312 20.192 226.968 17.84 228.28 15.792C229.592 13.744 231.384 12.144 233.656 10.992C235.96 9.84 238.6 9.264 241.576 9.264C244.552 9.264 247.192 9.84 249.496 10.992C251.8 12.144 253.592 13.744 254.872 15.792C256.184 17.84 256.84 20.192 256.84 22.848C256.84 25.504 256.184 27.856 254.872 29.904C253.592 31.952 251.8 33.568 249.496 34.752C247.192 35.904 244.552 36.48 241.576 36.48ZM241.576 28.032C242.376 28.032 243.096 27.84 243.736 27.456C244.376 27.072 244.888 26.496 245.272 25.728C245.656 24.928 245.848 23.968 245.848 22.848C245.848 21.696 245.656 20.752 245.272 20.016C244.888 19.248 244.376 18.672 243.736 18.288C243.096 17.904 242.376 17.712 241.576 17.712C240.776 17.712 240.056 17.904 239.416 18.288C238.776 18.672 238.264 19.248 237.88 20.016C237.496 20.752 237.304 21.696 237.304 22.848C237.304 23.968 237.496 24.928 237.88 25.728C238.264 26.496 238.776 27.072 239.416 27.456C240.056 27.84 240.776 28.032 241.576 28.032ZM269.548 36.48C267.308 36.48 265.1 36.24 262.924 35.76C260.748 35.28 258.988 34.656 257.644 33.888L260.62 26.736C261.868 27.472 263.308 28.048 264.94 28.464C266.604 28.88 268.22 29.088 269.788 29.088C271.1 29.088 271.98 28.976 272.428 28.752C272.908 28.528 273.148 28.224 273.148 27.84C273.148 27.456 272.876 27.184 272.332 27.024C271.788 26.832 271.068 26.688 270.172 26.592C269.276 26.496 268.284 26.384 267.196 26.256C266.14 26.096 265.068 25.872 263.98 25.584C262.892 25.296 261.9 24.864 261.004 24.288C260.108 23.712 259.388 22.944 258.844 21.984C258.3 20.992 258.028 19.744 258.028 18.24C258.028 16.576 258.524 15.072 259.516 13.728C260.54 12.384 262.044 11.312 264.028 10.512C266.044 9.68 268.524 9.264 271.468 9.264C273.388 9.264 275.308 9.44 277.228 9.792C279.148 10.144 280.796 10.688 282.172 11.424L279.196 18.576C277.852 17.84 276.524 17.344 275.212 17.088C273.932 16.8 272.732 16.656 271.612 16.656C270.236 16.656 269.292 16.784 268.78 17.04C268.3 17.296 268.06 17.584 268.06 17.904C268.06 18.288 268.332 18.576 268.876 18.768C269.42 18.96 270.14 19.104 271.036 19.2C271.932 19.296 272.908 19.424 273.964 19.584C275.052 19.712 276.124 19.936 277.18 20.256C278.268 20.544 279.26 20.976 280.156 21.552C281.052 22.128 281.772 22.912 282.316 23.904C282.86 24.864 283.132 26.096 283.132 27.6C283.132 29.168 282.636 30.64 281.644 32.016C280.652 33.36 279.148 34.448 277.132 35.28C275.116 36.08 272.588 36.48 269.548 36.48ZM298.128 36.48C294.512 36.48 291.696 35.616 289.68 33.888C287.664 32.128 286.656 29.44 286.656 25.824V3.84H297.504V25.728C297.504 26.528 297.712 27.152 298.128 27.6C298.576 28.048 299.12 28.272 299.76 28.272C300.688 28.272 301.504 28.032 302.208 27.552L304.8 35.088C303.968 35.568 302.96 35.92 301.776 36.144C300.624 36.368 299.408 36.48 298.128 36.48ZM283.056 19.104V11.184H302.88V19.104H283.056ZM316.846 36.48C314.606 36.48 312.398 36.24 310.222 35.76C308.046 35.28 306.286 34.656 304.942 33.888L307.918 26.736C309.166 27.472 310.606 28.048 312.238 28.464C313.902 28.88 315.518 29.088 317.086 29.088C318.398 29.088 319.278 28.976 319.726 28.752C320.206 28.528 320.446 28.224 320.446 27.84C320.446 27.456 320.174 27.184 319.63 27.024C319.086 26.832 318.366 26.688 317.47 26.592C316.574 26.496 315.582 26.384 314.494 26.256C313.438 26.096 312.366 25.872 311.278 25.584C310.19 25.296 309.198 24.864 308.302 24.288C307.406 23.712 306.686 22.944 306.142 21.984C305.598 20.992 305.326 19.744 305.326 18.24C305.326 16.576 305.822 15.072 306.814 13.728C307.838 12.384 309.342 11.312 311.326 10.512C313.342 9.68 315.822 9.264 318.766 9.264C320.686 9.264 322.606 9.44 324.526 9.792C326.446 10.144 328.094 10.688 329.47 11.424L326.494 18.576C325.15 17.84 323.822 17.344 322.51 17.088C321.23 16.8 320.03 16.656 318.91 16.656C317.534 16.656 316.59 16.784 316.078 17.04C315.598 17.296 315.358 17.584 315.358 17.904C315.358 18.288 315.63 18.576 316.174 18.768C316.718 18.96 317.438 19.104 318.334 19.2C319.23 19.296 320.206 19.424 321.262 19.584C322.35 19.712 323.422 19.936 324.478 20.256C325.566 20.544 326.558 20.976 327.454 21.552C328.35 22.128 329.07 22.912 329.614 23.904C330.158 24.864 330.43 26.096 330.43 27.6C330.43 29.168 329.934 30.64 328.942 32.016C327.95 33.36 326.446 34.448 324.43 35.28C322.414 36.08 319.886 36.48 316.846 36.48Z" fill="white"/>
</svg>
