<svg width="118" height="37" viewBox="0 0 118 37" fill="none" xmlns="http://www.w3.org/2000/svg">
<path d="M19.112 36.768C15.56 36.768 12.36 36.032 9.512 34.56C6.664 33.056 4.424 30.976 2.792 28.32C1.192 25.632 0.392 22.592 0.392 19.2C0.392 15.808 1.192 12.784 2.792 10.128C4.424 7.44 6.664 5.36 9.512 3.888C12.36 2.384 15.56 1.632 19.112 1.632C22.376 1.632 25.288 2.208 27.848 3.36C30.408 4.512 32.52 6.176 34.184 8.352L27.032 14.736C24.952 12.112 22.504 10.8 19.688 10.8C17.32 10.8 15.416 11.568 13.976 13.104C12.536 14.608 11.816 16.64 11.816 19.2C11.816 21.76 12.536 23.808 13.976 25.344C15.416 26.848 17.32 27.6 19.688 27.6C22.504 27.6 24.952 26.288 27.032 23.664L34.184 30.048C32.52 32.224 30.408 33.888 27.848 35.04C25.288 36.192 22.376 36.768 19.112 36.768ZM54.3988 9.264C57.6308 9.264 60.2228 10.24 62.1748 12.192C64.1588 14.144 65.1508 17.088 65.1508 21.024V36H54.3028V22.896C54.3028 19.888 53.2308 18.384 51.0868 18.384C49.8708 18.384 48.8788 18.816 48.1108 19.68C47.3748 20.512 47.0068 21.84 47.0068 23.664V36H36.1588V0.383998H47.0068V11.856C49.0228 10.128 51.4868 9.264 54.3988 9.264ZM80.6619 9.264C85.2699 9.264 88.7899 10.304 91.2219 12.384C93.6539 14.432 94.8699 17.6 94.8699 21.888V36H84.7899V32.544C83.5419 35.168 81.0619 36.48 77.3499 36.48C75.2699 36.48 73.4939 36.128 72.0219 35.424C70.5819 34.688 69.4779 33.712 68.7099 32.496C67.9739 31.248 67.6059 29.856 67.6059 28.32C67.6059 25.728 68.5979 23.76 70.5819 22.416C72.5659 21.072 75.5739 20.4 79.6059 20.4H83.9739C83.6219 18.352 81.9739 17.328 79.0299 17.328C77.8459 17.328 76.6459 17.52 75.4299 17.904C74.2139 18.256 73.1739 18.752 72.3099 19.392L68.8539 12.24C70.3579 11.312 72.1659 10.592 74.2779 10.08C76.4219 9.536 78.5499 9.264 80.6619 9.264ZM80.6139 29.952C81.3819 29.952 82.0699 29.744 82.6779 29.328C83.2859 28.912 83.7339 28.288 84.0219 27.456V25.632H81.3339C79.1259 25.632 78.0219 26.368 78.0219 27.84C78.0219 28.448 78.2459 28.96 78.6939 29.376C79.1739 29.76 79.8139 29.952 80.6139 29.952ZM117.942 35.088C116.31 36.016 114.086 36.48 111.27 36.48C107.59 36.48 104.758 35.6 102.774 33.84C100.79 32.048 99.7981 29.376 99.7981 25.824V19.104H96.1981V11.184H99.7981V3.84H110.646V11.184H116.022V19.104H110.646V25.728C110.646 26.528 110.854 27.152 111.27 27.6C111.686 28.048 112.23 28.272 112.902 28.272C113.83 28.272 114.646 28.032 115.35 27.552L117.942 35.088Z" fill="black"/>
</svg>
