<svg width="182" height="28" viewBox="0 0 182 28" fill="none" xmlns="http://www.w3.org/2000/svg">
<path d="M8.548 8.208V12.528H19.06V18.936H8.548V27H0.0520001V1.8H20.536V8.208H8.548ZM32.3004 27.36C30.1164 27.36 28.1484 26.928 26.3964 26.064C24.6684 25.176 23.3124 23.964 22.3284 22.428C21.3444 20.868 20.8524 19.104 20.8524 17.136C20.8524 15.168 21.3444 13.416 22.3284 11.88C23.3124 10.32 24.6684 9.108 26.3964 8.244C28.1484 7.38 30.1164 6.948 32.3004 6.948C34.5084 6.948 36.4764 7.38 38.2044 8.244C39.9564 9.108 41.3124 10.32 42.2724 11.88C43.2564 13.416 43.7484 15.168 43.7484 17.136C43.7484 19.104 43.2564 20.868 42.2724 22.428C41.3124 23.964 39.9564 25.176 38.2044 26.064C36.4764 26.928 34.5084 27.36 32.3004 27.36ZM32.3004 21.024C33.2364 21.024 34.0044 20.688 34.6044 20.016C35.2044 19.32 35.5044 18.36 35.5044 17.136C35.5044 15.912 35.2044 14.964 34.6044 14.292C34.0044 13.62 33.2364 13.284 32.3004 13.284C31.3644 13.284 30.5964 13.62 29.9964 14.292C29.3964 14.964 29.0964 15.912 29.0964 17.136C29.0964 18.36 29.3964 19.32 29.9964 20.016C30.5964 20.688 31.3644 21.024 32.3004 21.024ZM45.5748 0.287998H53.7108V27H45.5748V0.287998ZM56.597 0.287998H64.733V27H56.597V0.287998ZM78.0232 27.36C75.8392 27.36 73.8712 26.928 72.1192 26.064C70.3912 25.176 69.0352 23.964 68.0512 22.428C67.0672 20.868 66.5752 19.104 66.5752 17.136C66.5752 15.168 67.0672 13.416 68.0512 11.88C69.0352 10.32 70.3912 9.108 72.1192 8.244C73.8712 7.38 75.8392 6.948 78.0232 6.948C80.2312 6.948 82.1992 7.38 83.9272 8.244C85.6792 9.108 87.0352 10.32 87.9952 11.88C88.9792 13.416 89.4712 15.168 89.4712 17.136C89.4712 19.104 88.9792 20.868 87.9952 22.428C87.0352 23.964 85.6792 25.176 83.9272 26.064C82.1992 26.928 80.2312 27.36 78.0232 27.36ZM78.0232 21.024C78.9592 21.024 79.7272 20.688 80.3272 20.016C80.9272 19.32 81.2272 18.36 81.2272 17.136C81.2272 15.912 80.9272 14.964 80.3272 14.292C79.7272 13.62 78.9592 13.284 78.0232 13.284C77.0872 13.284 76.3192 13.62 75.7192 14.292C75.1192 14.964 74.8192 15.912 74.8192 17.136C74.8192 18.36 75.1192 19.32 75.7192 20.016C76.3192 20.688 77.0872 21.024 78.0232 21.024ZM124.358 7.308L117.518 27H109.598L106.61 17.892L103.514 27H95.5943L88.7543 7.308H96.4583L99.8423 17.712L103.37 7.308H110.282L113.702 17.82L117.23 7.308H124.358ZM145.631 17.136C145.631 17.256 145.595 17.892 145.523 19.044H131.843C132.131 19.788 132.611 20.364 133.283 20.772C133.955 21.156 134.795 21.348 135.803 21.348C136.667 21.348 137.387 21.24 137.963 21.024C138.563 20.808 139.211 20.436 139.907 19.908L144.155 24.192C142.235 26.304 139.367 27.36 135.551 27.36C133.175 27.36 131.087 26.928 129.287 26.064C127.487 25.176 126.095 23.952 125.111 22.392C124.127 20.832 123.635 19.08 123.635 17.136C123.635 15.168 124.115 13.416 125.075 11.88C126.059 10.32 127.391 9.108 129.071 8.244C130.775 7.38 132.683 6.948 134.795 6.948C136.787 6.948 138.599 7.344 140.231 8.136C141.887 8.928 143.195 10.092 144.155 11.628C145.139 13.164 145.631 15 145.631 17.136ZM134.867 12.492C134.027 12.492 133.331 12.72 132.779 13.176C132.227 13.632 131.867 14.28 131.699 15.12H138.035C137.867 14.304 137.507 13.668 136.955 13.212C136.403 12.732 135.707 12.492 134.867 12.492ZM155.219 9.432C156.659 7.776 158.783 6.948 161.591 6.948V14.148C160.943 14.052 160.343 14.004 159.791 14.004C157.007 14.004 155.615 15.42 155.615 18.252V27H147.479V7.308H155.219V9.432ZM170.881 27.36C169.201 27.36 167.545 27.18 165.913 26.82C164.281 26.46 162.961 25.992 161.953 25.416L164.185 20.052C165.097 20.604 166.177 21.036 167.425 21.348C168.673 21.66 169.885 21.816 171.061 21.816C171.997 21.816 172.645 21.744 173.005 21.6C173.389 21.432 173.581 21.192 173.581 20.88C173.581 20.568 173.341 20.352 172.861 20.232C172.405 20.112 171.649 19.992 170.593 19.872C168.985 19.68 167.617 19.44 166.489 19.152C165.361 18.84 164.365 18.252 163.501 17.388C162.661 16.524 162.241 15.288 162.241 13.68C162.241 12.408 162.625 11.268 163.393 10.26C164.161 9.252 165.301 8.448 166.813 7.848C168.349 7.248 170.185 6.948 172.321 6.948C173.809 6.948 175.261 7.092 176.677 7.38C178.117 7.644 179.341 8.04 180.349 8.568L178.117 13.932C176.389 12.972 174.493 12.492 172.429 12.492C170.653 12.492 169.765 12.804 169.765 13.428C169.765 13.74 170.005 13.968 170.485 14.112C170.965 14.232 171.721 14.352 172.753 14.472C174.361 14.664 175.717 14.916 176.821 15.228C177.949 15.54 178.933 16.128 179.773 16.992C180.637 17.856 181.069 19.092 181.069 20.7C181.069 21.924 180.685 23.04 179.917 24.048C179.149 25.056 177.997 25.86 176.461 26.46C174.925 27.06 173.065 27.36 170.881 27.36Z" fill="black"/>
</svg>
