<svg width="184" height="38" viewBox="0 0 184 38" fill="none" xmlns="http://www.w3.org/2000/svg">
<path d="M7.972 15.528H19.06V21.936H7.972V15.528ZM8.548 30H0.0520001V4.8H20.536V11.208H8.548V30ZM32.3004 30.36C30.0684 30.36 28.0884 29.928 26.3604 29.064C24.6564 28.176 23.3124 26.964 22.3284 25.428C21.3444 23.892 20.8524 22.128 20.8524 20.136C20.8524 18.144 21.3444 16.38 22.3284 14.844C23.3124 13.308 24.6564 12.108 26.3604 11.244C28.0884 10.38 30.0684 9.948 32.3004 9.948C34.5324 9.948 36.5124 10.38 38.2404 11.244C39.9684 12.108 41.3124 13.308 42.2724 14.844C43.2564 16.38 43.7484 18.144 43.7484 20.136C43.7484 22.128 43.2564 23.892 42.2724 25.428C41.3124 26.964 39.9684 28.176 38.2404 29.064C36.5124 29.928 34.5324 30.36 32.3004 30.36ZM32.3004 24.024C32.9004 24.024 33.4404 23.88 33.9204 23.592C34.4004 23.304 34.7844 22.872 35.0724 22.296C35.3604 21.696 35.5044 20.976 35.5044 20.136C35.5044 19.272 35.3604 18.564 35.0724 18.012C34.7844 17.436 34.4004 17.004 33.9204 16.716C33.4404 16.428 32.9004 16.284 32.3004 16.284C31.7004 16.284 31.1604 16.428 30.6804 16.716C30.2004 17.004 29.8164 17.436 29.5284 18.012C29.2404 18.564 29.0964 19.272 29.0964 20.136C29.0964 20.976 29.2404 21.696 29.5284 22.296C29.8164 22.872 30.2004 23.304 30.6804 23.592C31.1604 23.88 31.7004 24.024 32.3004 24.024ZM45.5748 30V3.288H53.7108V30H45.5748ZM56.597 30V3.288H64.733V30H56.597ZM78.0232 30.36C75.7912 30.36 73.8112 29.928 72.0832 29.064C70.3792 28.176 69.0352 26.964 68.0512 25.428C67.0672 23.892 66.5752 22.128 66.5752 20.136C66.5752 18.144 67.0672 16.38 68.0512 14.844C69.0352 13.308 70.3792 12.108 72.0832 11.244C73.8112 10.38 75.7912 9.948 78.0232 9.948C80.2552 9.948 82.2352 10.38 83.9632 11.244C85.6912 12.108 87.0352 13.308 87.9952 14.844C88.9792 16.38 89.4712 18.144 89.4712 20.136C89.4712 22.128 88.9792 23.892 87.9952 25.428C87.0352 26.964 85.6912 28.176 83.9632 29.064C82.2352 29.928 80.2552 30.36 78.0232 30.36ZM78.0232 24.024C78.6232 24.024 79.1632 23.88 79.6432 23.592C80.1232 23.304 80.5072 22.872 80.7952 22.296C81.0832 21.696 81.2272 20.976 81.2272 20.136C81.2272 19.272 81.0832 18.564 80.7952 18.012C80.5072 17.436 80.1232 17.004 79.6432 16.716C79.1632 16.428 78.6232 16.284 78.0232 16.284C77.4232 16.284 76.8832 16.428 76.4032 16.716C75.9232 17.004 75.5392 17.436 75.2512 18.012C74.9632 18.564 74.8192 19.272 74.8192 20.136C74.8192 20.976 74.9632 21.696 75.2512 22.296C75.5392 22.872 75.9232 23.304 76.4032 23.592C76.8832 23.88 77.4232 24.024 78.0232 24.024ZM95.5943 30L88.7543 10.308H96.4583L101.642 26.292H97.9343L103.37 10.308H110.282L115.466 26.292H111.866L117.23 10.308H124.358L117.518 30H109.598L105.458 17.328H107.834L103.514 30H95.5943ZM125.207 30V10.308H133.343V30H125.207ZM129.275 8.724C127.787 8.724 126.599 8.328 125.711 7.536C124.823 6.744 124.379 5.76 124.379 4.584C124.379 3.408 124.823 2.424 125.711 1.632C126.599 0.839998 127.787 0.443999 129.275 0.443999C130.763 0.443999 131.951 0.815999 132.839 1.56C133.727 2.304 134.171 3.264 134.171 4.44C134.171 5.688 133.727 6.72 132.839 7.536C131.951 8.328 130.763 8.724 129.275 8.724ZM149.909 9.948C151.421 9.948 152.789 10.26 154.013 10.884C155.237 11.484 156.197 12.432 156.893 13.728C157.613 15.024 157.973 16.704 157.973 18.768V30H149.837V20.172C149.837 18.948 149.621 18.084 149.189 17.58C148.757 17.052 148.169 16.788 147.425 16.788C146.873 16.788 146.357 16.92 145.877 17.184C145.421 17.424 145.049 17.832 144.761 18.408C144.497 18.984 144.365 19.764 144.365 20.748V30H136.229V10.308H143.969V16.068L142.421 14.412C143.189 12.924 144.221 11.808 145.517 11.064C146.837 10.32 148.301 9.948 149.909 9.948ZM171.146 37.344C169.202 37.344 167.378 37.14 165.674 36.732C163.97 36.324 162.506 35.712 161.282 34.896L164.018 29.352C164.786 29.952 165.758 30.42 166.934 30.756C168.134 31.116 169.262 31.296 170.318 31.296C171.998 31.296 173.198 30.936 173.918 30.216C174.638 29.52 174.998 28.512 174.998 27.192V25.536L175.358 19.416L175.394 13.296V10.308H183.134V26.076C183.134 29.892 182.078 32.724 179.966 34.572C177.854 36.42 174.914 37.344 171.146 37.344ZM169.562 28.92C167.906 28.92 166.358 28.536 164.918 27.768C163.478 26.976 162.314 25.872 161.426 24.456C160.538 23.04 160.094 21.36 160.094 19.416C160.094 17.472 160.538 15.792 161.426 14.376C162.314 12.96 163.478 11.868 164.918 11.1C166.358 10.332 167.906 9.948 169.562 9.948C171.266 9.948 172.658 10.284 173.738 10.956C174.842 11.628 175.658 12.672 176.186 14.088C176.714 15.48 176.978 17.256 176.978 19.416C176.978 21.576 176.714 23.364 176.186 24.78C175.658 26.172 174.842 27.216 173.738 27.912C172.658 28.584 171.266 28.92 169.562 28.92ZM171.722 22.584C172.37 22.584 172.946 22.452 173.45 22.188C173.954 21.924 174.35 21.552 174.638 21.072C174.926 20.592 175.07 20.04 175.07 19.416C175.07 18.768 174.926 18.216 174.638 17.76C174.35 17.28 173.954 16.92 173.45 16.68C172.946 16.416 172.37 16.284 171.722 16.284C171.098 16.284 170.522 16.416 169.994 16.68C169.49 16.92 169.082 17.28 168.77 17.76C168.482 18.216 168.338 18.768 168.338 19.416C168.338 20.04 168.482 20.592 168.77 21.072C169.082 21.552 169.49 21.924 169.994 22.188C170.522 22.452 171.098 22.584 171.722 22.584Z" fill="black"/>
</svg>
