<svg width="750" height="228" viewBox="0 0 750 228" fill="none" xmlns="http://www.w3.org/2000/svg">
<path fill-rule="evenodd" clip-rule="evenodd" d="M741.073 43.7828H667.15L676.077 0H750L741.073 43.7828ZM704.809 218.914H632.839L666.313 53.7069H738.284L704.809 218.914ZM117.44 153.277H127.483L125.809 160.866C121.067 162.034 114.372 162.618 106.003 162.618C88.708 162.618 77.5498 150.359 77.5498 130.802C77.5498 101.906 96.5188 80.3061 126.646 80.3061C141.152 80.3061 156.215 85.8519 168.768 96.6516L209.775 35.6476C189.132 21.6371 162.073 14.9238 131.667 14.9238C55.5122 14.9238 0 68.0469 0 141.894C0 190.931 38.4959 228 94.5661 228C126.067 228 156.774 217.766 183.343 200.797C171.874 187.316 165.957 169.41 165.957 148.278C165.957 133.658 169.109 119.757 174.854 107.16H126.646L117.44 153.277ZM342.814 72.6963L342.816 72.6976C361.333 58.1419 385.568 49.3287 412.831 49.3287C465.554 49.3287 495.681 77.0578 495.681 123.468C495.681 178.05 449.653 223.292 388.562 223.292C359.643 223.292 337.534 214.863 323.412 199.617L323.411 199.619C311.65 186.923 305.43 169.499 305.43 148.278C305.43 118.104 319.647 90.9062 342.814 72.6963ZM422.037 131.932C422.037 145.651 414.784 161.996 398.325 161.996C388.283 161.996 379.356 154.407 379.356 140.105C379.356 121.716 389.12 110.333 403.068 110.333C413.11 110.333 422.037 117.922 422.037 131.932ZM339.51 69.4165C325.379 56.4142 304.502 49.3287 277.851 49.3287C216.48 49.3287 170.453 93.9872 170.453 148.278C170.453 194.979 200.58 223.292 253.581 223.292C278.979 223.292 301.773 215.473 319.738 202.414C307.336 188.762 300.931 170.267 300.931 148.278C300.931 116.66 315.67 88.4087 339.51 69.4165ZM287.056 131.932C287.056 145.651 279.803 161.996 263.345 161.996C253.302 161.996 244.376 154.407 244.376 140.105C244.376 121.716 254.139 110.333 268.087 110.333C278.13 110.333 287.056 117.922 287.056 131.932ZM508.853 223C488.996 223 473.626 214.786 463.893 201.069C486.369 181.919 500.177 154.216 500.177 123.468C500.177 104.433 495.319 88.0929 485.892 75.2862C501.053 59.6576 520.667 49.3287 543.443 49.3287C559.065 49.3287 572.176 54.5826 581.66 69.4688L595.05 3.50271H667.021L623.224 218.914H551.254L554.601 202.86C539.259 217.746 523.916 223 508.853 223ZM541.49 162.288C556.275 162.288 565.481 148.862 567.991 136.019C571.339 122.3 565.202 110.041 552.091 110.041C533.401 110.041 525.59 130.765 525.59 144.191C525.59 154.991 531.169 162.288 541.49 162.288Z" fill="black" fill-opacity="0.6"/>
<path fill-rule="evenodd" clip-rule="evenodd" d="M364.996 173.991C374.935 184.391 391.049 184.392 400.989 173.995C410.93 184.392 427.043 184.391 436.982 173.991C446.922 163.59 446.922 146.727 436.982 136.326C446.922 125.925 446.922 109.062 436.982 98.6611C427.043 88.2615 410.93 88.2601 400.989 98.6571C391.049 88.2602 374.935 88.2615 364.996 98.6611C355.056 109.062 355.056 125.925 364.996 136.326C355.056 146.727 355.056 163.59 364.996 173.991Z" fill="#49ED3F"/>
<circle cx="17.3667" cy="17.3667" r="17.3667" transform="matrix(0.690914 0.722937 -0.690914 0.722937 400.989 111.214)" fill="black" fill-opacity="0.6"/>
</svg>
