<svg width="24" height="26" viewBox="0 0 24 26" fill="none" xmlns="http://www.w3.org/2000/svg">
<path d="M23.9992 13.2759C23.9992 12.4688 23.9277 11.7025 23.8051 10.9567H12.2598V15.5646H18.8702C18.5739 17.0767 17.7055 18.3539 16.4181 19.2223V22.2874H20.3619C22.671 20.1521 23.9992 17.0052 23.9992 13.2759Z" fill="#4285F4"/>
<path d="M12.2609 25.2607C15.5712 25.2607 18.3401 24.1572 20.3631 22.2875L16.4192 19.2223C15.3158 19.958 13.9161 20.4075 12.2609 20.4075C9.06293 20.4075 6.3554 18.2517 5.38477 15.3398H1.31836V18.4969C3.33113 22.502 7.46906 25.2607 12.2609 25.2607Z" fill="#34A853"/>
<path d="M5.38442 15.3397C5.12899 14.6041 4.99617 13.8173 4.99617 13C4.99617 12.1826 5.13921 11.3959 5.38442 10.6603V7.50317H1.31801C0.480203 9.15835 0 11.0179 0 13C0 14.9821 0.480203 16.8416 1.31801 18.4968L5.38442 15.3397Z" fill="#FBBC05"/>
<path d="M12.2609 5.59263C14.0693 5.59263 15.6836 6.21588 16.9608 7.43171L20.455 3.93746C18.3401 1.95534 15.5712 0.739502 12.2609 0.739502C7.46906 0.739502 3.33113 3.49812 1.31836 7.50323L5.38477 10.6603C6.3554 7.74844 9.06293 5.59263 12.2609 5.59263Z" fill="#EA4335"/>
</svg>
