<svg width="30" height="32" viewBox="0 0 30 32" fill="none" xmlns="http://www.w3.org/2000/svg">
<path d="M17.6802 32C18.7648 32 19.5107 31.0586 20.037 29.592L29.2736 3.53779C29.5201 2.86789 29.6521 2.26613 29.6521 1.75719C29.6521 0.678534 29.0231 0 28.0357 0C27.5608 0 27.0029 0.155673 26.3849 0.408266L2.12253 10.4393C0.910071 10.9263 0 11.7445 0 12.9279C0 14.3571 1.00141 14.9004 2.37723 15.3407L9.63771 17.7445C10.612 18.0654 11.1806 18.05 11.871 17.3704L27.4483 1.78131C27.6468 1.58954 27.8822 1.61428 28.0236 1.7567C28.1777 1.91253 28.1909 2.17982 28.0133 2.39088L13.6093 19.2328C13.0165 19.9284 12.9496 20.5658 13.2536 21.6317L15.4155 29.3276C15.8362 30.8601 16.3403 32 17.6802 32Z" fill="black"/>
</svg>
