<svg width="32" height="32" viewBox="0 0 32 32" fill="none" xmlns="http://www.w3.org/2000/svg">
<path d="M12.1636 27H5C4.44772 27 4 26.5523 4 26V12.747C4 12.414 4.16574 12.1029 4.44207 11.9171L15.65 4.382C15.9925 4.15174 16.4413 4.15554 16.7798 4.39158L27.5719 11.9158C27.8401 12.1028 28 12.4092 28 12.7361V26C28 26.5523 27.5523 27 27 27H19.8364C19.2841 27 18.8364 26.5523 18.8364 26V18.5536C18.8364 18.0013 18.3886 17.5536 17.8364 17.5536H14.1636C13.6114 17.5536 13.1636 18.0013 13.1636 18.5536V26C13.1636 26.5523 12.7159 27 12.1636 27Z" fill="black"/>
</svg>
