<svg width="220" height="76" viewBox="0 0 220 76" fill="none" xmlns="http://www.w3.org/2000/svg">
<path d="M10.36 52.64C8.17333 52.64 6.18667 52.2933 4.4 51.6C2.64 50.88 1.18667 49.84 0.04 48.48L5.12 42.48C5.86667 43.4133 6.6 44.1067 7.32 44.56C8.04 45.0133 8.78667 45.24 9.56 45.24C10.5467 45.24 11.2933 44.9467 11.8 44.36C12.3333 43.7733 12.6 42.9067 12.6 41.76V31.12H3.08V24H21.92V41.2C21.92 45.0133 20.9333 47.88 18.96 49.8C17.0133 51.6933 14.1467 52.64 10.36 52.64ZM37.5288 52.4C35.1021 52.4 32.9154 51.92 30.9688 50.96C29.0488 49.9733 27.5421 48.6267 26.4488 46.92C25.3554 45.1867 24.8088 43.2267 24.8088 41.04C24.8088 38.8533 25.3554 36.9067 26.4488 35.2C27.5421 33.4667 29.0488 32.12 30.9688 31.16C32.9154 30.2 35.1021 29.72 37.5288 29.72C39.9821 29.72 42.1688 30.2 44.0888 31.16C46.0354 32.12 47.5421 33.4667 48.6088 35.2C49.7021 36.9067 50.2488 38.8533 50.2488 41.04C50.2488 43.2267 49.7021 45.1867 48.6088 46.92C47.5421 48.6267 46.0354 49.9733 44.0888 50.96C42.1688 51.92 39.9821 52.4 37.5288 52.4ZM37.5288 45.36C38.5688 45.36 39.4221 44.9867 40.0888 44.24C40.7554 43.4667 41.0888 42.4 41.0888 41.04C41.0888 39.68 40.7554 38.6267 40.0888 37.88C39.4221 37.1333 38.5688 36.76 37.5288 36.76C36.4888 36.76 35.6354 37.1333 34.9688 37.88C34.3021 38.6267 33.9688 39.68 33.9688 41.04C33.9688 42.4 34.3021 43.4667 34.9688 44.24C35.6354 44.9867 36.4888 45.36 37.5288 45.36ZM53.0781 30.12H62.1181V52H53.0781V30.12ZM57.5981 28.36C55.9715 28.36 54.6515 27.9333 53.6381 27.08C52.6515 26.2 52.1581 25.0933 52.1581 23.76C52.1581 22.4267 52.6515 21.3333 53.6381 20.48C54.6515 19.6 55.9715 19.16 57.5981 19.16C59.2515 19.16 60.5715 19.5733 61.5581 20.4C62.5448 21.2267 63.0381 22.2933 63.0381 23.6C63.0381 24.9867 62.5448 26.1333 61.5581 27.04C60.5715 27.92 59.2515 28.36 57.5981 28.36ZM81.325 29.72C84.0183 29.72 86.1783 30.5333 87.805 32.16C89.4583 33.7867 90.285 36.24 90.285 39.52V52H81.245V41.08C81.245 38.5733 80.3517 37.32 78.565 37.32C77.5517 37.32 76.725 37.68 76.085 38.4C75.4717 39.0933 75.165 40.2 75.165 41.72V52H66.125V30.12H74.725V32.28C75.5783 31.4267 76.565 30.7867 77.685 30.36C78.805 29.9333 80.0183 29.72 81.325 29.72ZM122.323 51.24C120.963 52.0133 119.11 52.4 116.763 52.4C113.696 52.4 111.336 51.6667 109.683 50.2C108.03 48.7067 107.203 46.48 107.203 43.52V37.92H104.203V31.32H107.203V25.2H116.243V31.32H120.723V37.92H116.243V43.44C116.243 44.1067 116.416 44.6267 116.763 45C117.11 45.3733 117.563 45.56 118.123 45.56C118.896 45.56 119.576 45.36 120.163 44.96L122.323 51.24ZM135.576 52.4C133.149 52.4 130.962 51.92 129.016 50.96C127.096 49.9733 125.589 48.6267 124.496 46.92C123.402 45.1867 122.856 43.2267 122.856 41.04C122.856 38.8533 123.402 36.9067 124.496 35.2C125.589 33.4667 127.096 32.12 129.016 31.16C130.962 30.2 133.149 29.72 135.576 29.72C138.029 29.72 140.216 30.2 142.136 31.16C144.082 32.12 145.589 33.4667 146.656 35.2C147.749 36.9067 148.296 38.8533 148.296 41.04C148.296 43.2267 147.749 45.1867 146.656 46.92C145.589 48.6267 144.082 49.9733 142.136 50.96C140.216 51.92 138.029 52.4 135.576 52.4ZM135.576 45.36C136.616 45.36 137.469 44.9867 138.136 44.24C138.802 43.4667 139.136 42.4 139.136 41.04C139.136 39.68 138.802 38.6267 138.136 37.88C137.469 37.1333 136.616 36.76 135.576 36.76C134.536 36.76 133.682 37.1333 133.016 37.88C132.349 38.6267 132.016 39.68 132.016 41.04C132.016 42.4 132.349 43.4667 133.016 44.24C133.682 44.9867 134.536 45.36 135.576 45.36Z" fill="black"/>
<path fill-rule="evenodd" clip-rule="evenodd" d="M172.002 54.001C176.419 58.4187 183.581 58.4195 188 54.0034C192.419 58.4195 199.581 58.4187 203.998 54.001C208.417 49.5824 208.417 42.4185 203.999 38C208.417 33.5814 208.417 26.4175 203.998 21.999C199.581 17.5812 192.419 17.5804 188 21.9966C183.581 17.5804 176.419 17.5812 172.002 21.999C167.583 26.4175 167.583 33.5814 172.001 38C167.583 42.4185 167.583 49.5824 172.002 54.001Z" fill="#49ED3F"/>
<circle cx="7.54292" cy="7.54292" r="7.54292" transform="matrix(0.707103 0.707111 -0.707103 0.707111 188 27.3313)" fill="black"/>
</svg>
