<svg width="24" height="24" viewBox="0 0 24 24" fill="none" xmlns="http://www.w3.org/2000/svg">
<path d="M24 11.3334C24.0046 13.0932 23.5934 14.8292 22.8 16.4C21.8592 18.2824 20.413 19.8656 18.6233 20.9724C16.8335 22.0792 14.771 22.6659 12.6667 22.6667C10.9068 22.6713 9.17082 22.2601 7.6 21.4667L0 24L2.53333 16.4C1.73991 14.8292 1.32875 13.0932 1.33333 11.3334C1.33415 9.22905 1.92082 7.16651 3.02763 5.37677C4.13444 3.58704 5.71767 2.14079 7.6 1.20004C9.17082 0.406613 10.9068 -0.00455035 12.6667 3.79841e-05H13.3333C16.1125 0.15336 18.7374 1.32639 20.7055 3.29452C22.6737 5.26265 23.8467 7.88757 24 10.6667V11.3334Z" fill="#3C2C29"/>
</svg>
