<svg width="274" height="127" viewBox="0 0 274 127" fill="none" xmlns="http://www.w3.org/2000/svg">
<path d="M235.62 11.5218H215.908L218.288 0H238.001L235.62 11.5218ZM225.95 57.6089H206.758L215.684 14.1334H234.877L225.95 57.6089Z" fill="white"/>
<path fill-rule="evenodd" clip-rule="evenodd" d="M69.3175 40.3362H71.9954L71.5491 42.3333C70.2845 42.6405 68.4992 42.7941 66.2675 42.7941C61.6555 42.7941 58.6799 39.568 58.6799 34.4216C58.6799 26.8173 63.7383 21.1332 71.7723 21.1332C75.6405 21.1332 79.6574 22.5926 83.0049 25.4346L93.94 9.38095C88.4352 5.69398 81.2196 3.92731 73.1113 3.92731C52.8033 3.92731 38 17.9071 38 37.3405C38 50.2449 48.2656 60 63.2176 60C71.6178 60 79.8064 57.3067 86.8915 52.8414C83.833 49.2936 82.2553 44.5816 82.2553 39.0205C82.2553 35.1731 83.0957 31.5151 84.6278 28.1999H71.7723L69.3175 40.3362ZM85.9705 28.1999C84.347 31.5022 83.4551 35.1692 83.4551 39.0205C83.4551 44.2092 84.8872 48.5354 87.6057 51.8025L92.4522 28.1999H85.9705Z" fill="white"/>
<path d="M141.617 58.7611C127.483 58.7611 119.449 51.3104 119.449 39.0205C119.449 24.7335 131.723 12.9812 148.089 12.9812C162.148 12.9812 170.182 20.2784 170.182 32.4915C170.182 46.8553 157.908 58.7611 141.617 58.7611ZM144.221 42.6306C148.609 42.6306 150.544 38.3292 150.544 34.719C150.544 31.032 148.163 29.0349 145.485 29.0349C141.766 29.0349 139.162 32.0306 139.162 36.8697C139.162 40.6335 141.543 42.6306 144.221 42.6306Z" fill="white"/>
<path fill-rule="evenodd" clip-rule="evenodd" d="M128.535 18.2675C124.767 14.8458 119.2 12.9812 112.093 12.9812C95.7272 12.9812 83.4531 24.7334 83.4531 39.0205C83.4531 51.3104 91.4871 58.7611 105.621 58.7611C112.393 58.7611 118.472 56.7035 123.263 53.267C119.956 49.6741 118.247 44.807 118.247 39.0205C118.247 30.7 122.178 23.2654 128.535 18.2675ZM129.416 19.1306C123.238 23.9227 119.447 31.0801 119.447 39.0205C119.447 44.6049 121.106 49.1901 124.242 52.5312C130.4 47.6886 134.186 40.4692 134.186 32.4915C134.186 26.9527 132.534 22.4251 129.416 19.1306ZM114.547 34.719C114.547 38.3292 112.613 42.6306 108.224 42.6306C105.546 42.6306 103.166 40.6335 103.166 36.8697C103.166 32.0306 105.77 29.0349 109.489 29.0349C112.167 29.0349 114.547 31.032 114.547 34.719Z" fill="white"/>
<path fill-rule="evenodd" clip-rule="evenodd" d="M161.705 52.9129C164.301 56.5227 168.4 58.6843 173.695 58.6843C177.712 58.6843 181.803 57.3017 185.894 53.3843L185.002 57.6089H204.194L215.873 0.921753H196.681L193.11 18.2812C190.581 14.3638 187.085 12.9812 182.919 12.9812C176.845 12.9812 171.615 15.6993 167.572 19.8121C170.086 23.1823 171.381 27.4824 171.381 32.4915C171.381 40.5833 167.699 47.8735 161.705 52.9129ZM161.03 51.8841C166.718 47.0574 170.182 40.1212 170.182 32.4915C170.182 27.7915 168.992 23.8196 166.727 20.7114C161.532 26.4864 158.52 34.6019 158.52 41.8625C158.52 45.7257 159.392 49.1501 161.03 51.8841ZM189.465 35.7944C188.796 39.1741 186.341 42.7074 182.398 42.7074C179.646 42.7074 178.158 40.7871 178.158 37.9451C178.158 34.4117 180.241 28.9581 185.225 28.9581C188.721 28.9581 190.358 32.1842 189.465 35.7944Z" fill="white"/>
<path fill-rule="evenodd" clip-rule="evenodd" d="M135.5 46.4598C138.15 49.1965 142.447 49.1969 145.098 46.4608C147.748 49.1969 152.045 49.1965 154.696 46.4598C157.346 43.7227 157.346 39.285 154.696 36.5479C157.346 33.8109 157.346 29.3732 154.696 26.6361C152.045 23.8994 147.748 23.899 145.098 26.6351C142.447 23.899 138.15 23.8994 135.5 26.6361C132.849 29.3732 132.849 33.8109 135.5 36.5479C132.849 39.285 132.849 43.7227 135.5 46.4598Z" fill="#49ED3F"/>
<circle cx="4.59937" cy="4.59937" r="4.59937" transform="matrix(0.695683 0.718349 -0.695683 0.718349 145.098 29.9395)" fill="white"/>
<path d="M17.6147 108.235H20.8716V110.075H17.6147V120.964H15.3854V99.989H17.6147V108.235ZM4.26386 102.036V113.854C7.19756 113.829 10.2473 113.58 13.5705 112.901L13.8274 114.782C10.239 115.494 6.93236 115.702 3.77491 115.702H2.05115V102.036H4.26386ZM38.4978 99.9807V106.262H41.5392V108.119H38.4978V115.354H36.2685V99.9807H38.4978ZM22.8016 101.837H32.6386V111.649H22.8016V101.837ZM24.9812 109.876H30.4591V103.635H24.9812V109.876ZM25.1884 113.878H27.4011V118.735H39.3928V120.558H25.1884V113.878ZM57.8808 99.989H60.1018V121.03H57.8808V99.989ZM49.577 101.481C52.9002 101.481 55.2786 103.536 55.2952 106.486C55.2786 109.445 52.9002 111.492 49.577 111.492C46.2703 111.492 43.8422 109.445 43.8587 106.486C43.8422 103.536 46.2703 101.481 49.577 101.481ZM49.577 103.412C47.5383 103.412 46.0383 104.638 46.0549 106.486C46.0383 108.343 47.5383 109.561 49.577 109.561C51.6156 109.561 53.1156 108.343 53.1239 106.486C53.1156 104.638 51.6156 103.412 49.577 103.412ZM43.1212 116.514L42.8477 114.657C46.6764 114.666 51.972 114.624 56.5631 113.961L56.7372 115.586C51.9803 116.489 46.8753 116.514 43.1212 116.514ZM85.6012 108.169H88.5597V109.983H79.9575V113.116H77.7697V109.983H69.3415V108.169H83.3968C83.8691 105.79 83.9106 104.05 83.9106 102.633H71.7448V100.851H86.0984V102.26C86.0984 103.727 86.0984 105.649 85.6012 108.169ZM79.999 113.945V114.633C79.999 116.903 82.9575 118.735 87.0183 119.207L86.2559 120.898C82.8664 120.483 80.115 119.174 78.8553 117.177C77.5791 119.133 74.8443 120.483 71.5128 120.898L70.7338 119.207C74.7282 118.735 77.7282 116.82 77.7448 114.633V113.945H79.999ZM91.8737 112.983L90.9704 111.202C94.8737 110.564 98.4953 107.663 98.4953 104.439V103.801H91.6749V101.986H107.636V103.801H100.816V104.439C100.816 107.663 104.454 110.489 108.457 111.127L107.553 112.884C104.164 112.254 101.039 110.273 99.6721 107.514C98.313 110.307 95.2135 112.337 91.8737 112.983ZM90.0837 118.271V116.439H109.302V118.271H90.0837ZM127.326 100.006V106.229H130.367V108.094H127.326V115.461H125.097V100.006H127.326ZM123.655 110L123.812 111.657C119.569 112.337 114.679 112.428 111.074 112.428L110.826 110.597C111.63 110.597 112.5 110.588 113.403 110.572V103.702H111.414V101.903H122.743V103.702H120.746V110.282C121.74 110.207 122.718 110.116 123.655 110ZM118.583 103.702H115.55V110.53C116.544 110.506 117.563 110.464 118.583 110.414V103.702ZM114.016 113.994H116.229V118.735H128.221V120.558H114.016V113.994ZM147.488 108.21V99.989H149.626V120.989H147.488V110.05H144.902V119.953H142.789V100.395H144.902V108.21H147.488ZM140.427 115.453H132.272V102.351H140.427V115.453ZM138.339 104.116H134.369V113.688H138.339V104.116ZM160.009 105.948H162.985V102.318H159.918V100.619H175.515V102.318H172.457V105.948H175.424V107.646H160.009V105.948ZM165.197 105.948H170.228V102.318H165.197V105.948ZM158.17 110.97V109.196H177.313V110.97H158.17ZM174.885 117.401H162.67V119.099H175.49V120.79H160.49V115.826H172.697V114.251H160.449V112.61H174.885V117.401ZM194.699 107.182H192.13V112.461H190.05V100.395H192.13V105.367H194.699V100.006H196.804V114.251H194.699V107.182ZM188.89 109.793L189.113 111.558C186.511 112.088 184.34 112.171 181.232 112.171H179.84V105.972H185.633V103.387H179.79V101.58H187.763V107.622H181.995V110.406C184.605 110.381 186.578 110.257 188.89 109.793ZM190.812 113.273V113.771C190.812 116.356 193.92 118.602 197.881 119.157L196.995 120.89C193.771 120.384 191.003 118.826 189.71 116.622C188.401 118.826 185.625 120.384 182.417 120.89L181.531 119.157C185.467 118.602 188.575 116.356 188.591 113.771V113.273H190.812ZM210.311 108.268V110.456H218.798V112.229H199.654V110.456H208.082V108.268H201.494V106.453H204.469V102.442H201.403V100.635H216.999V102.442H213.941V106.453H216.908V108.268H210.311ZM211.712 102.442H206.682V106.453H211.712V102.442ZM216.461 120.724H201.95V114.061H216.461V120.724ZM214.298 115.801H204.146V118.917H214.298V115.801ZM242.383 110.307H245.399V112.122H236.88V121.022H234.651V112.122H226.256V110.307H240.12C240.75 107.315 240.75 105.119 240.75 103.163V103.122H228.584V101.315H242.963V103.163C242.954 105.144 242.954 107.307 242.383 110.307ZM262.155 121.03V99.989H264.393V121.03H262.155ZM250.57 103.785V113.986C254.547 113.978 257.108 113.862 260.067 113.323L260.291 115.18C257.158 115.751 254.415 115.876 250.072 115.884H248.332V101.945H258.393V103.785H250.57ZM268.867 102.028H271.61L271.395 114.11H269.082L268.867 102.028ZM270.243 119.157C269.331 119.157 268.569 118.412 268.585 117.5C268.569 116.588 269.331 115.843 270.243 115.843C271.146 115.843 271.9 116.588 271.908 117.5C271.9 118.412 271.146 119.157 270.243 119.157Z" fill="#9C9C9C"/>
</svg>
