<svg width="274" height="110" viewBox="0 0 274 110" fill="none" xmlns="http://www.w3.org/2000/svg">
<path d="M235.62 11.5218H215.908L218.288 0H238.001L235.62 11.5218ZM225.95 57.6089H206.758L215.684 14.1334H234.877L225.95 57.6089Z" fill="white"/>
<path fill-rule="evenodd" clip-rule="evenodd" d="M69.3175 40.3362H71.9954L71.5491 42.3333C70.2845 42.6405 68.4992 42.7941 66.2675 42.7941C61.6555 42.7941 58.6799 39.568 58.6799 34.4216C58.6799 26.8173 63.7383 21.1332 71.7723 21.1332C75.6405 21.1332 79.6574 22.5926 83.0049 25.4346L93.94 9.38095C88.4352 5.69398 81.2196 3.92731 73.1113 3.92731C52.8033 3.92731 38 17.9071 38 37.3405C38 50.2449 48.2656 60 63.2176 60C71.6178 60 79.8064 57.3067 86.8915 52.8414C83.833 49.2936 82.2553 44.5816 82.2553 39.0205C82.2553 35.1731 83.0957 31.5151 84.6278 28.1999H71.7723L69.3175 40.3362ZM85.9705 28.1999C84.347 31.5022 83.4551 35.1692 83.4551 39.0205C83.4551 44.2092 84.8872 48.5354 87.6057 51.8025L92.4522 28.1999H85.9705Z" fill="white"/>
<path d="M141.617 58.7611C127.483 58.7611 119.449 51.3104 119.449 39.0205C119.449 24.7334 131.723 12.9812 148.089 12.9812C162.148 12.9812 170.182 20.2784 170.182 32.4915C170.182 46.8553 157.908 58.7611 141.617 58.7611ZM144.221 42.6306C148.609 42.6306 150.544 38.3292 150.544 34.719C150.544 31.032 148.163 29.0349 145.485 29.0349C141.766 29.0349 139.162 32.0306 139.162 36.8697C139.162 40.6335 141.543 42.6306 144.221 42.6306Z" fill="white"/>
<path fill-rule="evenodd" clip-rule="evenodd" d="M128.535 18.2675C124.767 14.8458 119.2 12.9812 112.093 12.9812C95.7272 12.9812 83.4531 24.7334 83.4531 39.0205C83.4531 51.3104 91.4871 58.7611 105.621 58.7611C112.393 58.7611 118.472 56.7035 123.263 53.267C119.956 49.6741 118.247 44.807 118.247 39.0205C118.247 30.7 122.178 23.2654 128.535 18.2675ZM129.416 19.1306C123.238 23.9227 119.447 31.0801 119.447 39.0205C119.447 44.6049 121.106 49.1901 124.242 52.5312C130.4 47.6886 134.186 40.4692 134.186 32.4915C134.186 26.9527 132.534 22.4251 129.416 19.1306ZM114.547 34.719C114.547 38.3292 112.613 42.6306 108.224 42.6306C105.546 42.6306 103.166 40.6335 103.166 36.8697C103.166 32.0306 105.77 29.0349 109.489 29.0349C112.167 29.0349 114.547 31.032 114.547 34.719Z" fill="white"/>
<path fill-rule="evenodd" clip-rule="evenodd" d="M161.705 52.9129C164.301 56.5227 168.4 58.6843 173.695 58.6843C177.712 58.6843 181.803 57.3017 185.894 53.3843L185.002 57.6089H204.194L215.873 0.921753H196.681L193.11 18.2812C190.581 14.3638 187.085 12.9812 182.919 12.9812C176.845 12.9812 171.615 15.6993 167.572 19.8121C170.086 23.1823 171.381 27.4824 171.381 32.4915C171.381 40.5833 167.699 47.8735 161.705 52.9129ZM161.03 51.8841C166.718 47.0574 170.182 40.1212 170.182 32.4915C170.182 27.7915 168.992 23.8196 166.727 20.7114C161.532 26.4864 158.52 34.6019 158.52 41.8625C158.52 45.7257 159.392 49.1501 161.03 51.8841ZM189.465 35.7944C188.796 39.1741 186.341 42.7074 182.398 42.7074C179.646 42.7074 178.158 40.7871 178.158 37.9451C178.158 34.4117 180.241 28.9581 185.225 28.9581C188.721 28.9581 190.358 32.1842 189.465 35.7944Z" fill="white"/>
<path fill-rule="evenodd" clip-rule="evenodd" d="M135.5 46.4598C138.15 49.1965 142.447 49.1969 145.098 46.4608C147.748 49.1969 152.045 49.1965 154.696 46.4598C157.346 43.7227 157.346 39.285 154.696 36.5479C157.346 33.8109 157.346 29.3732 154.696 26.6361C152.045 23.8994 147.748 23.899 145.098 26.6351C142.447 23.899 138.15 23.8994 135.5 26.6361C132.849 29.3732 132.849 33.8109 135.5 36.5479C132.849 39.285 132.849 43.7227 135.5 46.4598Z" fill="#49ED3F"/>
<circle cx="4.59937" cy="4.59937" r="4.59937" transform="matrix(0.695683 0.718349 -0.695683 0.718349 145.098 29.9395)" fill="white"/>
<path d="M47.461 91.9261H49.9037V93.3059H47.461V101.473H45.7891V85.7417H47.461V91.9261ZM37.4479 87.2769V96.1402C39.6482 96.1215 41.9355 95.9351 44.4279 95.4254L44.6205 96.8363C41.9292 97.3709 39.4493 97.5262 37.0812 97.5262H35.7884V87.2769H37.4479ZM63.1233 85.7355V90.4468H65.4044V91.8391H63.1233V97.2652H61.4514V85.7355H63.1233ZM51.3512 87.1278H58.729V94.4869H51.3512V87.1278ZM52.9859 93.1568H57.0943V88.4765H52.9859V93.1568ZM53.1413 96.1588H54.8008V99.8011H63.7946V101.169H53.1413V96.1588ZM77.6606 85.7417H79.3264V101.523H77.6606V85.7417ZM71.4327 86.8605C73.9251 86.8605 75.709 88.4019 75.7214 90.6146C75.709 92.8336 73.9251 94.3688 71.4327 94.3688C68.9527 94.3688 67.1316 92.8336 67.144 90.6146C67.1316 88.4019 68.9527 86.8605 71.4327 86.8605ZM71.4327 88.3087C69.9037 88.3087 68.7787 89.2286 68.7911 90.6146C68.7787 92.0069 69.9037 92.9206 71.4327 92.9206C72.9617 92.9206 74.0867 92.0069 74.0929 90.6146C74.0867 89.2286 72.9617 88.3087 71.4327 88.3087ZM66.5909 98.1354L66.3858 96.7431C69.2573 96.7493 73.229 96.7182 76.6724 96.221L76.8029 97.4392C73.2352 98.1167 69.4065 98.1354 66.5909 98.1354ZM98.4509 91.8764H100.67V93.2376H94.2181V95.587H92.5773V93.2376H86.2561V91.8764H96.7976C97.1518 90.0925 97.1829 88.7873 97.1829 87.7244H88.0586V86.3881H98.8238V87.4448C98.8238 88.5449 98.8238 89.9869 98.4509 91.8764ZM94.2492 96.2086V96.7244C94.2492 98.4275 96.4681 99.8011 99.5137 100.155L98.9419 101.423C96.3998 101.113 94.3362 100.131 93.3915 98.6326C92.4343 100.099 90.3832 101.113 87.8846 101.423L87.3003 100.155C90.2962 99.8011 92.5462 98.3653 92.5586 96.7244V96.2086H94.2492ZM103.155 95.4876L102.478 94.1512C105.405 93.6727 108.121 91.4972 108.121 89.0794V88.6008H103.006V87.2396H114.977V88.6008H109.862V89.0794C109.862 91.4972 112.59 93.6167 115.592 94.0953L114.915 95.413C112.373 94.9406 110.03 93.4551 109.004 91.3854C107.985 93.48 105.66 95.0028 103.155 95.4876ZM101.813 99.453V98.0794H116.226V99.453H101.813ZM129.744 85.7541V90.422H132.025V91.8204H129.744V97.346H128.072V85.7541H129.744ZM126.991 93.25L127.109 94.4931C123.927 95.0028 120.26 95.0711 117.556 95.0711L117.369 93.6975C117.972 93.6975 118.625 93.6913 119.302 93.6789V88.5262H117.811V87.1775H126.307V88.5262H124.809V93.4613C125.555 93.4054 126.289 93.337 126.991 93.25ZM123.187 88.5262H120.912V93.6478C121.658 93.6291 122.423 93.5981 123.187 93.5608V88.5262ZM119.762 96.2459H121.422V99.8011H130.416V101.169H119.762V96.2459ZM144.866 91.9075V85.7417H146.47V101.492H144.866V93.2873H142.927V100.715H141.342V86.0463H142.927V91.9075H144.866ZM139.57 97.3398H133.454V87.5131H139.57V97.3398ZM138.004 88.837H135.027V96.0159H138.004V88.837ZM154.257 90.2106H156.488V87.4883H154.189V86.2141H165.886V87.4883H163.593V90.2106H165.818V91.4848H154.257V90.2106ZM158.148 90.2106H161.921V87.4883H158.148V90.2106ZM152.877 93.9772V92.6471H167.235V93.9772H152.877ZM165.414 98.8004H156.252V100.075H165.868V101.343H154.618V97.6195H163.773V96.4385H154.586V95.2079H165.414V98.8004ZM180.274 91.1367H178.348V95.096H176.787V86.0463H178.348V89.7756H180.274V85.7541H181.853V96.4385H180.274V91.1367ZM175.917 93.0946L176.085 94.4185C174.133 94.8163 172.505 94.8785 170.174 94.8785H169.13V90.2293H173.475V88.2901H169.093V86.9351H175.072V91.4662H170.746V93.5546C172.704 93.5359 174.183 93.4427 175.917 93.0946ZM177.359 95.7051V96.078C177.359 98.0173 179.69 99.7017 182.661 100.118L181.996 101.417C179.578 101.038 177.502 99.8695 176.533 98.2162C175.551 99.8695 173.468 101.038 171.063 101.417L170.398 100.118C173.35 99.7017 175.681 98.0173 175.694 96.078V95.7051H177.359ZM191.984 91.951V93.5919H198.348V94.922H183.991V93.5919H190.312V91.951H185.37V90.5898H187.602V87.5815H185.302V86.2265H196.999V87.5815H194.706V90.5898H196.931V91.951H191.984ZM193.034 87.5815H189.261V90.5898H193.034V87.5815ZM196.595 101.293H185.712V96.2956H196.595V101.293ZM194.973 97.6008H187.359V99.9378H194.973V97.6008ZM216.037 93.48H218.299V94.8412H211.91V101.517H210.238V94.8412H203.942V93.48H214.34C214.813 91.2362 214.813 89.5891 214.813 88.1222V88.0912H205.688V86.7362H216.472V88.1222C216.466 89.6077 216.466 91.23 216.037 93.48ZM230.866 101.523V85.7417H232.545V101.523H230.866ZM222.177 88.5884V96.2396C225.161 96.2334 227.081 96.1464 229.3 95.7424L229.468 97.1347C227.118 97.5635 225.061 97.6568 221.804 97.663H220.499V87.2086H228.045V88.5884H222.177ZM235.9 87.2707H237.958L237.796 96.3329H236.062L235.9 87.2707ZM236.932 100.118C236.248 100.118 235.677 99.5587 235.689 98.875C235.677 98.1913 236.248 97.6319 236.932 97.6319C237.61 97.6319 238.175 98.1913 238.181 98.875C238.175 99.5587 237.61 100.118 236.932 100.118Z" fill="#9C9C9C"/>
</svg>
