<svg width="204" height="62" viewBox="0 0 204 62" fill="none" xmlns="http://www.w3.org/2000/svg">
<path d="M201.573 11.9058H181.466L183.894 0H204.001L201.573 11.9058ZM191.709 59.5292H172.133L181.238 14.6045H200.814L191.709 59.5292Z" fill="black"/>
<path fill-rule="evenodd" clip-rule="evenodd" d="M31.9439 41.6807H34.6755L34.2202 43.7444C32.9303 44.0619 31.1093 44.2206 28.833 44.2206C24.1287 44.2206 21.0936 40.887 21.0936 35.569C21.0936 27.7112 26.2532 21.8376 34.4479 21.8376C38.3934 21.8376 42.4908 23.3457 45.9052 26.2825L57.059 9.69366C51.4442 5.88379 44.0842 4.05823 35.8136 4.05823C15.0994 4.05823 0 18.504 0 38.5852C0 51.9197 10.4709 62 25.7221 62C34.2903 62 42.6428 59.217 49.8696 54.6028C46.7499 50.9367 45.1406 46.0677 45.1406 40.3212C45.1406 36.3455 45.9978 32.5656 47.5606 29.1399H34.4479L31.9439 41.6807ZM48.9301 29.1399C47.2742 32.5523 46.3644 36.3415 46.3644 40.3212C46.3644 45.6829 47.8251 50.1533 50.5981 53.5292L55.5415 29.1399H48.9301Z" fill="black"/>
<path d="M105.689 60.7198C91.2728 60.7198 83.0781 53.0207 83.0781 40.3211C83.0781 25.5579 95.5977 13.4139 112.291 13.4139C126.631 13.4139 134.826 20.9543 134.826 33.5745C134.826 48.4171 122.306 60.7198 105.689 60.7198ZM108.345 44.0516C112.822 44.0516 114.794 39.6068 114.794 35.8763C114.794 32.0664 112.366 30.0028 109.635 30.0028C105.841 30.0028 103.185 33.0983 103.185 38.0987C103.185 41.988 105.613 44.0516 108.345 44.0516Z" fill="black"/>
<path fill-rule="evenodd" clip-rule="evenodd" d="M92.3471 18.8764C88.5035 15.3407 82.8248 13.4139 75.5757 13.4139C58.8829 13.4139 46.3633 25.5579 46.3633 40.3211C46.3633 53.0207 54.5579 60.7198 68.9744 60.7198C75.8825 60.7198 82.0825 58.5936 86.9692 55.0425C83.5959 51.3299 81.8535 46.3005 81.8535 40.3212C81.8535 31.7233 85.8626 24.0409 92.3471 18.8764ZM93.2459 19.7683C86.9445 24.7201 83.0773 32.1161 83.0773 40.3212C83.0773 46.0917 84.7693 50.8298 87.9681 54.2823C94.249 49.2783 98.111 41.8181 98.111 33.5745C98.111 27.8512 96.4256 23.1726 93.2459 19.7683ZM78.0796 35.8763C78.0796 39.6068 76.1068 44.0516 71.6301 44.0516C68.8986 44.0516 66.4705 41.988 66.4705 38.0987C66.4705 33.0983 69.1262 30.0028 72.92 30.0028C75.6516 30.0028 78.0796 32.0664 78.0796 35.8763Z" fill="black"/>
<path fill-rule="evenodd" clip-rule="evenodd" d="M126.179 54.6767C128.827 58.4068 133.008 60.6405 138.408 60.6405C142.506 60.6405 146.679 59.2118 150.852 55.1638L149.942 59.5293H169.518L181.43 0.952515H161.854L158.212 18.8907C155.632 14.8427 152.066 13.414 147.817 13.414C141.622 13.414 136.287 16.2227 132.163 20.4726C134.727 23.9551 136.049 28.3985 136.049 33.5746C136.049 41.9361 132.293 49.4693 126.179 54.6767ZM125.49 53.6136C131.293 48.626 134.825 41.4586 134.825 33.5746C134.825 28.7179 133.611 24.6136 131.301 21.4018C126.003 27.3693 122.93 35.7553 122.93 43.258C122.93 47.2499 123.82 50.7885 125.49 53.6136ZM154.494 36.9875C153.811 40.4799 151.307 44.1311 147.286 44.1311C144.479 44.1311 142.961 42.1467 142.961 39.21C142.961 35.5588 145.086 29.9234 150.169 29.9234C153.735 29.9234 155.405 33.257 154.494 36.9875Z" fill="black"/>
<path fill-rule="evenodd" clip-rule="evenodd" d="M99.4501 48.0084C102.154 50.8364 106.536 50.8368 109.24 48.0095C111.944 50.8368 116.327 50.8364 119.03 48.0085C121.734 45.1801 121.734 40.5946 119.03 37.7662C121.734 34.9379 121.734 30.3523 119.03 27.524C116.327 24.696 111.944 24.6957 109.24 27.5229C106.536 24.6957 102.154 24.696 99.4501 27.524C96.7464 30.3523 96.7464 34.9379 99.4501 37.7662C96.7464 40.5946 96.7464 45.1801 99.4501 48.0084Z" fill="#49ED3F"/>
<circle cx="4.72311" cy="4.72311" r="4.72311" transform="matrix(0.691009 0.722847 -0.691009 0.722847 109.24 30.9374)" fill="black"/>
</svg>
