<svg width="200" height="60" viewBox="0 0 200 60" fill="none" xmlns="http://www.w3.org/2000/svg">
<path d="M197.62 11.5218H177.908L180.288 0H200.001L197.62 11.5218ZM187.95 57.6089H168.758L177.684 14.1334H196.877L187.95 57.6089Z" fill="white"/>
<path fill-rule="evenodd" clip-rule="evenodd" d="M31.3175 40.3362H33.9954L33.5491 42.3333C32.2845 42.6405 30.4992 42.7941 28.2675 42.7941C23.6555 42.7941 20.6799 39.568 20.6799 34.4216C20.6799 26.8173 25.7383 21.1332 33.7723 21.1332C37.6405 21.1332 41.6574 22.5926 45.0049 25.4346L55.94 9.38095C50.4352 5.69398 43.2196 3.92731 35.1113 3.92731C14.8033 3.92731 0 17.9071 0 37.3405C0 50.2449 10.2656 60 25.2176 60C33.6178 60 41.8064 57.3067 48.8915 52.8414C45.833 49.2936 44.2553 44.5816 44.2553 39.0205C44.2553 35.1731 45.0957 31.5151 46.6278 28.1999H33.7723L31.3175 40.3362ZM47.9705 28.1999C46.347 31.5022 45.4551 35.1692 45.4551 39.0205C45.4551 44.2092 46.8872 48.5354 49.6057 51.8025L54.4522 28.1999H47.9705Z" fill="white"/>
<path d="M103.617 58.7611C89.4832 58.7611 81.4492 51.3104 81.4492 39.0205C81.4492 24.7335 93.7233 12.9812 110.089 12.9812C124.148 12.9812 132.182 20.2784 132.182 32.4915C132.182 46.8553 119.908 58.7611 103.617 58.7611ZM106.221 42.6306C110.609 42.6306 112.544 38.3292 112.544 34.719C112.544 31.032 110.163 29.0349 107.485 29.0349C103.766 29.0349 101.162 32.0306 101.162 36.8697C101.162 40.6335 103.543 42.6306 106.221 42.6306Z" fill="white"/>
<path fill-rule="evenodd" clip-rule="evenodd" d="M90.5351 18.2675C86.7669 14.8458 81.1996 12.9812 74.0926 12.9812C57.7272 12.9812 45.4531 24.7334 45.4531 39.0205C45.4531 51.3104 53.4871 58.7611 67.6208 58.7611C74.3934 58.7611 80.4718 56.7035 85.2626 53.2669C81.9555 49.6741 80.2473 44.807 80.2473 39.0205C80.2473 30.7 84.1777 23.2654 90.5351 18.2675ZM91.4163 19.1306C85.2384 23.9227 81.4471 31.0801 81.4471 39.0205C81.4471 44.6049 83.1059 49.1901 86.242 52.5313C92.3997 47.6887 96.1859 40.4692 96.1859 32.4915C96.1859 26.9527 94.5336 22.4251 91.4163 19.1306ZM76.5474 34.719C76.5474 38.3292 74.6133 42.6306 70.2244 42.6306C67.5464 42.6306 65.166 40.6335 65.166 36.8697C65.166 32.0306 67.7696 29.0349 71.489 29.0349C74.167 29.0349 76.5474 31.032 76.5474 34.719Z" fill="white"/>
<path fill-rule="evenodd" clip-rule="evenodd" d="M123.705 52.9129C126.301 56.5227 130.4 58.6843 135.695 58.6843C139.712 58.6843 143.803 57.3017 147.894 53.3843L147.002 57.6089H166.194L177.873 0.921753H158.681L155.11 18.2812C152.581 14.3638 149.085 12.9812 144.919 12.9812C138.845 12.9812 133.615 15.6993 129.572 19.8121C132.086 23.1823 133.381 27.4824 133.381 32.4915C133.381 40.5832 129.699 47.8735 123.705 52.9129ZM123.03 51.8841C128.718 47.0574 132.182 40.1212 132.182 32.4915C132.182 27.7915 130.992 23.8196 128.727 20.7114C123.532 26.4864 120.52 34.6019 120.52 41.8625C120.52 45.7257 121.392 49.1501 123.03 51.8841ZM151.465 35.7944C150.796 39.1741 148.341 42.7074 144.398 42.7074C141.646 42.7074 140.158 40.7871 140.158 37.9451C140.158 34.4117 142.241 28.9581 147.225 28.9581C150.721 28.9581 152.358 32.1842 151.465 35.7944Z" fill="white"/>
<path fill-rule="evenodd" clip-rule="evenodd" d="M97.4996 46.4598C100.15 49.1965 104.447 49.1969 107.098 46.4608C109.748 49.1969 114.045 49.1965 116.696 46.4598C119.346 43.7227 119.346 39.285 116.696 36.5479C119.346 33.8109 119.346 29.3732 116.696 26.6361C114.045 23.8994 109.748 23.899 107.098 26.6351C104.447 23.899 100.15 23.8994 97.4996 26.6361C94.8489 29.3732 94.8488 33.8109 97.4995 36.5479C94.8488 39.285 94.8489 43.7227 97.4996 46.4598Z" fill="#49ED3F"/>
<circle cx="4.59937" cy="4.59937" r="4.59937" transform="matrix(0.695683 0.718349 -0.695683 0.718349 107.098 29.9395)" fill="white"/>
</svg>
