<svg width="103" height="48" viewBox="0 0 103 48" fill="none" xmlns="http://www.w3.org/2000/svg">
<path d="M21.8613 47.75L0.000226706 29L16.8613 29L21.8613 47.75Z" fill="#49ED3F"/>
<path d="M11.2774 0H103V29H0L11.2774 0Z" fill="#49ED3F"/>
<path d="M34.42 22.2C33.3267 22.2 32.32 22.0267 31.4 21.68C30.4933 21.32 29.7 20.82 29.02 20.18C28.34 19.5267 27.8133 18.76 27.44 17.88C27.0667 17 26.88 16.04 26.88 15C26.88 13.96 27.0667 13 27.44 12.12C27.8133 11.24 28.34 10.48 29.02 9.84C29.7133 9.18667 30.52 8.68667 31.44 8.34C32.36 7.98 33.3667 7.8 34.46 7.8C35.6467 7.8 36.7133 7.99333 37.66 8.38C38.62 8.76667 39.4267 9.33333 40.08 10.08L38.44 11.68C37.8933 11.1333 37.3 10.7333 36.66 10.48C36.0333 10.2133 35.34 10.08 34.58 10.08C33.8467 10.08 33.1667 10.2 32.54 10.44C31.9133 10.68 31.3733 11.02 30.92 11.46C30.4667 11.9 30.1133 12.42 29.86 13.02C29.62 13.62 29.5 14.28 29.5 15C29.5 15.7067 29.62 16.36 29.86 16.96C30.1133 17.56 30.4667 18.0867 30.92 18.54C31.3733 18.98 31.9067 19.32 32.52 19.56C33.1333 19.8 33.8133 19.92 34.56 19.92C35.2533 19.92 35.92 19.8133 36.56 19.6C37.2133 19.3733 37.8333 19 38.42 18.48L39.9 20.42C39.1667 21.0067 38.3133 21.4533 37.34 21.76C36.38 22.0533 35.4067 22.2 34.42 22.2ZM37.44 20.08V14.84H39.9V20.42L37.44 20.08ZM47.4892 22.14C46.3959 22.14 45.4226 21.9067 44.5692 21.44C43.7159 20.96 43.0426 20.3067 42.5492 19.48C42.0559 18.6533 41.8092 17.7133 41.8092 16.66C41.8092 15.5933 42.0559 14.6533 42.5492 13.84C43.0426 13.0133 43.7159 12.3667 44.5692 11.9C45.4226 11.4333 46.3959 11.2 47.4892 11.2C48.5959 11.2 49.5759 11.4333 50.4292 11.9C51.2959 12.3667 51.9692 13.0067 52.4492 13.82C52.9426 14.6333 53.1892 15.58 53.1892 16.66C53.1892 17.7133 52.9426 18.6533 52.4492 19.48C51.9692 20.3067 51.2959 20.96 50.4292 21.44C49.5759 21.9067 48.5959 22.14 47.4892 22.14ZM47.4892 20C48.1026 20 48.6492 19.8667 49.1292 19.6C49.6092 19.3333 49.9826 18.9467 50.2492 18.44C50.5292 17.9333 50.6692 17.34 50.6692 16.66C50.6692 15.9667 50.5292 15.3733 50.2492 14.88C49.9826 14.3733 49.6092 13.9867 49.1292 13.72C48.6492 13.4533 48.1092 13.32 47.5092 13.32C46.8959 13.32 46.3492 13.4533 45.8692 13.72C45.4026 13.9867 45.0292 14.3733 44.7492 14.88C44.4692 15.3733 44.3292 15.9667 44.3292 16.66C44.3292 17.34 44.4692 17.9333 44.7492 18.44C45.0292 18.9467 45.4026 19.3333 45.8692 19.6C46.3492 19.8667 46.8892 20 47.4892 20ZM59.9798 22.14C58.8865 22.14 57.9132 21.9067 57.0598 21.44C56.2065 20.96 55.5332 20.3067 55.0398 19.48C54.5465 18.6533 54.2998 17.7133 54.2998 16.66C54.2998 15.5933 54.5465 14.6533 55.0398 13.84C55.5332 13.0133 56.2065 12.3667 57.0598 11.9C57.9132 11.4333 58.8865 11.2 59.9798 11.2C61.0865 11.2 62.0665 11.4333 62.9198 11.9C63.7865 12.3667 64.4598 13.0067 64.9398 13.82C65.4332 14.6333 65.6798 15.58 65.6798 16.66C65.6798 17.7133 65.4332 18.6533 64.9398 19.48C64.4598 20.3067 63.7865 20.96 62.9198 21.44C62.0665 21.9067 61.0865 22.14 59.9798 22.14ZM59.9798 20C60.5932 20 61.1398 19.8667 61.6198 19.6C62.0998 19.3333 62.4732 18.9467 62.7398 18.44C63.0198 17.9333 63.1598 17.34 63.1598 16.66C63.1598 15.9667 63.0198 15.3733 62.7398 14.88C62.4732 14.3733 62.0998 13.9867 61.6198 13.72C61.1398 13.4533 60.5998 13.32 59.9998 13.32C59.3865 13.32 58.8398 13.4533 58.3598 13.72C57.8932 13.9867 57.5198 14.3733 57.2398 14.88C56.9598 15.3733 56.8198 15.9667 56.8198 16.66C56.8198 17.34 56.9598 17.9333 57.2398 18.44C57.5198 18.9467 57.8932 19.3333 58.3598 19.6C58.8398 19.8667 59.3798 20 59.9798 20ZM72.1905 22.14C71.1638 22.14 70.2371 21.9133 69.4105 21.46C68.5971 20.9933 67.9571 20.3533 67.4905 19.54C67.0238 18.7267 66.7905 17.7667 66.7905 16.66C66.7905 15.5533 67.0238 14.5933 67.4905 13.78C67.9571 12.9667 68.5971 12.3333 69.4105 11.88C70.2371 11.4267 71.1638 11.2 72.1905 11.2C73.0838 11.2 73.8838 11.4 74.5905 11.8C75.2971 12.1867 75.8571 12.78 76.2705 13.58C76.6838 14.38 76.8905 15.4067 76.8905 16.66C76.8905 17.9 76.6905 18.9267 76.2905 19.74C75.8905 20.54 75.3371 21.14 74.6305 21.54C73.9238 21.94 73.1105 22.14 72.1905 22.14ZM72.4905 20C73.0905 20 73.6238 19.8667 74.0905 19.6C74.5705 19.3333 74.9505 18.9467 75.2305 18.44C75.5238 17.9333 75.6705 17.34 75.6705 16.66C75.6705 15.9667 75.5238 15.3733 75.2305 14.88C74.9505 14.3733 74.5705 13.9867 74.0905 13.72C73.6238 13.4533 73.0905 13.32 72.4905 13.32C71.8905 13.32 71.3505 13.4533 70.8705 13.72C70.4038 13.9867 70.0238 14.3733 69.7305 14.88C69.4505 15.3733 69.3105 15.9667 69.3105 16.66C69.3105 17.34 69.4505 17.9333 69.7305 18.44C70.0238 18.9467 70.4038 19.3333 70.8705 19.6C71.3505 19.8667 71.8905 20 72.4905 20ZM75.7305 22V19.48L75.8305 16.64L75.6305 13.8V7.16H78.1105V22H75.7305ZM81.0009 22V11.32H83.5009V22H81.0009ZM82.2609 9.56C81.7943 9.56 81.4076 9.41333 81.1009 9.12C80.8076 8.82667 80.6609 8.47333 80.6609 8.06C80.6609 7.63333 80.8076 7.28 81.1009 7C81.4076 6.70667 81.7943 6.56 82.2609 6.56C82.7276 6.56 83.1076 6.7 83.4009 6.98C83.7076 7.24667 83.8609 7.58667 83.8609 8C83.8609 8.44 83.7143 8.81333 83.4209 9.12C83.1276 9.41333 82.7409 9.56 82.2609 9.56Z" fill="white"/>
</svg>
