<svg width="117" height="48" viewBox="0 0 117 48" fill="none" xmlns="http://www.w3.org/2000/svg">
<path fill-rule="evenodd" clip-rule="evenodd" d="M116.5 0H11.2774L0 29H0.000231154L21.8613 47.75L16.8613 29L116.5 29V0Z" fill="#49ED3F"/>
<path d="M33.72 8H36.32V22H33.72V8ZM26.48 22H23.88V8H26.48V22ZM33.92 16H26.26V13.78H33.92V16ZM39.4314 22V11.32H41.9314V22H39.4314ZM40.6914 9.56C40.2247 9.56 39.8381 9.41333 39.5314 9.12C39.2381 8.82667 39.0914 8.47333 39.0914 8.06C39.0914 7.63333 39.2381 7.28 39.5314 7C39.8381 6.70667 40.2247 6.56 40.6914 6.56C41.1581 6.56 41.5381 6.7 41.8314 6.98C42.1381 7.24667 42.2914 7.58667 42.2914 8C42.2914 8.44 42.1447 8.81333 41.8514 9.12C41.5581 9.41333 41.1714 9.56 40.6914 9.56ZM56.72 22.2C55.6267 22.2 54.62 22.0267 53.7 21.68C52.7933 21.32 52 20.82 51.32 20.18C50.64 19.5267 50.1133 18.76 49.74 17.88C49.3667 17 49.18 16.04 49.18 15C49.18 13.96 49.3667 13 49.74 12.12C50.1133 11.24 50.64 10.48 51.32 9.84C52.0133 9.18667 52.82 8.68667 53.74 8.34C54.66 7.98 55.6667 7.8 56.76 7.8C57.9467 7.8 59.0133 7.99333 59.96 8.38C60.92 8.76667 61.7267 9.33333 62.38 10.08L60.74 11.68C60.1933 11.1333 59.6 10.7333 58.96 10.48C58.3333 10.2133 57.64 10.08 56.88 10.08C56.1467 10.08 55.4667 10.2 54.84 10.44C54.2133 10.68 53.6733 11.02 53.22 11.46C52.7667 11.9 52.4133 12.42 52.16 13.02C51.92 13.62 51.8 14.28 51.8 15C51.8 15.7067 51.92 16.36 52.16 16.96C52.4133 17.56 52.7667 18.0867 53.22 18.54C53.6733 18.98 54.2067 19.32 54.82 19.56C55.4333 19.8 56.1133 19.92 56.86 19.92C57.5533 19.92 58.22 19.8133 58.86 19.6C59.5133 19.3733 60.1333 19 60.72 18.48L62.2 20.42C61.4667 21.0067 60.6133 21.4533 59.64 21.76C58.68 22.0533 57.7067 22.2 56.72 22.2ZM59.74 20.08V14.84H62.2V20.42L59.74 20.08ZM69.7892 22.14C68.6959 22.14 67.7226 21.9067 66.8692 21.44C66.0159 20.96 65.3426 20.3067 64.8492 19.48C64.3559 18.6533 64.1092 17.7133 64.1092 16.66C64.1092 15.5933 64.3559 14.6533 64.8492 13.84C65.3426 13.0133 66.0159 12.3667 66.8692 11.9C67.7226 11.4333 68.6959 11.2 69.7892 11.2C70.8959 11.2 71.8759 11.4333 72.7292 11.9C73.5959 12.3667 74.2692 13.0067 74.7492 13.82C75.2426 14.6333 75.4892 15.58 75.4892 16.66C75.4892 17.7133 75.2426 18.6533 74.7492 19.48C74.2692 20.3067 73.5959 20.96 72.7292 21.44C71.8759 21.9067 70.8959 22.14 69.7892 22.14ZM69.7892 20C70.4026 20 70.9492 19.8667 71.4292 19.6C71.9092 19.3333 72.2826 18.9467 72.5492 18.44C72.8292 17.9333 72.9692 17.34 72.9692 16.66C72.9692 15.9667 72.8292 15.3733 72.5492 14.88C72.2826 14.3733 71.9092 13.9867 71.4292 13.72C70.9492 13.4533 70.4092 13.32 69.8092 13.32C69.1959 13.32 68.6492 13.4533 68.1692 13.72C67.7026 13.9867 67.3292 14.3733 67.0492 14.88C66.7692 15.3733 66.6292 15.9667 66.6292 16.66C66.6292 17.34 66.7692 17.9333 67.0492 18.44C67.3292 18.9467 67.7026 19.3333 68.1692 19.6C68.6492 19.8667 69.1892 20 69.7892 20ZM82.2798 22.14C81.1865 22.14 80.2132 21.9067 79.3598 21.44C78.5065 20.96 77.8332 20.3067 77.3398 19.48C76.8465 18.6533 76.5998 17.7133 76.5998 16.66C76.5998 15.5933 76.8465 14.6533 77.3398 13.84C77.8332 13.0133 78.5065 12.3667 79.3598 11.9C80.2132 11.4333 81.1865 11.2 82.2798 11.2C83.3865 11.2 84.3665 11.4333 85.2198 11.9C86.0865 12.3667 86.7598 13.0067 87.2398 13.82C87.7332 14.6333 87.9798 15.58 87.9798 16.66C87.9798 17.7133 87.7332 18.6533 87.2398 19.48C86.7598 20.3067 86.0865 20.96 85.2198 21.44C84.3665 21.9067 83.3865 22.14 82.2798 22.14ZM82.2798 20C82.8932 20 83.4398 19.8667 83.9198 19.6C84.3998 19.3333 84.7732 18.9467 85.0398 18.44C85.3198 17.9333 85.4598 17.34 85.4598 16.66C85.4598 15.9667 85.3198 15.3733 85.0398 14.88C84.7732 14.3733 84.3998 13.9867 83.9198 13.72C83.4398 13.4533 82.8998 13.32 82.2998 13.32C81.6865 13.32 81.1398 13.4533 80.6598 13.72C80.1932 13.9867 79.8198 14.3733 79.5398 14.88C79.2598 15.3733 79.1198 15.9667 79.1198 16.66C79.1198 17.34 79.2598 17.9333 79.5398 18.44C79.8198 18.9467 80.1932 19.3333 80.6598 19.6C81.1398 19.8667 81.6798 20 82.2798 20ZM94.4905 22.14C93.4638 22.14 92.5371 21.9133 91.7105 21.46C90.8971 20.9933 90.2571 20.3533 89.7905 19.54C89.3238 18.7267 89.0905 17.7667 89.0905 16.66C89.0905 15.5533 89.3238 14.5933 89.7905 13.78C90.2571 12.9667 90.8971 12.3333 91.7105 11.88C92.5371 11.4267 93.4638 11.2 94.4905 11.2C95.3838 11.2 96.1838 11.4 96.8905 11.8C97.5971 12.1867 98.1571 12.78 98.5705 13.58C98.9838 14.38 99.1905 15.4067 99.1905 16.66C99.1905 17.9 98.9905 18.9267 98.5905 19.74C98.1905 20.54 97.6371 21.14 96.9305 21.54C96.2238 21.94 95.4105 22.14 94.4905 22.14ZM94.7905 20C95.3905 20 95.9238 19.8667 96.3905 19.6C96.8705 19.3333 97.2505 18.9467 97.5305 18.44C97.8238 17.9333 97.9705 17.34 97.9705 16.66C97.9705 15.9667 97.8238 15.3733 97.5305 14.88C97.2505 14.3733 96.8705 13.9867 96.3905 13.72C95.9238 13.4533 95.3905 13.32 94.7905 13.32C94.1905 13.32 93.6505 13.4533 93.1705 13.72C92.7038 13.9867 92.3238 14.3733 92.0305 14.88C91.7505 15.3733 91.6105 15.9667 91.6105 16.66C91.6105 17.34 91.7505 17.9333 92.0305 18.44C92.3238 18.9467 92.7038 19.3333 93.1705 19.6C93.6505 19.8667 94.1905 20 94.7905 20ZM98.0305 22V19.48L98.1305 16.64L97.9305 13.8V7.16H100.41V22H98.0305ZM103.301 22V11.32H105.801V22H103.301ZM104.561 9.56C104.094 9.56 103.708 9.41333 103.401 9.12C103.108 8.82667 102.961 8.47333 102.961 8.06C102.961 7.63333 103.108 7.28 103.401 7C103.708 6.70667 104.094 6.56 104.561 6.56C105.028 6.56 105.408 6.7 105.701 6.98C106.008 7.24667 106.161 7.58667 106.161 8C106.161 8.44 106.014 8.81333 105.721 9.12C105.428 9.41333 105.041 9.56 104.561 9.56Z" fill="white"/>
</svg>
