<svg width="103" height="51" viewBox="0 0 103 51" fill="none" xmlns="http://www.w3.org/2000/svg">
<path fill-rule="evenodd" clip-rule="evenodd" d="M103 0H11.2774L0 32L0.000226706 32L21.8613 50.75L16.8613 32L103 32V0Z" fill="#49ED3F"/>
<path d="M34.42 23.2C33.3267 23.2 32.32 23.0267 31.4 22.68C30.4933 22.32 29.7 21.82 29.02 21.18C28.34 20.5267 27.8133 19.76 27.44 18.88C27.0667 18 26.88 17.04 26.88 16C26.88 14.96 27.0667 14 27.44 13.12C27.8133 12.24 28.34 11.48 29.02 10.84C29.7133 10.1867 30.52 9.68667 31.44 9.34C32.36 8.98 33.3667 8.8 34.46 8.8C35.6467 8.8 36.7133 8.99333 37.66 9.38C38.62 9.76667 39.4267 10.3333 40.08 11.08L38.44 12.68C37.8933 12.1333 37.3 11.7333 36.66 11.48C36.0333 11.2133 35.34 11.08 34.58 11.08C33.8467 11.08 33.1667 11.2 32.54 11.44C31.9133 11.68 31.3733 12.02 30.92 12.46C30.4667 12.9 30.1133 13.42 29.86 14.02C29.62 14.62 29.5 15.28 29.5 16C29.5 16.7067 29.62 17.36 29.86 17.96C30.1133 18.56 30.4667 19.0867 30.92 19.54C31.3733 19.98 31.9067 20.32 32.52 20.56C33.1333 20.8 33.8133 20.92 34.56 20.92C35.2533 20.92 35.92 20.8133 36.56 20.6C37.2133 20.3733 37.8333 20 38.42 19.48L39.9 21.42C39.1667 22.0067 38.3133 22.4533 37.34 22.76C36.38 23.0533 35.4067 23.2 34.42 23.2ZM37.44 21.08V15.84H39.9V21.42L37.44 21.08ZM47.4892 23.14C46.3959 23.14 45.4226 22.9067 44.5692 22.44C43.7159 21.96 43.0426 21.3067 42.5492 20.48C42.0559 19.6533 41.8092 18.7133 41.8092 17.66C41.8092 16.5933 42.0559 15.6533 42.5492 14.84C43.0426 14.0133 43.7159 13.3667 44.5692 12.9C45.4226 12.4333 46.3959 12.2 47.4892 12.2C48.5959 12.2 49.5759 12.4333 50.4292 12.9C51.2959 13.3667 51.9692 14.0067 52.4492 14.82C52.9426 15.6333 53.1892 16.58 53.1892 17.66C53.1892 18.7133 52.9426 19.6533 52.4492 20.48C51.9692 21.3067 51.2959 21.96 50.4292 22.44C49.5759 22.9067 48.5959 23.14 47.4892 23.14ZM47.4892 21C48.1026 21 48.6492 20.8667 49.1292 20.6C49.6092 20.3333 49.9826 19.9467 50.2492 19.44C50.5292 18.9333 50.6692 18.34 50.6692 17.66C50.6692 16.9667 50.5292 16.3733 50.2492 15.88C49.9826 15.3733 49.6092 14.9867 49.1292 14.72C48.6492 14.4533 48.1092 14.32 47.5092 14.32C46.8959 14.32 46.3492 14.4533 45.8692 14.72C45.4026 14.9867 45.0292 15.3733 44.7492 15.88C44.4692 16.3733 44.3292 16.9667 44.3292 17.66C44.3292 18.34 44.4692 18.9333 44.7492 19.44C45.0292 19.9467 45.4026 20.3333 45.8692 20.6C46.3492 20.8667 46.8892 21 47.4892 21ZM59.9798 23.14C58.8865 23.14 57.9132 22.9067 57.0598 22.44C56.2065 21.96 55.5332 21.3067 55.0398 20.48C54.5465 19.6533 54.2998 18.7133 54.2998 17.66C54.2998 16.5933 54.5465 15.6533 55.0398 14.84C55.5332 14.0133 56.2065 13.3667 57.0598 12.9C57.9132 12.4333 58.8865 12.2 59.9798 12.2C61.0865 12.2 62.0665 12.4333 62.9198 12.9C63.7865 13.3667 64.4598 14.0067 64.9398 14.82C65.4332 15.6333 65.6798 16.58 65.6798 17.66C65.6798 18.7133 65.4332 19.6533 64.9398 20.48C64.4598 21.3067 63.7865 21.96 62.9198 22.44C62.0665 22.9067 61.0865 23.14 59.9798 23.14ZM59.9798 21C60.5932 21 61.1398 20.8667 61.6198 20.6C62.0998 20.3333 62.4732 19.9467 62.7398 19.44C63.0198 18.9333 63.1598 18.34 63.1598 17.66C63.1598 16.9667 63.0198 16.3733 62.7398 15.88C62.4732 15.3733 62.0998 14.9867 61.6198 14.72C61.1398 14.4533 60.5998 14.32 59.9998 14.32C59.3865 14.32 58.8398 14.4533 58.3598 14.72C57.8932 14.9867 57.5198 15.3733 57.2398 15.88C56.9598 16.3733 56.8198 16.9667 56.8198 17.66C56.8198 18.34 56.9598 18.9333 57.2398 19.44C57.5198 19.9467 57.8932 20.3333 58.3598 20.6C58.8398 20.8667 59.3798 21 59.9798 21ZM72.1905 23.14C71.1638 23.14 70.2371 22.9133 69.4105 22.46C68.5971 21.9933 67.9571 21.3533 67.4905 20.54C67.0238 19.7267 66.7905 18.7667 66.7905 17.66C66.7905 16.5533 67.0238 15.5933 67.4905 14.78C67.9571 13.9667 68.5971 13.3333 69.4105 12.88C70.2371 12.4267 71.1638 12.2 72.1905 12.2C73.0838 12.2 73.8838 12.4 74.5905 12.8C75.2971 13.1867 75.8571 13.78 76.2705 14.58C76.6838 15.38 76.8905 16.4067 76.8905 17.66C76.8905 18.9 76.6905 19.9267 76.2905 20.74C75.8905 21.54 75.3371 22.14 74.6305 22.54C73.9238 22.94 73.1105 23.14 72.1905 23.14ZM72.4905 21C73.0905 21 73.6238 20.8667 74.0905 20.6C74.5705 20.3333 74.9505 19.9467 75.2305 19.44C75.5238 18.9333 75.6705 18.34 75.6705 17.66C75.6705 16.9667 75.5238 16.3733 75.2305 15.88C74.9505 15.3733 74.5705 14.9867 74.0905 14.72C73.6238 14.4533 73.0905 14.32 72.4905 14.32C71.8905 14.32 71.3505 14.4533 70.8705 14.72C70.4038 14.9867 70.0238 15.3733 69.7305 15.88C69.4505 16.3733 69.3105 16.9667 69.3105 17.66C69.3105 18.34 69.4505 18.9333 69.7305 19.44C70.0238 19.9467 70.4038 20.3333 70.8705 20.6C71.3505 20.8667 71.8905 21 72.4905 21ZM75.7305 23V20.48L75.8305 17.64L75.6305 14.8V8.16H78.1105V23H75.7305ZM81.0009 23V12.32H83.5009V23H81.0009ZM82.2609 10.56C81.7943 10.56 81.4076 10.4133 81.1009 10.12C80.8076 9.82667 80.6609 9.47333 80.6609 9.06C80.6609 8.63333 80.8076 8.28 81.1009 8C81.4076 7.70667 81.7943 7.56 82.2609 7.56C82.7276 7.56 83.1076 7.7 83.4009 7.98C83.7076 8.24667 83.8609 8.58667 83.8609 9C83.8609 9.44 83.7143 9.81333 83.4209 10.12C83.1276 10.4133 82.7409 10.56 82.2609 10.56Z" fill="white"/>
</svg>
