<svg width="385" height="46" viewBox="0 0 385 46" fill="none" xmlns="http://www.w3.org/2000/svg">
<path d="M0.736 36V2.4H16.912C20.048 2.4 22.752 2.912 25.024 3.936C27.328 4.96 29.104 6.432 30.352 8.352C31.6 10.24 32.224 12.48 32.224 15.072C32.224 17.664 31.6 19.904 30.352 21.792C29.104 23.68 27.328 25.152 25.024 26.208C22.752 27.232 20.048 27.744 16.912 27.744H7.024L12.064 22.896V36H0.736ZM12.064 24.144L7.024 19.008H16.192C17.76 19.008 18.912 18.656 19.648 17.952C20.416 17.248 20.8 16.288 20.8 15.072C20.8 13.856 20.416 12.896 19.648 12.192C18.912 11.488 17.76 11.136 16.192 11.136H7.024L12.064 6V24.144ZM48.5151 36.48C45.5391 36.48 42.8991 35.904 40.5951 34.752C38.3231 33.568 36.5311 31.952 35.2191 29.904C33.9071 27.856 33.2511 25.504 33.2511 22.848C33.2511 20.192 33.9071 17.84 35.2191 15.792C36.5311 13.744 38.3231 12.144 40.5951 10.992C42.8991 9.84 45.5391 9.264 48.5151 9.264C51.4911 9.264 54.1311 9.84 56.4351 10.992C58.7391 12.144 60.5311 13.744 61.8111 15.792C63.1231 17.84 63.7791 20.192 63.7791 22.848C63.7791 25.504 63.1231 27.856 61.8111 29.904C60.5311 31.952 58.7391 33.568 56.4351 34.752C54.1311 35.904 51.4911 36.48 48.5151 36.48ZM48.5151 28.032C49.3151 28.032 50.0351 27.84 50.6751 27.456C51.3151 27.072 51.8271 26.496 52.2111 25.728C52.5951 24.928 52.7871 23.968 52.7871 22.848C52.7871 21.696 52.5951 20.752 52.2111 20.016C51.8271 19.248 51.3151 18.672 50.6751 18.288C50.0351 17.904 49.3151 17.712 48.5151 17.712C47.7151 17.712 46.9951 17.904 46.3551 18.288C45.7151 18.672 45.2031 19.248 44.8191 20.016C44.4351 20.752 44.2431 21.696 44.2431 22.848C44.2431 23.968 44.4351 24.928 44.8191 25.728C45.2031 26.496 45.7151 27.072 46.3551 27.456C46.9951 27.84 47.7151 28.032 48.5151 28.032ZM83.7344 36.48C81.4624 36.48 79.5744 36 78.0704 35.04C76.5984 34.048 75.5104 32.56 74.8064 30.576C74.1024 28.56 73.7504 26 73.7504 22.896C73.7504 19.728 74.0704 17.152 74.7104 15.168C75.3824 13.152 76.4544 11.664 77.9264 10.704C79.3984 9.744 81.3344 9.264 83.7344 9.264C86.0384 9.264 88.1504 9.824 90.0704 10.944C91.9904 12.032 93.5264 13.6 94.6784 15.648C95.8304 17.664 96.4064 20.08 96.4064 22.896C96.4064 25.712 95.8304 28.144 94.6784 30.192C93.5264 32.208 91.9904 33.76 90.0704 34.848C88.1504 35.936 86.0384 36.48 83.7344 36.48ZM66.2144 45.312V9.744H76.5344V13.296L76.5824 22.896L77.0624 32.496V45.312H66.2144ZM81.1424 28.032C81.9424 28.032 82.6624 27.84 83.3024 27.456C83.9424 27.072 84.4544 26.496 84.8384 25.728C85.2224 24.96 85.4144 24.016 85.4144 22.896C85.4144 21.744 85.2224 20.784 84.8384 20.016C84.4544 19.248 83.9424 18.672 83.3024 18.288C82.6624 17.904 81.9424 17.712 81.1424 17.712C80.3424 17.712 79.6224 17.904 78.9824 18.288C78.3424 18.672 77.8304 19.248 77.4464 20.016C77.0624 20.784 76.8704 21.744 76.8704 22.896C76.8704 24.016 77.0624 24.96 77.4464 25.728C77.8304 26.496 78.3424 27.072 78.9824 27.456C79.6224 27.84 80.3424 28.032 81.1424 28.032ZM109.808 36.48C107.728 36.48 105.84 36.064 104.144 35.232C102.48 34.368 101.168 33.04 100.208 31.248C99.2478 29.424 98.7678 27.088 98.7678 24.24V9.744H109.616V22.368C109.616 24.224 109.92 25.52 110.528 26.256C111.136 26.992 111.968 27.36 113.024 27.36C113.664 27.36 114.256 27.2 114.8 26.88C115.376 26.528 115.84 25.968 116.192 25.2C116.544 24.4 116.72 23.36 116.72 22.08V9.744H127.568V36H117.248V28.416L119.312 30.48C118.384 32.528 117.056 34.048 115.328 35.04C113.632 36 111.792 36.48 109.808 36.48ZM131.419 36V0.383998H142.267V36H131.419ZM162.004 36V31.344L161.236 30.096V21.264C161.236 19.984 160.836 19.008 160.036 18.336C159.268 17.664 158.004 17.328 156.244 17.328C155.06 17.328 153.86 17.52 152.644 17.904C151.428 18.256 150.388 18.752 149.524 19.392L146.068 12.24C147.604 11.28 149.444 10.544 151.588 10.032C153.732 9.52 155.828 9.264 157.876 9.264C162.388 9.264 165.876 10.272 168.34 12.288C170.836 14.304 172.084 17.504 172.084 21.888V36H162.004ZM154.564 36.48C152.42 36.48 150.628 36.112 149.188 35.376C147.748 34.64 146.66 33.664 145.924 32.448C145.188 31.2 144.82 29.824 144.82 28.32C144.82 26.624 145.252 25.184 146.116 24C146.98 22.816 148.292 21.92 150.052 21.312C151.844 20.704 154.1 20.4 156.82 20.4H162.292V25.632H158.548C157.396 25.632 156.548 25.824 156.004 26.208C155.492 26.56 155.236 27.104 155.236 27.84C155.236 28.448 155.46 28.96 155.908 29.376C156.388 29.76 157.028 29.952 157.828 29.952C158.564 29.952 159.236 29.76 159.844 29.376C160.484 28.96 160.948 28.32 161.236 27.456L162.628 30.672C162.212 32.624 161.332 34.08 159.988 35.04C158.644 36 156.836 36.48 154.564 36.48ZM175.812 36V9.744H186.132V17.664L184.452 15.408C185.252 13.36 186.532 11.824 188.292 10.8C190.052 9.776 192.164 9.264 194.628 9.264V18.864C194.148 18.8 193.716 18.752 193.332 18.72C192.98 18.688 192.612 18.672 192.228 18.672C190.596 18.672 189.252 19.104 188.196 19.968C187.172 20.8 186.66 22.256 186.66 24.336V36H175.812ZM206.861 36L221.549 2.4H232.685L247.373 36H235.661L224.813 7.776H229.229L218.381 36H206.861ZM215.597 30.144L218.477 21.984H233.933L236.813 30.144H215.597ZM258.36 36.48C256.28 36.48 254.392 36.064 252.696 35.232C251.032 34.368 249.72 33.04 248.76 31.248C247.8 29.424 247.32 27.088 247.32 24.24V9.744H258.168V22.368C258.168 24.224 258.472 25.52 259.08 26.256C259.688 26.992 260.52 27.36 261.576 27.36C262.216 27.36 262.808 27.2 263.352 26.88C263.928 26.528 264.392 25.968 264.744 25.2C265.096 24.4 265.272 23.36 265.272 22.08V9.744H276.12V36H265.8V28.416L267.864 30.48C266.936 32.528 265.608 34.048 263.88 35.04C262.184 36 260.344 36.48 258.36 36.48ZM292.644 36.48C289.028 36.48 286.212 35.616 284.196 33.888C282.18 32.128 281.172 29.44 281.172 25.824V3.84H292.02V25.728C292.02 26.528 292.228 27.152 292.644 27.6C293.092 28.048 293.636 28.272 294.276 28.272C295.204 28.272 296.02 28.032 296.724 27.552L299.316 35.088C298.484 35.568 297.476 35.92 296.292 36.144C295.14 36.368 293.924 36.48 292.644 36.48ZM277.572 19.104V11.184H297.396V19.104H277.572ZM319.33 9.264C321.346 9.264 323.17 9.68 324.802 10.512C326.434 11.312 327.714 12.576 328.642 14.304C329.602 16.032 330.082 18.272 330.082 21.024V36H319.234V22.896C319.234 21.264 318.946 20.112 318.37 19.44C317.794 18.736 317.01 18.384 316.018 18.384C315.282 18.384 314.594 18.56 313.954 18.912C313.346 19.232 312.85 19.776 312.466 20.544C312.114 21.312 311.938 22.352 311.938 23.664V36H301.09V0.383998H311.938V17.424L309.346 15.216C310.37 13.232 311.746 11.744 313.474 10.752C315.234 9.76 317.186 9.264 319.33 9.264ZM348.174 36.48C345.198 36.48 342.558 35.904 340.254 34.752C337.982 33.568 336.19 31.952 334.878 29.904C333.566 27.856 332.91 25.504 332.91 22.848C332.91 20.192 333.566 17.84 334.878 15.792C336.19 13.744 337.982 12.144 340.254 10.992C342.558 9.84 345.198 9.264 348.174 9.264C351.15 9.264 353.79 9.84 356.094 10.992C358.398 12.144 360.19 13.744 361.47 15.792C362.782 17.84 363.438 20.192 363.438 22.848C363.438 25.504 362.782 27.856 361.47 29.904C360.19 31.952 358.398 33.568 356.094 34.752C353.79 35.904 351.15 36.48 348.174 36.48ZM348.174 28.032C348.974 28.032 349.694 27.84 350.334 27.456C350.974 27.072 351.486 26.496 351.87 25.728C352.254 24.928 352.446 23.968 352.446 22.848C352.446 21.696 352.254 20.752 351.87 20.016C351.486 19.248 350.974 18.672 350.334 18.288C349.694 17.904 348.974 17.712 348.174 17.712C347.374 17.712 346.654 17.904 346.014 18.288C345.374 18.672 344.862 19.248 344.478 20.016C344.094 20.752 343.902 21.696 343.902 22.848C343.902 23.968 344.094 24.928 344.478 25.728C344.862 26.496 345.374 27.072 346.014 27.456C346.654 27.84 347.374 28.032 348.174 28.032ZM365.873 36V9.744H376.193V17.664L374.513 15.408C375.313 13.36 376.593 11.824 378.353 10.8C380.113 9.776 382.225 9.264 384.689 9.264V18.864C384.209 18.8 383.777 18.752 383.393 18.72C383.041 18.688 382.673 18.672 382.289 18.672C380.657 18.672 379.313 19.104 378.257 19.968C377.233 20.8 376.721 22.256 376.721 24.336V36H365.873Z" fill="black"/>
</svg>
