<svg width="437" height="46" viewBox="0 0 437 46" fill="none" xmlns="http://www.w3.org/2000/svg">
<path d="M16.912 2.4C20.016 2.4 22.72 2.912 25.024 3.936C27.328 4.96 29.104 6.432 30.352 8.352C31.6 10.272 32.224 12.512 32.224 15.072C32.224 17.632 31.6 19.872 30.352 21.792C29.104 23.712 27.328 25.184 25.024 26.208C22.72 27.232 20.016 27.744 16.912 27.744H12.064V36H0.736V2.4H16.912ZM16.192 19.008C17.728 19.008 18.88 18.672 19.648 18C20.416 17.296 20.8 16.32 20.8 15.072C20.8 13.824 20.416 12.864 19.648 12.192C18.88 11.488 17.728 11.136 16.192 11.136H12.064V19.008H16.192ZM48.5151 36.48C45.6031 36.48 42.9791 35.904 40.6431 34.752C38.3391 33.568 36.5311 31.952 35.2191 29.904C33.9071 27.824 33.2511 25.472 33.2511 22.848C33.2511 20.224 33.9071 17.888 35.2191 15.84C36.5311 13.76 38.3391 12.144 40.6431 10.992C42.9791 9.84 45.6031 9.264 48.5151 9.264C51.4591 9.264 54.0831 9.84 56.3871 10.992C58.7231 12.144 60.5311 13.76 61.8111 15.84C63.1231 17.888 63.7791 20.224 63.7791 22.848C63.7791 25.472 63.1231 27.824 61.8111 29.904C60.5311 31.952 58.7231 33.568 56.3871 34.752C54.0831 35.904 51.4591 36.48 48.5151 36.48ZM48.5151 28.032C49.7631 28.032 50.7871 27.584 51.5871 26.688C52.3871 25.76 52.7871 24.48 52.7871 22.848C52.7871 21.216 52.3871 19.952 51.5871 19.056C50.7871 18.16 49.7631 17.712 48.5151 17.712C47.2671 17.712 46.2431 18.16 45.4431 19.056C44.6431 19.952 44.2431 21.216 44.2431 22.848C44.2431 24.48 44.6431 25.76 45.4431 26.688C46.2431 27.584 47.2671 28.032 48.5151 28.032ZM83.7344 9.264C86.0384 9.264 88.1504 9.824 90.0704 10.944C92.0224 12.032 93.5584 13.616 94.6784 15.696C95.8304 17.776 96.4064 20.176 96.4064 22.896C96.4064 25.616 95.8304 28.016 94.6784 30.096C93.5584 32.144 92.0224 33.728 90.0704 34.848C88.1504 35.936 86.0384 36.48 83.7344 36.48C80.8224 36.48 78.5984 35.728 77.0624 34.224V45.312H66.2144V9.744H76.5344V11.904C78.1024 10.144 80.5024 9.264 83.7344 9.264ZM81.1424 28.032C82.3904 28.032 83.4144 27.584 84.2144 26.688C85.0144 25.792 85.4144 24.528 85.4144 22.896C85.4144 21.264 85.0144 20 84.2144 19.104C83.4144 18.176 82.3904 17.712 81.1424 17.712C79.8944 17.712 78.8704 18.176 78.0704 19.104C77.2704 20 76.8704 21.264 76.8704 22.896C76.8704 24.528 77.2704 25.792 78.0704 26.688C78.8704 27.584 79.8944 28.032 81.1424 28.032ZM127.568 9.744V36H117.248V33.504C116.288 34.496 115.168 35.248 113.888 35.76C112.608 36.24 111.248 36.48 109.808 36.48C106.48 36.48 103.808 35.472 101.792 33.456C99.7758 31.408 98.7678 28.336 98.7678 24.24V9.744H109.616V22.368C109.616 24.16 109.904 25.44 110.48 26.208C111.056 26.976 111.904 27.36 113.024 27.36C114.08 27.36 114.96 26.944 115.664 26.112C116.368 25.248 116.72 23.904 116.72 22.08V9.744H127.568ZM131.419 0.383998H142.267V36H131.419V0.383998ZM157.876 9.264C162.484 9.264 166.004 10.304 168.436 12.384C170.868 14.432 172.084 17.6 172.084 21.888V36H162.004V32.544C160.756 35.168 158.276 36.48 154.564 36.48C152.484 36.48 150.708 36.128 149.236 35.424C147.796 34.688 146.692 33.712 145.924 32.496C145.188 31.248 144.82 29.856 144.82 28.32C144.82 25.728 145.812 23.76 147.796 22.416C149.78 21.072 152.788 20.4 156.82 20.4H161.188C160.836 18.352 159.188 17.328 156.244 17.328C155.06 17.328 153.86 17.52 152.644 17.904C151.428 18.256 150.388 18.752 149.524 19.392L146.068 12.24C147.572 11.312 149.38 10.592 151.492 10.08C153.636 9.536 155.764 9.264 157.876 9.264ZM157.828 29.952C158.596 29.952 159.284 29.744 159.892 29.328C160.5 28.912 160.948 28.288 161.236 27.456V25.632H158.548C156.34 25.632 155.236 26.368 155.236 27.84C155.236 28.448 155.46 28.96 155.908 29.376C156.388 29.76 157.028 29.952 157.828 29.952ZM186.132 12.576C188.052 10.368 190.884 9.264 194.628 9.264V18.864C193.764 18.736 192.964 18.672 192.228 18.672C188.516 18.672 186.66 20.56 186.66 24.336V36H175.812V9.744H186.132V12.576ZM226.685 2.4C229.789 2.4 232.493 2.912 234.797 3.936C237.101 4.96 238.877 6.432 240.125 8.352C241.373 10.272 241.997 12.512 241.997 15.072C241.997 17.632 241.373 19.872 240.125 21.792C238.877 23.712 237.101 25.184 234.797 26.208C232.493 27.232 229.789 27.744 226.685 27.744H221.837V36H210.509V2.4H226.685ZM225.965 19.008C227.501 19.008 228.653 18.672 229.421 18C230.189 17.296 230.573 16.32 230.573 15.072C230.573 13.824 230.189 12.864 229.421 12.192C228.653 11.488 227.501 11.136 225.965 11.136H221.837V19.008H225.965ZM255.205 12.576C257.125 10.368 259.957 9.264 263.701 9.264V18.864C262.837 18.736 262.037 18.672 261.301 18.672C257.589 18.672 255.733 20.56 255.733 24.336V36H244.885V9.744H255.205V12.576ZM279.453 36.48C276.541 36.48 273.917 35.904 271.581 34.752C269.277 33.568 267.469 31.952 266.157 29.904C264.845 27.824 264.189 25.472 264.189 22.848C264.189 20.224 264.845 17.888 266.157 15.84C267.469 13.76 269.277 12.144 271.581 10.992C273.917 9.84 276.541 9.264 279.453 9.264C282.397 9.264 285.021 9.84 287.325 10.992C289.661 12.144 291.469 13.76 292.749 15.84C294.061 17.888 294.717 20.224 294.717 22.848C294.717 25.472 294.061 27.824 292.749 29.904C291.469 31.952 289.661 33.568 287.325 34.752C285.021 35.904 282.397 36.48 279.453 36.48ZM279.453 28.032C280.701 28.032 281.725 27.584 282.525 26.688C283.325 25.76 283.725 24.48 283.725 22.848C283.725 21.216 283.325 19.952 282.525 19.056C281.725 18.16 280.701 17.712 279.453 17.712C278.205 17.712 277.181 18.16 276.381 19.056C275.581 19.952 275.181 21.216 275.181 22.848C275.181 24.48 275.581 25.76 276.381 26.688C277.181 27.584 278.205 28.032 279.453 28.032ZM326.193 0.383998V36H315.873V33.84C314.305 35.6 311.905 36.48 308.673 36.48C306.369 36.48 304.241 35.936 302.289 34.848C300.369 33.728 298.833 32.128 297.681 30.048C296.561 27.968 296.001 25.568 296.001 22.848C296.001 20.128 296.561 17.744 297.681 15.696C298.833 13.616 300.369 12.032 302.289 10.944C304.241 9.824 306.369 9.264 308.673 9.264C311.585 9.264 313.809 10.016 315.345 11.52V0.383998H326.193ZM311.265 28.032C312.513 28.032 313.537 27.584 314.337 26.688C315.137 25.76 315.537 24.48 315.537 22.848C315.537 21.216 315.137 19.952 314.337 19.056C313.537 18.16 312.513 17.712 311.265 17.712C310.017 17.712 308.993 18.16 308.193 19.056C307.393 19.952 306.993 21.216 306.993 22.848C306.993 24.48 307.393 25.76 308.193 26.688C308.993 27.584 310.017 28.032 311.265 28.032ZM358.74 9.744V36H348.42V33.504C347.46 34.496 346.34 35.248 345.06 35.76C343.78 36.24 342.42 36.48 340.98 36.48C337.652 36.48 334.98 35.472 332.964 33.456C330.948 31.408 329.94 28.336 329.94 24.24V9.744H340.788V22.368C340.788 24.16 341.076 25.44 341.652 26.208C342.228 26.976 343.076 27.36 344.196 27.36C345.252 27.36 346.132 26.944 346.836 26.112C347.54 25.248 347.892 23.904 347.892 22.08V9.744H358.74ZM376.704 36.48C373.728 36.48 371.056 35.904 368.688 34.752C366.352 33.6 364.512 31.984 363.168 29.904C361.856 27.824 361.2 25.472 361.2 22.848C361.2 20.224 361.856 17.888 363.168 15.84C364.512 13.76 366.352 12.144 368.688 10.992C371.056 9.84 373.728 9.264 376.704 9.264C379.904 9.264 382.64 9.952 384.912 11.328C387.184 12.704 388.752 14.608 389.616 17.04L381.216 21.168C380.192 18.864 378.672 17.712 376.656 17.712C375.376 17.712 374.304 18.16 373.44 19.056C372.608 19.952 372.192 21.216 372.192 22.848C372.192 24.512 372.608 25.792 373.44 26.688C374.304 27.584 375.376 28.032 376.656 28.032C378.672 28.032 380.192 26.88 381.216 24.576L389.616 28.704C388.752 31.136 387.184 33.04 384.912 34.416C382.64 35.792 379.904 36.48 376.704 36.48ZM410.976 35.088C409.344 36.016 407.12 36.48 404.304 36.48C400.624 36.48 397.792 35.6 395.808 33.84C393.824 32.048 392.832 29.376 392.832 25.824V19.104H389.232V11.184H392.832V3.84H403.68V11.184H409.056V19.104H403.68V25.728C403.68 26.528 403.888 27.152 404.304 27.6C404.72 28.048 405.264 28.272 405.936 28.272C406.864 28.272 407.68 28.032 408.384 27.552L410.976 35.088ZM423.022 36.48C420.782 36.48 418.574 36.24 416.398 35.76C414.222 35.28 412.462 34.656 411.118 33.888L414.094 26.736C415.31 27.472 416.75 28.048 418.414 28.464C420.078 28.88 421.694 29.088 423.262 29.088C424.51 29.088 425.374 28.992 425.854 28.8C426.366 28.576 426.622 28.256 426.622 27.84C426.622 27.424 426.302 27.136 425.662 26.976C425.054 26.816 424.046 26.656 422.638 26.496C420.494 26.24 418.67 25.92 417.166 25.536C415.662 25.12 414.334 24.336 413.182 23.184C412.062 22.032 411.502 20.384 411.502 18.24C411.502 16.544 412.014 15.024 413.038 13.68C414.062 12.336 415.582 11.264 417.598 10.464C419.646 9.664 422.094 9.264 424.942 9.264C426.926 9.264 428.862 9.456 430.75 9.84C432.67 10.192 434.302 10.72 435.646 11.424L432.67 18.576C430.366 17.296 427.838 16.656 425.086 16.656C422.718 16.656 421.534 17.072 421.534 17.904C421.534 18.32 421.854 18.624 422.494 18.816C423.134 18.976 424.142 19.136 425.518 19.296C427.662 19.552 429.47 19.888 430.942 20.304C432.446 20.72 433.758 21.504 434.878 22.656C436.03 23.808 436.606 25.456 436.606 27.6C436.606 29.232 436.094 30.72 435.07 32.064C434.046 33.408 432.51 34.48 430.462 35.28C428.414 36.08 425.934 36.48 423.022 36.48Z" fill="black"/>
</svg>
