<svg width="402" height="62" viewBox="0 0 402 62" fill="none" xmlns="http://www.w3.org/2000/svg">
<path d="M2.736 50V16.4H18.912C22.048 16.4 24.752 16.912 27.024 17.936C29.328 18.96 31.104 20.432 32.352 22.352C33.6 24.24 34.224 26.48 34.224 29.072C34.224 31.664 33.6 33.904 32.352 35.792C31.104 37.68 29.328 39.152 27.024 40.208C24.752 41.232 22.048 41.744 18.912 41.744H9.024L14.064 36.896V50H2.736ZM14.064 38.144L9.024 33.008H18.192C19.76 33.008 20.912 32.656 21.648 31.952C22.416 31.248 22.8 30.288 22.8 29.072C22.8 27.856 22.416 26.896 21.648 26.192C20.912 25.488 19.76 25.136 18.192 25.136H9.024L14.064 20V38.144ZM50.5151 50.48C47.5391 50.48 44.8991 49.904 42.5951 48.752C40.3231 47.568 38.5311 45.952 37.2191 43.904C35.9071 41.856 35.2511 39.504 35.2511 36.848C35.2511 34.192 35.9071 31.84 37.2191 29.792C38.5311 27.744 40.3231 26.144 42.5951 24.992C44.8991 23.84 47.5391 23.264 50.5151 23.264C53.4911 23.264 56.1311 23.84 58.4351 24.992C60.7391 26.144 62.5311 27.744 63.8111 29.792C65.1231 31.84 65.7791 34.192 65.7791 36.848C65.7791 39.504 65.1231 41.856 63.8111 43.904C62.5311 45.952 60.7391 47.568 58.4351 48.752C56.1311 49.904 53.4911 50.48 50.5151 50.48ZM50.5151 42.032C51.3151 42.032 52.0351 41.84 52.6751 41.456C53.3151 41.072 53.8271 40.496 54.2111 39.728C54.5951 38.928 54.7871 37.968 54.7871 36.848C54.7871 35.696 54.5951 34.752 54.2111 34.016C53.8271 33.248 53.3151 32.672 52.6751 32.288C52.0351 31.904 51.3151 31.712 50.5151 31.712C49.7151 31.712 48.9951 31.904 48.3551 32.288C47.7151 32.672 47.2031 33.248 46.8191 34.016C46.4351 34.752 46.2431 35.696 46.2431 36.848C46.2431 37.968 46.4351 38.928 46.8191 39.728C47.2031 40.496 47.7151 41.072 48.3551 41.456C48.9951 41.84 49.7151 42.032 50.5151 42.032ZM78.4864 50.48C76.2464 50.48 74.0384 50.24 71.8624 49.76C69.6864 49.28 67.9264 48.656 66.5824 47.888L69.5584 40.736C70.8064 41.472 72.2464 42.048 73.8784 42.464C75.5424 42.88 77.1584 43.088 78.7264 43.088C80.0384 43.088 80.9184 42.976 81.3664 42.752C81.8464 42.528 82.0864 42.224 82.0864 41.84C82.0864 41.456 81.8144 41.184 81.2704 41.024C80.7264 40.832 80.0064 40.688 79.1104 40.592C78.2144 40.496 77.2224 40.384 76.1344 40.256C75.0784 40.096 74.0064 39.872 72.9184 39.584C71.8304 39.296 70.8384 38.864 69.9424 38.288C69.0464 37.712 68.3264 36.944 67.7824 35.984C67.2384 34.992 66.9664 33.744 66.9664 32.24C66.9664 30.576 67.4624 29.072 68.4544 27.728C69.4784 26.384 70.9824 25.312 72.9664 24.512C74.9824 23.68 77.4624 23.264 80.4064 23.264C82.3264 23.264 84.2464 23.44 86.1664 23.792C88.0864 24.144 89.7344 24.688 91.1104 25.424L88.1344 32.576C86.7904 31.84 85.4624 31.344 84.1504 31.088C82.8704 30.8 81.6704 30.656 80.5504 30.656C79.1744 30.656 78.2304 30.784 77.7184 31.04C77.2384 31.296 76.9984 31.584 76.9984 31.904C76.9984 32.288 77.2704 32.576 77.8144 32.768C78.3584 32.96 79.0784 33.104 79.9744 33.2C80.8704 33.296 81.8464 33.424 82.9024 33.584C83.9904 33.712 85.0624 33.936 86.1184 34.256C87.2064 34.544 88.1984 34.976 89.0944 35.552C89.9904 36.128 90.7104 36.912 91.2544 37.904C91.7984 38.864 92.0704 40.096 92.0704 41.6C92.0704 43.168 91.5744 44.64 90.5824 46.016C89.5904 47.36 88.0864 48.448 86.0704 49.28C84.0544 50.08 81.5264 50.48 78.4864 50.48ZM107.067 50.48C103.451 50.48 100.635 49.616 98.619 47.888C96.603 46.128 95.595 43.44 95.595 39.824V17.84H106.443V39.728C106.443 40.528 106.651 41.152 107.067 41.6C107.515 42.048 108.059 42.272 108.699 42.272C109.627 42.272 110.443 42.032 111.147 41.552L113.739 49.088C112.907 49.568 111.899 49.92 110.715 50.144C109.563 50.368 108.347 50.48 107.067 50.48ZM91.995 33.104V25.184H111.819V33.104H91.995ZM145.36 50.768C140.208 50.768 136.192 49.376 133.312 46.592C130.432 43.808 128.992 39.904 128.992 34.88V16.4H140.32V34.544C140.32 37.104 140.784 38.928 141.712 40.016C142.64 41.072 143.888 41.6 145.456 41.6C147.056 41.6 148.304 41.072 149.2 40.016C150.128 38.928 150.592 37.104 150.592 34.544V16.4H161.728V34.88C161.728 39.904 160.288 43.808 157.408 46.592C154.528 49.376 150.512 50.768 145.36 50.768ZM183.144 50.48C180.872 50.48 178.984 50 177.48 49.04C176.008 48.048 174.92 46.56 174.216 44.576C173.512 42.56 173.16 40 173.16 36.896C173.16 33.728 173.48 31.152 174.12 29.168C174.792 27.152 175.864 25.664 177.336 24.704C178.808 23.744 180.744 23.264 183.144 23.264C185.448 23.264 187.56 23.824 189.48 24.944C191.4 26.032 192.936 27.6 194.088 29.648C195.24 31.664 195.816 34.08 195.816 36.896C195.816 39.712 195.24 42.144 194.088 44.192C192.936 46.208 191.4 47.76 189.48 48.848C187.56 49.936 185.448 50.48 183.144 50.48ZM165.624 59.312V23.744H175.944V27.296L175.992 36.896L176.472 46.496V59.312H165.624ZM180.552 42.032C181.352 42.032 182.072 41.84 182.712 41.456C183.352 41.072 183.864 40.496 184.248 39.728C184.632 38.96 184.824 38.016 184.824 36.896C184.824 35.744 184.632 34.784 184.248 34.016C183.864 33.248 183.352 32.672 182.712 32.288C182.072 31.904 181.352 31.712 180.552 31.712C179.752 31.712 179.032 31.904 178.392 32.288C177.752 32.672 177.24 33.248 176.856 34.016C176.472 34.784 176.28 35.744 176.28 36.896C176.28 38.016 176.472 38.96 176.856 39.728C177.24 40.496 177.752 41.072 178.392 41.456C179.032 41.84 179.752 42.032 180.552 42.032ZM198.274 50V14.384H209.122V50H198.274ZM226.842 50.48C223.866 50.48 221.226 49.904 218.922 48.752C216.65 47.568 214.858 45.952 213.546 43.904C212.234 41.856 211.578 39.504 211.578 36.848C211.578 34.192 212.234 31.84 213.546 29.792C214.858 27.744 216.65 26.144 218.922 24.992C221.226 23.84 223.866 23.264 226.842 23.264C229.818 23.264 232.458 23.84 234.762 24.992C237.066 26.144 238.858 27.744 240.138 29.792C241.45 31.84 242.106 34.192 242.106 36.848C242.106 39.504 241.45 41.856 240.138 43.904C238.858 45.952 237.066 47.568 234.762 48.752C232.458 49.904 229.818 50.48 226.842 50.48ZM226.842 42.032C227.642 42.032 228.362 41.84 229.002 41.456C229.642 41.072 230.154 40.496 230.538 39.728C230.922 38.928 231.114 37.968 231.114 36.848C231.114 35.696 230.922 34.752 230.538 34.016C230.154 33.248 229.642 32.672 229.002 32.288C228.362 31.904 227.642 31.712 226.842 31.712C226.042 31.712 225.322 31.904 224.682 32.288C224.042 32.672 223.53 33.248 223.146 34.016C222.762 34.752 222.57 35.696 222.57 36.848C222.57 37.968 222.762 38.928 223.146 39.728C223.53 40.496 224.042 41.072 224.682 41.456C225.322 41.84 226.042 42.032 226.842 42.032ZM259.773 50V45.344L259.005 44.096V35.264C259.005 33.984 258.605 33.008 257.805 32.336C257.037 31.664 255.773 31.328 254.013 31.328C252.829 31.328 251.629 31.52 250.413 31.904C249.197 32.256 248.157 32.752 247.293 33.392L243.837 26.24C245.373 25.28 247.213 24.544 249.357 24.032C251.501 23.52 253.597 23.264 255.645 23.264C260.157 23.264 263.645 24.272 266.109 26.288C268.605 28.304 269.853 31.504 269.853 35.888V50H259.773ZM252.333 50.48C250.189 50.48 248.397 50.112 246.957 49.376C245.517 48.64 244.429 47.664 243.693 46.448C242.957 45.2 242.589 43.824 242.589 42.32C242.589 40.624 243.021 39.184 243.885 38C244.749 36.816 246.061 35.92 247.821 35.312C249.613 34.704 251.869 34.4 254.589 34.4H260.061V39.632H256.317C255.165 39.632 254.317 39.824 253.773 40.208C253.261 40.56 253.005 41.104 253.005 41.84C253.005 42.448 253.229 42.96 253.677 43.376C254.157 43.76 254.797 43.952 255.597 43.952C256.333 43.952 257.005 43.76 257.613 43.376C258.253 42.96 258.717 42.32 259.005 41.456L260.397 44.672C259.981 46.624 259.101 48.08 257.757 49.04C256.413 50 254.605 50.48 252.333 50.48ZM285.57 50.48C283.298 50.48 281.186 49.936 279.234 48.848C277.314 47.728 275.778 46.16 274.626 44.144C273.474 42.096 272.898 39.664 272.898 36.848C272.898 34.032 273.474 31.616 274.626 29.6C275.778 27.552 277.314 25.984 279.234 24.896C281.186 23.808 283.298 23.264 285.57 23.264C287.874 23.264 289.762 23.76 291.234 24.752C292.706 25.712 293.794 27.2 294.498 29.216C295.202 31.2 295.554 33.744 295.554 36.848C295.554 39.984 295.218 42.56 294.546 44.576C293.906 46.592 292.85 48.08 291.378 49.04C289.938 50 288.002 50.48 285.57 50.48ZM288.162 42.032C288.962 42.032 289.682 41.84 290.322 41.456C290.962 41.072 291.474 40.496 291.858 39.728C292.242 38.928 292.434 37.968 292.434 36.848C292.434 35.696 292.242 34.752 291.858 34.016C291.474 33.248 290.962 32.672 290.322 32.288C289.682 31.904 288.962 31.712 288.162 31.712C287.362 31.712 286.642 31.904 286.002 32.288C285.362 32.672 284.85 33.248 284.466 34.016C284.082 34.752 283.89 35.696 283.89 36.848C283.89 37.968 284.082 38.928 284.466 39.728C284.85 40.496 285.362 41.072 286.002 41.456C286.642 41.84 287.362 42.032 288.162 42.032ZM292.77 50V46.448L292.722 36.848L292.242 27.248V14.384H303.09V50H292.77Z" fill="black"/>
<rect width="47.977" height="29.9995" rx="1" transform="matrix(0.984363 0.176151 -0.175982 0.984393 332.118 16.0087)" fill="black"/>
<path d="M335.577 22.2151L352.071 37.8651L373.949 29.0817" stroke="white" stroke-linecap="round"/>
<path fill-rule="evenodd" clip-rule="evenodd" d="M366.261 15.7071C364.833 19.6857 367.095 23.9763 371.315 25.2916C369.887 29.2706 372.151 33.5613 376.371 34.8756C380.592 36.1901 385.171 34.0299 386.6 30.0506C390.821 31.3647 395.4 29.2044 396.828 25.2253C398.257 21.2464 395.994 16.9554 391.774 15.6404C393.201 11.6615 390.938 7.37104 386.717 6.05675C382.497 4.74234 377.917 6.90241 376.489 10.8814C372.268 9.56792 367.689 11.7282 366.261 15.7071Z" fill="#49ED3F"/>
<ellipse cx="5.11951" cy="5.31609" rx="5.11951" ry="5.31609" transform="matrix(-0.0719535 0.99749 -0.998601 -0.0512061 387.151 15.8698)" fill="black"/>
</svg>
