<svg width="780" height="100" viewBox="0 0 780 100" fill="none" xmlns="http://www.w3.org/2000/svg">
<rect width="780" height="100" fill="white"/>
<rect width="100" height="100" fill="#49ED3F"/>
<path d="M50 5L50 95" stroke="white" stroke-width="1.5"/>
<path d="M88.9707 72.5L11.0284 27.5" stroke="white" stroke-width="1.5"/>
<path d="M72.5 88.9712L27.5 11.0289" stroke="white" stroke-width="1.5"/>
<path d="M27.5 88.9712L72.5 11.0288" stroke="white" stroke-width="1.5"/>
<path d="M11.0293 72.5L88.9716 27.5" stroke="white" stroke-width="1.5"/>
<path d="M5 50L95 50" stroke="white" stroke-width="1.5"/>
<circle cx="150" cy="50" r="50" fill="#49ED3F"/>
<rect x="200" width="580" height="100" fill="#49ED3F"/>
<path d="M276.12 43.12C274.84 38.64 271 32.88 266.52 28.56C262.84 24.96 258.68 22.32 255.16 22.32C249.96 22.32 246.68 25.04 244.52 29.12C241.56 34.72 240.92 42.72 240.92 49.68C240.92 61.52 242.68 76.56 255.08 76.56C260.76 76.56 265.8 72.08 265.8 66.48V58.4C265.8 55.04 262.92 53.2 258.2 53.2V52.56H281.88V53.2C279.4 53.2 277.4 55.44 277.4 59.44V76H275.8L272.84 71.76C267.88 74.48 262.12 77.2 254.76 77.2C239.48 77.2 227.08 64.64 227.08 49.36C227.08 34 239.72 21.76 255.08 21.76C265.24 21.76 271.32 26.56 273.56 26.56C275.24 26.56 276.12 24.72 276.12 23.12H276.68V43.12H276.12ZM303.456 43.52C297.056 43.52 296.496 50.96 296.496 59.92C296.496 68.88 297.056 76.32 303.456 76.32C309.856 76.32 310.416 68.88 310.416 59.92C310.416 50.96 309.856 43.52 303.456 43.52ZM303.456 42.8C313.296 42.8 321.936 50.08 321.936 59.92C321.936 69.76 313.296 77.04 303.456 77.04C293.616 77.04 284.976 69.76 284.976 59.92C284.976 50.08 293.616 42.8 303.456 42.8ZM346.219 72.64C348.619 72.64 350.219 69.84 350.299 68.16V51.12C350.299 47.84 347.819 43.36 343.899 43.36C337.419 43.36 336.939 51.92 336.939 58.4C336.939 65.04 339.579 72.64 346.219 72.64ZM350.779 70.48C348.139 74.4 344.939 77.04 339.979 77.04C331.979 77.04 326.539 69.52 326.539 61.52C326.539 51.6 333.099 42.88 343.899 42.88H350.299V32.48C350.299 30.56 346.379 27.68 344.539 26.8V26.4C349.579 25.28 354.699 24 359.739 21.92H360.219V68.88C360.379 71.44 362.539 73.12 364.619 73.2V73.68C359.819 74.24 355.259 75.2 351.259 77.36L350.779 77.04V70.48ZM387.391 72.64C389.791 72.64 391.391 69.84 391.471 68.16V51.12C391.471 47.84 388.991 43.36 385.071 43.36C378.591 43.36 378.111 51.92 378.111 58.4C378.111 65.04 380.751 72.64 387.391 72.64ZM391.951 70.48C389.311 74.4 386.111 77.04 381.151 77.04C373.151 77.04 367.711 69.52 367.711 61.52C367.711 51.6 374.271 42.88 385.071 42.88H391.471V32.48C391.471 30.56 387.551 27.68 385.711 26.8V26.4C390.751 25.28 395.871 24 400.911 21.92H401.391V68.88C401.551 71.44 403.711 73.12 405.791 73.2V73.68C400.991 74.24 396.431 75.2 392.431 77.36L391.951 77.04V70.48ZM411.923 28.72C411.923 25.36 414.643 22.64 418.003 22.64C421.363 22.64 424.083 25.36 424.083 28.72C424.083 32.08 421.363 34.8 418.003 34.8C414.643 34.8 411.923 32.08 411.923 28.72ZM427.283 76H407.923V75.36C411.283 75.36 412.643 73.84 412.643 70.08V53.28C412.643 50.8 408.483 48.24 407.283 47.52V46.96C413.923 46.16 422.083 42.88 422.083 42.88H422.563V70.08C422.563 73.84 423.923 75.36 427.283 75.36V76Z" fill="white"/>
<path d="M441.09 57.2V53.1H453.49V57.2H441.09ZM480.532 66.1V67.3C480.532 69.65 481.382 70.6 483.482 70.6V71H471.432V70.6C473.532 70.6 474.382 69.65 474.382 67.3V52.1C474.382 50.6 471.782 48.8 471.032 48.35V48C475.182 47.5 480.282 45.3 480.282 45.3H480.582V48.75C481.882 47.5 484.032 45.3 486.932 45.3C491.832 45.3 495.032 49.85 495.032 54.65C495.032 61 490.732 66.65 483.582 66.65C482.482 66.65 481.432 66.4 480.532 66.1ZM480.582 49.35V60.3C480.582 63.65 481.232 66.25 483.882 66.25C485.882 66.25 486.982 65.25 487.582 63.7C488.382 61.75 488.382 58.85 488.382 55.75C488.382 52.05 486.432 47.95 483.032 47.95C481.932 47.95 481.182 48.7 480.582 49.35ZM506.911 50C507.611 48.6 509.361 45 512.211 45C514.061 45 515.511 46.6 515.511 48.45C515.511 50.25 514.711 52.2 512.861 52.2C510.361 52.2 510.061 49.75 508.711 49.75C507.761 49.75 506.911 51.3 506.911 52.65V62.3C506.911 64.65 507.461 65.6 509.561 65.6V66H498.061V65.6C500.161 65.6 500.711 64.65 500.711 62.3V51.4C500.711 49.85 498.411 48.5 497.661 48.05V47.7C501.811 47.2 506.611 44.9 506.611 44.9H506.911V50ZM528.992 45.7C524.992 45.7 524.642 50.35 524.642 55.95C524.642 61.55 524.992 66.2 528.992 66.2C532.992 66.2 533.342 61.55 533.342 55.95C533.342 50.35 532.992 45.7 528.992 45.7ZM528.992 45.25C535.142 45.25 540.542 49.8 540.542 55.95C540.542 62.1 535.142 66.65 528.992 66.65C522.842 66.65 517.442 62.1 517.442 55.95C517.442 49.8 522.842 45.25 528.992 45.25ZM555.719 63.9C557.219 63.9 558.219 62.15 558.269 61.1V50.45C558.269 48.4 556.719 45.6 554.269 45.6C550.219 45.6 549.919 50.95 549.919 55C549.919 59.15 551.569 63.9 555.719 63.9ZM558.569 62.55C556.919 65 554.919 66.65 551.819 66.65C546.819 66.65 543.419 61.95 543.419 56.95C543.419 50.75 547.519 45.3 554.269 45.3H558.269V38.8C558.269 37.6 555.819 35.8 554.669 35.25V35C557.819 34.3 561.019 33.5 564.169 32.2H564.469V61.55C564.569 63.15 565.919 64.2 567.219 64.25V64.55C564.219 64.9 561.369 65.5 558.869 66.85L558.569 66.65V62.55ZM591.951 45.2V62.1C591.951 63.65 594.201 64.4 595.001 64.55V64.9C591.651 64.95 588.401 66.1 585.801 67.15H585.501V63.05C584.201 64.5 580.551 66.65 577.951 66.65C575.351 66.65 571.701 64.65 571.701 61.85V51.6C571.701 50.05 569.101 48.45 568.351 48V47.65C572.501 47.15 577.951 45.15 577.951 45.15H578.251V60.6C578.251 63.25 579.901 64.65 581.801 64.65C583.451 64.65 584.651 63.4 585.501 62.25V51.65C585.501 50.1 582.501 48.45 581.551 48.05V47.7C585.701 47.2 591.651 45.2 591.651 45.2H591.951ZM608.431 45.3C612.181 45.3 616.731 47.95 616.731 52.1C616.731 54.2 615.531 55.5 613.581 55.5C611.631 55.5 610.481 53.7 610.481 51.85C610.481 50.4 610.681 49.6 610.681 48.2C610.681 46.95 609.381 45.8 607.981 45.8C604.481 45.8 603.281 49.95 603.281 53.5C603.281 59 606.431 62.3 611.031 62.3C612.981 62.3 614.431 61.3 615.331 60.4C615.981 59.75 616.131 59.3 616.331 59.3C616.481 59.3 616.581 59.45 616.581 59.6C616.581 61.9 612.981 66.65 607.731 66.65C602.231 66.65 597.281 62.25 597.281 56.6C597.281 50.4 602.081 45.3 608.431 45.3ZM627.246 60.6C627.246 62.45 628.446 64.8 630.496 64.8C631.846 64.8 632.696 64.05 633.246 63.3H633.496C632.596 65.15 630.246 66.65 627.596 66.65C624.046 66.65 620.996 64.7 620.996 60.35V47.95H619.096V47.65L626.946 39.75H627.246V46.05H632.896L632.196 47.95H627.246V60.6Z" fill="white"/>
<path d="M657.492 28.5359V31.453H663.282V32.4807H650.564V31.453H656.276V28.5359C653.657 28.3536 651.812 26.989 651.812 24.9227C651.812 22.7348 653.945 21.2983 656.884 21.2873C659.845 21.2983 661.967 22.7348 661.967 24.9227C661.967 26.989 660.133 28.3591 657.492 28.5359ZM652.994 24.9227C652.994 26.5249 654.641 27.5635 656.884 27.5746C659.138 27.5635 660.785 26.5249 660.785 24.9227C660.785 23.3536 659.138 22.2928 656.884 22.3039C654.641 22.2928 652.994 23.3536 652.994 24.9227ZM674.635 28.779V20.3812H675.861V28.779H674.635ZM668.801 25C668.187 26.5801 666.889 27.8287 665.231 28.4254L664.591 27.4751C666.679 26.7348 668.149 24.9227 668.16 22.9558V22.3591H664.911V21.3536H672.591V22.3591H669.397V22.9558C669.397 24.8232 670.878 26.5249 672.955 27.1989L672.325 28.1492C670.712 27.6077 669.425 26.4641 668.801 25ZM674.635 30.5249H666.513V29.5193H675.861V34.2707H674.635V30.5249Z" fill="white"/>
<path d="M656.238 49.7403V47.9613H660.956V49.3757C660.956 52.3481 658.917 54.1547 656.066 54.1547C652.89 54.1547 650.74 51.9337 650.74 48.3536C650.74 44.6851 653.033 42.5304 656.017 42.5304C658.569 42.5304 660.536 44.0994 660.851 46.3315H658.459C658.149 45.2652 657.298 44.6133 656.055 44.6133C654.309 44.6133 653.122 45.9558 653.122 48.3315C653.122 50.7238 654.276 52.0718 656.083 52.0718C657.685 52.0718 658.652 51.1657 658.685 49.7403H656.238ZM666.443 54.1657C663.873 54.1657 662.271 52.4033 662.271 49.7901C662.271 47.1602 663.873 45.4033 666.443 45.4033C669.006 45.4033 670.603 47.1602 670.603 49.7901C670.603 52.4033 669.006 54.1657 666.443 54.1657ZM666.454 52.3702C667.636 52.3702 668.255 51.2652 668.255 49.7735C668.255 48.2873 667.636 47.1713 666.454 47.1713C665.244 47.1713 664.625 48.2873 664.625 49.7735C664.625 51.2652 665.244 52.3702 666.454 52.3702ZM675.88 54.1657C673.311 54.1657 671.709 52.4033 671.709 49.7901C671.709 47.1602 673.311 45.4033 675.88 45.4033C678.444 45.4033 680.04 47.1602 680.04 49.7901C680.04 52.4033 678.444 54.1657 675.88 54.1657ZM675.891 52.3702C677.073 52.3702 677.692 51.2652 677.692 49.7735C677.692 48.2873 677.073 47.1713 675.891 47.1713C674.681 47.1713 674.062 48.2873 674.062 49.7735C674.062 51.2652 674.681 52.3702 675.891 52.3702ZM684.627 54.1381C682.682 54.1381 681.174 52.6022 681.174 49.768C681.174 46.8619 682.748 45.4033 684.621 45.4033C686.052 45.4033 686.726 46.2541 687.041 46.9392H687.108V42.6851H689.417V54H687.141V52.6464H687.041C686.71 53.3425 686.008 54.1381 684.627 54.1381ZM685.351 52.2928C686.494 52.2928 687.157 51.2818 687.157 49.7569C687.157 48.2265 686.505 47.2541 685.351 47.2541C684.163 47.2541 683.539 48.2707 683.539 49.7569C683.539 51.2541 684.174 52.2928 685.351 52.2928ZM692.436 44.4033C691.745 44.4033 691.176 43.8785 691.176 43.2265C691.176 42.5801 691.745 42.0497 692.436 42.0497C693.126 42.0497 693.695 42.5801 693.695 43.2265C693.695 43.8785 693.126 44.4033 692.436 44.4033ZM693.59 54H691.276V45.5138H693.59V54ZM709.012 55.442V41.2099H710.918V55.442H709.012ZM704.912 46.4751H706.072V41.4309H707.956V54.7845H706.072V48.0663H704.929C704.758 50.8564 703.564 52.547 701.807 52.5414C699.934 52.547 698.713 50.5746 698.719 47.3702C698.713 44.1934 699.934 42.232 701.807 42.232C703.52 42.232 704.697 43.8287 704.912 46.4751ZM701.807 50.6298C702.63 50.6354 703.117 49.5635 703.117 47.3702C703.117 45.1989 702.63 44.1105 701.807 44.116C701.012 44.1105 700.542 45.1989 700.553 47.3702C700.542 49.5635 701.012 50.6354 701.807 50.6298ZM722.448 45.6906V41.2099H724.42V55.4751H722.448V47.2983H719.663V45.6906H722.448ZM717.807 42.3094V44.4365C717.801 47.1105 718.878 49.7127 721.243 50.7348L720.039 52.3204C718.453 51.558 717.392 50.1436 716.801 48.3867C716.188 50.2486 715.094 51.779 713.47 52.5801L712.221 50.9613C714.652 49.8564 715.768 47.1105 715.779 44.4365V42.3094H717.807ZM737.535 41.221V45.3149H739.447V46.9613H737.535V51.5967H735.535V41.221H737.535ZM726.673 42.3978H733.502V49.2265H726.673V42.3978ZM728.646 47.6575H731.535V43.9834H728.646V47.6575ZM728.309 50.5691H730.298V53.5856H738.044V55.1934H728.309V50.5691Z" fill="white"/>
<path d="M661.707 61.221V65.3149H663.619V66.9613H661.707V71.5967H659.707V61.221H661.707ZM650.845 62.3978H657.674V69.2265H650.845V62.3978ZM652.818 67.6575H655.707V63.9834H652.818V67.6575ZM652.481 70.5691H654.47V73.5856H662.215V75.1934H652.481V70.5691ZM675.535 61.2099V63.8785H677.447V65.5193H675.535V68.2486H673.535V61.2099H675.535ZM672.347 65.6409L672.574 67.2652C670.237 67.7348 668.055 67.8508 666.038 67.8508H664.823V61.8398H666.823V66.1989C668.53 66.1657 670.381 66.0166 672.347 65.6409ZM675.535 72.7459H668.115V73.6851H675.944V75.2818H666.121V71.2486H673.519V70.3867H666.099V68.8343H675.535V72.7459ZM684.573 64.8232C683.645 66.3646 681.833 67.5193 679.369 67.8729L678.584 66.2652C681.816 65.8619 683.524 64.0055 683.529 62.326V61.6354H685.623V62.326C685.623 64.0055 687.336 65.8619 690.59 66.2652L689.811 67.8729C687.325 67.5193 685.502 66.3646 684.573 64.8232ZM678.082 68.9503H691.054V70.5746H685.513V75.442H683.54V70.5746H678.082V68.9503ZM705.498 61.232H707.498V69.2652H705.498V61.232ZM699.702 68.768C697.481 68.7735 695.807 67.3536 695.813 65.3702C695.807 63.3591 697.481 61.9503 699.702 61.9503C701.918 61.9503 703.586 63.3591 703.586 65.3702C703.586 67.3536 701.918 68.7735 699.702 68.768ZM699.702 63.6243C698.564 63.6243 697.752 64.2762 697.763 65.3702C697.752 66.4475 698.564 67.116 699.702 67.116C700.813 67.116 701.619 66.4475 701.619 65.3702C701.619 64.2762 700.813 63.6243 699.702 63.6243ZM706.061 69.8508V70.337C706.05 71.8287 706.84 73.1989 708.73 73.7845L707.763 75.2265C706.404 74.7735 705.514 73.9061 705.017 72.8066C704.553 73.9061 703.724 74.8564 702.454 75.3536C701.117 74.8729 700.282 73.9503 699.818 72.8564C699.31 73.9171 698.437 74.7735 697.133 75.2265L696.155 73.7845C698.023 73.1381 698.818 71.7293 698.829 70.337V69.8508H700.769V70.337C700.769 71.4862 701.249 72.6685 702.404 73.4475C703.581 72.6188 704.095 71.3978 704.1 70.337V69.8508H706.061ZM713.022 65.0994H720.972V66.663H711.039V61.7182H713.022V65.0994ZM709.409 69.7459V68.1823H722.414V69.7459H709.409ZM710.906 70.9116H712.901V73.5249H721.061V75.1271H710.906V70.9116ZM738.223 61.2099V64.5414H740.134V66.1934H738.223V69.6519H736.223V61.2099H738.223ZM731.14 66.3646C730.527 67.7956 729.422 68.9227 727.797 69.4751L726.726 67.9116C729.096 67.116 730.112 65.221 730.123 63.2597V61.9724H732.118V63.453C732.118 65.1768 733.123 66.8343 735.372 67.5249L734.317 69.0773C732.803 68.5801 731.753 67.6077 731.14 66.3646ZM733.554 69.9448C736.505 69.9392 738.355 70.9613 738.355 72.6796C738.355 74.4309 736.505 75.442 733.554 75.4365C730.56 75.442 728.681 74.4309 728.687 72.6796C728.681 70.9613 730.56 69.9392 733.554 69.9448ZM733.554 73.8785C735.405 73.8729 736.389 73.4917 736.389 72.6796C736.389 71.9116 735.405 71.4972 733.554 71.4972C731.692 71.4972 730.676 71.9116 730.681 72.6796C730.676 73.4917 731.692 73.8729 733.554 73.8785ZM742.001 65.3702H743.753V63.2099H741.907V61.6077H752.576V63.2099H750.725V65.3702H752.482V66.9669H742.001V65.3702ZM745.742 65.3702H748.719V63.2099H745.742V65.3702ZM753.742 67.8785V69.453H748.228V70.674H752.184V75.2818H742.272V70.674H746.244V69.453H740.769V67.8785H753.742ZM744.233 73.6851H750.239V72.2155H744.233V73.6851Z" fill="white"/>
</svg>
