<svg width="488" height="62" viewBox="0 0 488 62" fill="none" xmlns="http://www.w3.org/2000/svg">
<path d="M18.912 13.4C22.016 13.4 24.72 13.912 27.024 14.936C29.328 15.96 31.104 17.432 32.352 19.352C33.6 21.272 34.224 23.512 34.224 26.072C34.224 28.632 33.6 30.872 32.352 32.792C31.104 34.712 29.328 36.184 27.024 37.208C24.72 38.232 22.016 38.744 18.912 38.744H14.064V47H2.736V13.4H18.912ZM18.192 30.008C19.728 30.008 20.88 29.672 21.648 29C22.416 28.296 22.8 27.32 22.8 26.072C22.8 24.824 22.416 23.864 21.648 23.192C20.88 22.488 19.728 22.136 18.192 22.136H14.064V30.008H18.192ZM47.4319 23.576C49.3519 21.368 52.1839 20.264 55.9279 20.264V29.864C55.0639 29.736 54.2639 29.672 53.5279 29.672C49.8159 29.672 47.9599 31.56 47.9599 35.336V47H37.1119V20.744H47.4319V23.576ZM71.6801 47.48C68.7681 47.48 66.1441 46.904 63.8081 45.752C61.5041 44.568 59.6961 42.952 58.3841 40.904C57.0721 38.824 56.4161 36.472 56.4161 33.848C56.4161 31.224 57.0721 28.888 58.3841 26.84C59.6961 24.76 61.5041 23.144 63.8081 21.992C66.1441 20.84 68.7681 20.264 71.6801 20.264C74.6241 20.264 77.2481 20.84 79.5521 21.992C81.8881 23.144 83.6961 24.76 84.9761 26.84C86.2881 28.888 86.9441 31.224 86.9441 33.848C86.9441 36.472 86.2881 38.824 84.9761 40.904C83.6961 42.952 81.8881 44.568 79.5521 45.752C77.2481 46.904 74.6241 47.48 71.6801 47.48ZM71.6801 39.032C72.9281 39.032 73.9521 38.584 74.7521 37.688C75.5521 36.76 75.9521 35.48 75.9521 33.848C75.9521 32.216 75.5521 30.952 74.7521 30.056C73.9521 29.16 72.9281 28.712 71.6801 28.712C70.4321 28.712 69.4081 29.16 68.6081 30.056C67.8081 30.952 67.4081 32.216 67.4081 33.848C67.4081 35.48 67.8081 36.76 68.6081 37.688C69.4081 38.584 70.4321 39.032 71.6801 39.032ZM118.419 11.384V47H108.099V44.84C106.531 46.6 104.131 47.48 100.899 47.48C98.5954 47.48 96.4674 46.936 94.5154 45.848C92.5954 44.728 91.0594 43.128 89.9074 41.048C88.7874 38.968 88.2274 36.568 88.2274 33.848C88.2274 31.128 88.7874 28.744 89.9074 26.696C91.0594 24.616 92.5954 23.032 94.5154 21.944C96.4674 20.824 98.5954 20.264 100.899 20.264C103.811 20.264 106.035 21.016 107.571 22.52V11.384H118.419ZM103.491 39.032C104.739 39.032 105.763 38.584 106.563 37.688C107.363 36.76 107.763 35.48 107.763 33.848C107.763 32.216 107.363 30.952 106.563 30.056C105.763 29.16 104.739 28.712 103.491 28.712C102.243 28.712 101.219 29.16 100.419 30.056C99.6194 30.952 99.2194 32.216 99.2194 33.848C99.2194 35.48 99.6194 36.76 100.419 37.688C101.219 38.584 102.243 39.032 103.491 39.032ZM150.967 20.744V47H140.647V44.504C139.687 45.496 138.567 46.248 137.287 46.76C136.007 47.24 134.647 47.48 133.207 47.48C129.879 47.48 127.207 46.472 125.191 44.456C123.175 42.408 122.167 39.336 122.167 35.24V20.744H133.015V33.368C133.015 35.16 133.303 36.44 133.879 37.208C134.455 37.976 135.303 38.36 136.423 38.36C137.479 38.36 138.359 37.944 139.063 37.112C139.767 36.248 140.119 34.904 140.119 33.08V20.744H150.967ZM168.931 47.48C165.955 47.48 163.283 46.904 160.915 45.752C158.579 44.6 156.739 42.984 155.395 40.904C154.083 38.824 153.427 36.472 153.427 33.848C153.427 31.224 154.083 28.888 155.395 26.84C156.739 24.76 158.579 23.144 160.915 21.992C163.283 20.84 165.955 20.264 168.931 20.264C172.131 20.264 174.867 20.952 177.139 22.328C179.411 23.704 180.979 25.608 181.843 28.04L173.443 32.168C172.419 29.864 170.899 28.712 168.883 28.712C167.603 28.712 166.531 29.16 165.667 30.056C164.835 30.952 164.419 32.216 164.419 33.848C164.419 35.512 164.835 36.792 165.667 37.688C166.531 38.584 167.603 39.032 168.883 39.032C170.899 39.032 172.419 37.88 173.443 35.576L181.843 39.704C180.979 42.136 179.411 44.04 177.139 45.416C174.867 46.792 172.131 47.48 168.931 47.48ZM203.203 46.088C201.571 47.016 199.347 47.48 196.531 47.48C192.851 47.48 190.019 46.6 188.035 44.84C186.051 43.048 185.059 40.376 185.059 36.824V30.104H181.459V22.184H185.059V14.84H195.907V22.184H201.283V30.104H195.907V36.728C195.907 37.528 196.115 38.152 196.531 38.6C196.947 39.048 197.491 39.272 198.163 39.272C199.091 39.272 199.907 39.032 200.611 38.552L203.203 46.088ZM234.824 47.768C229.672 47.768 225.656 46.376 222.776 43.592C219.896 40.808 218.456 36.904 218.456 31.88V13.4H229.784V31.544C229.784 34.008 230.216 35.8 231.08 36.92C231.976 38.04 233.256 38.6 234.92 38.6C236.584 38.6 237.848 38.04 238.712 36.92C239.608 35.8 240.056 34.008 240.056 31.544V13.4H251.192V31.88C251.192 36.904 249.752 40.808 246.872 43.592C243.992 46.376 239.976 47.768 234.824 47.768ZM272.608 20.264C274.912 20.264 277.024 20.824 278.944 21.944C280.896 23.032 282.432 24.616 283.552 26.696C284.704 28.776 285.28 31.176 285.28 33.896C285.28 36.616 284.704 39.016 283.552 41.096C282.432 43.144 280.896 44.728 278.944 45.848C277.024 46.936 274.912 47.48 272.608 47.48C269.696 47.48 267.472 46.728 265.936 45.224V56.312H255.088V20.744H265.408V22.904C266.976 21.144 269.376 20.264 272.608 20.264ZM270.016 39.032C271.264 39.032 272.288 38.584 273.088 37.688C273.888 36.792 274.288 35.528 274.288 33.896C274.288 32.264 273.888 31 273.088 30.104C272.288 29.176 271.264 28.712 270.016 28.712C268.768 28.712 267.744 29.176 266.944 30.104C266.144 31 265.744 32.264 265.744 33.896C265.744 35.528 266.144 36.792 266.944 37.688C267.744 38.584 268.768 39.032 270.016 39.032ZM287.737 11.384H298.585V47H287.737V11.384ZM316.306 47.48C313.394 47.48 310.77 46.904 308.434 45.752C306.13 44.568 304.322 42.952 303.01 40.904C301.698 38.824 301.042 36.472 301.042 33.848C301.042 31.224 301.698 28.888 303.01 26.84C304.322 24.76 306.13 23.144 308.434 21.992C310.77 20.84 313.394 20.264 316.306 20.264C319.25 20.264 321.874 20.84 324.178 21.992C326.514 23.144 328.322 24.76 329.602 26.84C330.914 28.888 331.57 31.224 331.57 33.848C331.57 36.472 330.914 38.824 329.602 40.904C328.322 42.952 326.514 44.568 324.178 45.752C321.874 46.904 319.25 47.48 316.306 47.48ZM316.306 39.032C317.554 39.032 318.578 38.584 319.378 37.688C320.178 36.76 320.578 35.48 320.578 33.848C320.578 32.216 320.178 30.952 319.378 30.056C318.578 29.16 317.554 28.712 316.306 28.712C315.058 28.712 314.034 29.16 313.234 30.056C312.434 30.952 312.034 32.216 312.034 33.848C312.034 35.48 312.434 36.76 313.234 37.688C314.034 38.584 315.058 39.032 316.306 39.032ZM345.109 20.264C349.717 20.264 353.237 21.304 355.669 23.384C358.101 25.432 359.317 28.6 359.317 32.888V47H349.237V43.544C347.989 46.168 345.509 47.48 341.797 47.48C339.717 47.48 337.941 47.128 336.469 46.424C335.029 45.688 333.925 44.712 333.157 43.496C332.421 42.248 332.053 40.856 332.053 39.32C332.053 36.728 333.045 34.76 335.029 33.416C337.013 32.072 340.021 31.4 344.053 31.4H348.421C348.069 29.352 346.421 28.328 343.477 28.328C342.293 28.328 341.093 28.52 339.877 28.904C338.661 29.256 337.621 29.752 336.757 30.392L333.301 23.24C334.805 22.312 336.613 21.592 338.725 21.08C340.869 20.536 342.997 20.264 345.109 20.264ZM345.061 40.952C345.829 40.952 346.517 40.744 347.125 40.328C347.733 39.912 348.181 39.288 348.469 38.456V36.632H345.781C343.573 36.632 342.469 37.368 342.469 38.84C342.469 39.448 342.693 39.96 343.141 40.376C343.621 40.76 344.261 40.952 345.061 40.952ZM392.554 11.384V47H382.234V44.84C380.666 46.6 378.266 47.48 375.034 47.48C372.73 47.48 370.602 46.936 368.65 45.848C366.73 44.728 365.194 43.128 364.042 41.048C362.922 38.968 362.362 36.568 362.362 33.848C362.362 31.128 362.922 28.744 364.042 26.696C365.194 24.616 366.73 23.032 368.65 21.944C370.602 20.824 372.73 20.264 375.034 20.264C377.946 20.264 380.17 21.016 381.706 22.52V11.384H392.554ZM377.626 39.032C378.874 39.032 379.898 38.584 380.698 37.688C381.498 36.76 381.898 35.48 381.898 33.848C381.898 32.216 381.498 30.952 380.698 30.056C379.898 29.16 378.874 28.712 377.626 28.712C376.378 28.712 375.354 29.16 374.554 30.056C373.754 30.952 373.354 32.216 373.354 33.848C373.354 35.48 373.754 36.76 374.554 37.688C375.354 38.584 376.378 39.032 377.626 39.032Z" fill="black"/>
<rect width="40.6732" height="40.9048" rx="1" transform="matrix(0.940344 0.340228 -0.33582 0.941927 424.736 9.63245)" fill="black"/>
<rect x="0.906787" y="1.92323" width="21.4039" height="25.6334" rx="10.702" transform="matrix(0.940344 0.340228 -0.33582 0.941927 436.521 2.571)" stroke="black" stroke-width="3"/>
<path fill-rule="evenodd" clip-rule="evenodd" d="M453.017 23.0834C451.565 27.156 453.715 31.4934 457.818 32.772C456.367 36.8445 458.517 41.1814 462.621 42.4593C466.726 43.7373 471.23 41.4716 472.682 37.3987C476.787 38.6764 481.291 36.4106 482.743 32.3377C484.195 28.2654 482.046 23.9283 477.943 22.6494C479.394 18.5768 477.244 14.2397 473.14 12.9618C469.035 11.6838 464.531 13.9496 463.079 18.0226L463.079 18.0227L463.078 18.0226C458.974 16.7445 454.469 19.0103 453.017 23.0834Z" fill="#49ED3F"/>
<ellipse cx="5.21775" cy="5.19286" rx="5.21775" ry="5.19286" transform="matrix(-0.0829071 0.997724 -0.997896 -0.0387076 473.423 22.9489)" fill="black"/>
</svg>
