<svg width="64" height="64" viewBox="0 0 64 64" fill="none" xmlns="http://www.w3.org/2000/svg">
<path fill-rule="evenodd" clip-rule="evenodd" d="M16.0015 48.0007C20.4192 52.4184 27.5813 52.4192 32 48.0031C36.4187 52.4192 43.5808 52.4184 47.9985 48.0007C52.417 43.5821 52.417 36.4182 47.9985 31.9997C52.417 27.5811 52.417 20.4172 47.9985 15.9987C43.5808 11.5809 36.4187 11.5801 32 15.9963C27.5813 11.5801 20.4192 11.5809 16.0015 15.9987C11.583 20.4172 11.583 27.5811 16.0015 31.9997C11.583 36.4182 11.583 43.5821 16.0015 48.0007Z" fill="#49ED3F"/>
<circle cx="7.54292" cy="7.54292" r="7.54292" transform="matrix(0.707103 0.707111 -0.707103 0.707111 32 21.3313)" fill="black"/>
</svg>
