<svg width="100" height="30" viewBox="0 0 100 30" fill="none" xmlns="http://www.w3.org/2000/svg">
<rect width="100" height="30" rx="15" fill="black"/>
<path d="M33.7265 13.7686V8.91022H34.9593V21.1602H33.7265V14.8273H32.1409V20.5318H30.942V9.1616H32.1409V13.7686H33.7265ZM26.1657 11.4385V17.1188C27.6692 17.1043 28.8004 17.0366 30.1057 16.7852L30.212 17.8584C28.7327 18.163 27.4662 18.2065 25.6775 18.2162H24.8653V10.3847H29.4482V11.4385H26.1657ZM44.6852 15.9296V18.6512H47.7647V19.7099H36.554V18.6512H39.5609V15.9296H37.5354V14.866H39.3627V11.0566H37.5064V9.99793H46.7398V11.0566H44.8641V14.866H46.7011V15.9296H44.6852ZM43.5879 11.0566H40.6535V14.866H43.5879V11.0566ZM43.3848 15.9296H40.8613V18.6512H43.3848V15.9296ZM60.9135 8.91022H62.2187V21.1844H60.9135V8.91022ZM55.6586 9.82873C57.486 9.83356 58.8202 11.5014 58.8202 14.1264C58.8202 16.7659 57.486 18.4337 55.6586 18.4337C53.8119 18.4337 52.4922 16.7659 52.4922 14.1264C52.4922 11.5014 53.8119 9.83356 55.6586 9.82873ZM55.6586 10.989C54.5274 10.9986 53.7443 12.1975 53.7443 14.1264C53.7443 16.0698 54.5274 17.2686 55.6586 17.2686C56.7898 17.2686 57.5633 16.0698 57.5633 14.1264C57.5633 12.1975 56.7898 10.9986 55.6586 10.989ZM73.0131 8.91022H74.3183V21.1844H73.0131V8.91022ZM64.848 10.0849H70.5959V18.134H64.848V10.0849ZM69.3342 11.1146H66.1339V17.0898H69.3342V11.1146ZM85.1127 21.1602V8.91022H86.4179V21.1602H85.1127ZM80.7764 11.2162V12.5262C80.7764 14.5711 82.1203 16.6885 84.0056 17.491L83.295 18.5159C81.8496 17.8778 80.7087 16.5242 80.1382 14.8999C79.5678 16.6402 78.4172 18.1291 76.996 18.8204L76.237 17.7956C78.0837 16.9351 79.4518 14.6291 79.4614 12.5262V11.2162H76.6672V10.143H83.5705V11.2162H80.7764Z" fill="white"/>
<circle cx="14" cy="15" r="4" fill="#49ED3F"/>
</svg>
