<svg width="420" height="37" viewBox="0 0 420 37" fill="none" xmlns="http://www.w3.org/2000/svg">
<path d="M0.0879999 36L14.776 2.4H25.912L40.6 36H28.888L18.04 7.776H22.456L11.608 36H0.0879999ZM8.824 30.144L11.704 21.984H27.16L30.04 30.144H8.824ZM51.5871 36.48C49.5071 36.48 47.6191 36.064 45.9231 35.232C44.2591 34.368 42.9471 33.04 41.9871 31.248C41.0271 29.424 40.5471 27.088 40.5471 24.24V9.744H51.3951V22.368C51.3951 24.224 51.6991 25.52 52.3071 26.256C52.9151 26.992 53.7471 27.36 54.8031 27.36C55.4431 27.36 56.0351 27.2 56.5791 26.88C57.1551 26.528 57.6191 25.968 57.9711 25.2C58.3231 24.4 58.4991 23.36 58.4991 22.08V9.744H69.3471V36H59.0271V28.416L61.0911 30.48C60.1631 32.528 58.8351 34.048 57.1071 35.04C55.4111 36 53.5711 36.48 51.5871 36.48ZM85.8708 36.48C82.2548 36.48 79.4388 35.616 77.4228 33.888C75.4068 32.128 74.3988 29.44 74.3988 25.824V3.84H85.2468V25.728C85.2468 26.528 85.4548 27.152 85.8708 27.6C86.3188 28.048 86.8628 28.272 87.5028 28.272C88.4308 28.272 89.2468 28.032 89.9508 27.552L92.5428 35.088C91.7108 35.568 90.7028 35.92 89.5188 36.144C88.3668 36.368 87.1508 36.48 85.8708 36.48ZM70.7988 19.104V11.184H90.6228V19.104H70.7988ZM112.557 9.264C114.573 9.264 116.397 9.68 118.029 10.512C119.661 11.312 120.941 12.576 121.869 14.304C122.829 16.032 123.309 18.272 123.309 21.024V36H112.461V22.896C112.461 21.264 112.173 20.112 111.597 19.44C111.021 18.736 110.237 18.384 109.245 18.384C108.509 18.384 107.821 18.56 107.181 18.912C106.573 19.232 106.077 19.776 105.693 20.544C105.341 21.312 105.165 22.352 105.165 23.664V36H94.3169V0.383998H105.165V17.424L102.573 15.216C103.597 13.232 104.973 11.744 106.701 10.752C108.461 9.76 110.413 9.264 112.557 9.264ZM141.401 36.48C138.425 36.48 135.785 35.904 133.481 34.752C131.209 33.568 129.417 31.952 128.105 29.904C126.793 27.856 126.137 25.504 126.137 22.848C126.137 20.192 126.793 17.84 128.105 15.792C129.417 13.744 131.209 12.144 133.481 10.992C135.785 9.84 138.425 9.264 141.401 9.264C144.377 9.264 147.017 9.84 149.321 10.992C151.625 12.144 153.417 13.744 154.697 15.792C156.009 17.84 156.665 20.192 156.665 22.848C156.665 25.504 156.009 27.856 154.697 29.904C153.417 31.952 151.625 33.568 149.321 34.752C147.017 35.904 144.377 36.48 141.401 36.48ZM141.401 28.032C142.201 28.032 142.921 27.84 143.561 27.456C144.201 27.072 144.713 26.496 145.097 25.728C145.481 24.928 145.673 23.968 145.673 22.848C145.673 21.696 145.481 20.752 145.097 20.016C144.713 19.248 144.201 18.672 143.561 18.288C142.921 17.904 142.201 17.712 141.401 17.712C140.601 17.712 139.881 17.904 139.241 18.288C138.601 18.672 138.089 19.248 137.705 20.016C137.321 20.752 137.129 21.696 137.129 22.848C137.129 23.968 137.321 24.928 137.705 25.728C138.089 26.496 138.601 27.072 139.241 27.456C139.881 27.84 140.601 28.032 141.401 28.032ZM159.1 36V9.744H169.42V17.664L167.74 15.408C168.54 13.36 169.82 11.824 171.58 10.8C173.34 9.776 175.452 9.264 177.916 9.264V18.864C177.436 18.8 177.004 18.752 176.62 18.72C176.268 18.688 175.9 18.672 175.516 18.672C173.884 18.672 172.54 19.104 171.484 19.968C170.46 20.8 169.948 22.256 169.948 24.336V36H159.1ZM193.797 36V2.4H209.973C213.109 2.4 215.813 2.912 218.085 3.936C220.389 4.96 222.165 6.432 223.413 8.352C224.661 10.24 225.285 12.48 225.285 15.072C225.285 17.664 224.661 19.904 223.413 21.792C222.165 23.68 220.389 25.152 218.085 26.208C215.813 27.232 213.109 27.744 209.973 27.744H200.085L205.125 22.896V36H193.797ZM205.125 24.144L200.085 19.008H209.253C210.821 19.008 211.973 18.656 212.709 17.952C213.477 17.248 213.861 16.288 213.861 15.072C213.861 13.856 213.477 12.896 212.709 12.192C211.973 11.488 210.821 11.136 209.253 11.136H200.085L205.125 6V24.144ZM228.173 36V9.744H238.493V17.664L236.813 15.408C237.613 13.36 238.893 11.824 240.653 10.8C242.413 9.776 244.525 9.264 246.989 9.264V18.864C246.509 18.8 246.077 18.752 245.693 18.72C245.341 18.688 244.973 18.672 244.589 18.672C242.957 18.672 241.613 19.104 240.557 19.968C239.533 20.8 239.021 22.256 239.021 24.336V36H228.173ZM262.741 36.48C259.765 36.48 257.125 35.904 254.821 34.752C252.549 33.568 250.757 31.952 249.445 29.904C248.133 27.856 247.477 25.504 247.477 22.848C247.477 20.192 248.133 17.84 249.445 15.792C250.757 13.744 252.549 12.144 254.821 10.992C257.125 9.84 259.765 9.264 262.741 9.264C265.717 9.264 268.357 9.84 270.661 10.992C272.965 12.144 274.757 13.744 276.037 15.792C277.349 17.84 278.005 20.192 278.005 22.848C278.005 25.504 277.349 27.856 276.037 29.904C274.757 31.952 272.965 33.568 270.661 34.752C268.357 35.904 265.717 36.48 262.741 36.48ZM262.741 28.032C263.541 28.032 264.261 27.84 264.901 27.456C265.541 27.072 266.053 26.496 266.437 25.728C266.821 24.928 267.013 23.968 267.013 22.848C267.013 21.696 266.821 20.752 266.437 20.016C266.053 19.248 265.541 18.672 264.901 18.288C264.261 17.904 263.541 17.712 262.741 17.712C261.941 17.712 261.221 17.904 260.581 18.288C259.941 18.672 259.429 19.248 259.045 20.016C258.661 20.752 258.469 21.696 258.469 22.848C258.469 23.968 258.661 24.928 259.045 25.728C259.429 26.496 259.941 27.072 260.581 27.456C261.221 27.84 261.941 28.032 262.741 28.032ZM291.961 36.48C289.689 36.48 287.577 35.936 285.625 34.848C283.705 33.728 282.169 32.16 281.017 30.144C279.865 28.096 279.289 25.664 279.289 22.848C279.289 20.032 279.865 17.616 281.017 15.6C282.169 13.552 283.705 11.984 285.625 10.896C287.577 9.808 289.689 9.264 291.961 9.264C294.265 9.264 296.153 9.76 297.625 10.752C299.097 11.712 300.185 13.2 300.889 15.216C301.593 17.2 301.945 19.744 301.945 22.848C301.945 25.984 301.609 28.56 300.937 30.576C300.297 32.592 299.241 34.08 297.769 35.04C296.329 36 294.393 36.48 291.961 36.48ZM294.553 28.032C295.353 28.032 296.073 27.84 296.713 27.456C297.353 27.072 297.865 26.496 298.249 25.728C298.633 24.928 298.825 23.968 298.825 22.848C298.825 21.696 298.633 20.752 298.249 20.016C297.865 19.248 297.353 18.672 296.713 18.288C296.073 17.904 295.353 17.712 294.553 17.712C293.753 17.712 293.033 17.904 292.393 18.288C291.753 18.672 291.241 19.248 290.857 20.016C290.473 20.752 290.281 21.696 290.281 22.848C290.281 23.968 290.473 24.928 290.857 25.728C291.241 26.496 291.753 27.072 292.393 27.456C293.033 27.84 293.753 28.032 294.553 28.032ZM299.161 36V32.448L299.113 22.848L298.633 13.248V0.383998H309.481V36H299.161ZM324.268 36.48C322.188 36.48 320.3 36.064 318.604 35.232C316.94 34.368 315.628 33.04 314.668 31.248C313.708 29.424 313.228 27.088 313.228 24.24V9.744H324.076V22.368C324.076 24.224 324.38 25.52 324.988 26.256C325.596 26.992 326.428 27.36 327.484 27.36C328.124 27.36 328.716 27.2 329.26 26.88C329.836 26.528 330.3 25.968 330.652 25.2C331.004 24.4 331.18 23.36 331.18 22.08V9.744H342.028V36H331.708V28.416L333.772 30.48C332.844 32.528 331.516 34.048 329.788 35.04C328.092 36 326.252 36.48 324.268 36.48ZM359.992 36.48C356.984 36.48 354.312 35.904 351.976 34.752C349.64 33.6 347.8 32 346.456 29.952C345.144 27.872 344.488 25.504 344.488 22.848C344.488 20.192 345.144 17.84 346.456 15.792C347.8 13.744 349.64 12.144 351.976 10.992C354.312 9.84 356.984 9.264 359.992 9.264C363.192 9.264 365.928 9.952 368.2 11.328C370.472 12.704 372.04 14.608 372.904 17.04L364.504 21.168C363.96 19.952 363.288 19.072 362.488 18.528C361.72 17.984 360.872 17.712 359.944 17.712C359.144 17.712 358.392 17.904 357.688 18.288C357.016 18.672 356.472 19.248 356.056 20.016C355.672 20.752 355.48 21.696 355.48 22.848C355.48 24 355.672 24.96 356.056 25.728C356.472 26.496 357.016 27.072 357.688 27.456C358.392 27.84 359.144 28.032 359.944 28.032C360.872 28.032 361.72 27.76 362.488 27.216C363.288 26.672 363.96 25.792 364.504 24.576L372.904 28.704C372.04 31.136 370.472 33.04 368.2 34.416C365.928 35.792 363.192 36.48 359.992 36.48ZM387.592 36.48C383.976 36.48 381.16 35.616 379.144 33.888C377.128 32.128 376.12 29.44 376.12 25.824V3.84H386.968V25.728C386.968 26.528 387.176 27.152 387.592 27.6C388.04 28.048 388.584 28.272 389.224 28.272C390.152 28.272 390.968 28.032 391.672 27.552L394.264 35.088C393.432 35.568 392.424 35.92 391.24 36.144C390.088 36.368 388.872 36.48 387.592 36.48ZM372.52 19.104V11.184H392.344V19.104H372.52ZM406.31 36.48C404.07 36.48 401.862 36.24 399.686 35.76C397.51 35.28 395.75 34.656 394.406 33.888L397.382 26.736C398.63 27.472 400.07 28.048 401.702 28.464C403.366 28.88 404.982 29.088 406.55 29.088C407.862 29.088 408.742 28.976 409.19 28.752C409.67 28.528 409.91 28.224 409.91 27.84C409.91 27.456 409.638 27.184 409.094 27.024C408.55 26.832 407.83 26.688 406.934 26.592C406.038 26.496 405.046 26.384 403.958 26.256C402.902 26.096 401.83 25.872 400.742 25.584C399.654 25.296 398.662 24.864 397.766 24.288C396.87 23.712 396.15 22.944 395.606 21.984C395.062 20.992 394.79 19.744 394.79 18.24C394.79 16.576 395.286 15.072 396.278 13.728C397.302 12.384 398.806 11.312 400.79 10.512C402.806 9.68 405.286 9.264 408.23 9.264C410.15 9.264 412.07 9.44 413.99 9.792C415.91 10.144 417.558 10.688 418.934 11.424L415.958 18.576C414.614 17.84 413.286 17.344 411.974 17.088C410.694 16.8 409.494 16.656 408.374 16.656C406.998 16.656 406.054 16.784 405.542 17.04C405.062 17.296 404.822 17.584 404.822 17.904C404.822 18.288 405.094 18.576 405.638 18.768C406.182 18.96 406.902 19.104 407.798 19.2C408.694 19.296 409.67 19.424 410.726 19.584C411.814 19.712 412.886 19.936 413.942 20.256C415.03 20.544 416.022 20.976 416.918 21.552C417.814 22.128 418.534 22.912 419.078 23.904C419.622 24.864 419.894 26.096 419.894 27.6C419.894 29.168 419.398 30.64 418.406 32.016C417.414 33.36 415.91 34.448 413.894 35.28C411.878 36.08 409.35 36.48 406.31 36.48Z" fill="white"/>
</svg>
