<svg width="780" height="100" viewBox="0 0 780 100" fill="none" xmlns="http://www.w3.org/2000/svg">
<rect width="780" height="100" fill="white"/>
<rect width="100" height="100" fill="#49ED3F"/>
<path d="M50 5L50 95" stroke="white" stroke-width="1.5"/>
<path d="M88.9707 72.5L11.0284 27.5" stroke="white" stroke-width="1.5"/>
<path d="M72.5 88.9712L27.5 11.0289" stroke="white" stroke-width="1.5"/>
<path d="M27.5 88.9712L72.5 11.0288" stroke="white" stroke-width="1.5"/>
<path d="M11.0293 72.5L88.9716 27.5" stroke="white" stroke-width="1.5"/>
<path d="M5 50L95 50" stroke="white" stroke-width="1.5"/>
<circle cx="150" cy="50" r="50" fill="#49ED3F"/>
<rect x="200" width="580" height="100" fill="#49ED3F"/>
<path d="M285.56 76H259.32V75.36C262.68 75.36 266.44 73.84 266.44 70.08V48.4H246.2V70.08C246.2 73.84 249.96 75.36 253.32 75.36V76H227.08V75.36C230.44 75.36 234.2 73.84 234.2 70.08V28.88C234.2 25.12 230.44 23.44 227.08 23.44V22.88H253.32V23.44C249.96 23.44 246.2 25.12 246.2 28.88V47.04H266.44V28.88C266.44 25.12 262.68 23.44 259.32 23.44V22.88H285.56V23.44C282.2 23.44 278.44 25.12 278.44 28.88V70.08C278.44 73.84 282.2 75.36 285.56 75.36V76ZM317.976 76.08C331.016 76.08 331.976 61.04 331.976 49.2C331.976 37.36 330.936 22.32 317.896 22.32C304.856 22.32 303.816 37.36 303.816 49.2C303.816 61.04 304.936 76.08 317.976 76.08ZM317.896 21.52C333.256 21.52 345.896 33.84 345.896 49.2C345.896 64.56 333.256 76.88 317.896 76.88C302.536 76.88 289.896 64.56 289.896 49.2C289.896 33.84 302.536 21.52 317.896 21.52ZM394.125 22.88C395.485 22.88 397.165 22.24 397.245 21.36H397.645L401.565 40.24H401.085C398.205 30.4 388.685 23.6 381.165 23.6V70.08C381.165 73.84 384.925 75.36 388.285 75.36V76H362.045V75.36C365.405 75.36 369.165 73.84 369.165 70.08V23.6C361.645 23.6 352.125 30.4 349.245 40.24H348.765L352.685 21.36H353.085C353.165 22.24 354.845 22.88 356.205 22.88H394.125Z" fill="white"/>
<path d="M403.508 58.44V53.52H418.388V58.44H403.508ZM463.078 67.56C464.278 67.56 464.698 66.6 464.878 66.6C464.998 66.6 465.058 66.66 465.058 66.72C465.058 66.9 463.318 69.66 459.238 69.66C456.898 69.66 454.918 67.92 454.558 65.82C451.978 67.98 449.818 69.78 446.158 69.78C443.038 69.78 440.338 67.38 440.338 64.38C440.338 59.52 450.118 56.88 454.498 54.96V47.16C454.498 45.96 453.358 44.94 452.038 44.94C450.958 44.94 448.258 46.68 448.258 48.78C448.258 50.4 448.198 52.14 447.778 53.58C447.238 55.5 446.038 56.94 443.698 56.94C441.898 56.94 440.458 55.5 440.458 53.52C440.458 51.48 442.618 49.2 445.678 47.28C448.378 45.6 451.738 44.16 454.918 44.16C458.278 44.16 461.878 46.26 461.878 49.14V64.92C461.878 66.3 462.298 67.56 463.078 67.56ZM454.498 55.5C449.338 57.42 447.898 59.16 447.898 63C447.898 64.98 448.978 67.02 451.018 67.02C452.638 67.02 453.538 66.06 454.498 65.04V55.5ZM494.776 44.04V64.32C494.776 66.18 497.476 67.08 498.436 67.26V67.68C494.416 67.74 490.516 69.12 487.396 70.38H487.036V65.46C485.476 67.2 481.096 69.78 477.976 69.78C474.856 69.78 470.476 67.38 470.476 64.02V51.72C470.476 49.86 467.356 47.94 466.456 47.4V46.98C471.436 46.38 477.976 43.98 477.976 43.98H478.336V62.52C478.336 65.7 480.316 67.38 482.596 67.38C484.576 67.38 486.016 65.88 487.036 64.5V51.78C487.036 49.92 483.436 47.94 482.296 47.46V47.04C487.276 46.44 494.416 44.04 494.416 44.04H494.776ZM510.411 62.52C510.411 64.74 511.851 67.56 514.311 67.56C515.931 67.56 516.951 66.66 517.611 65.76H517.911C516.831 67.98 514.011 69.78 510.831 69.78C506.571 69.78 502.911 67.44 502.911 62.22V47.34H500.631V46.98L510.051 37.5H510.411V45.06H517.191L516.351 47.34H510.411V62.52ZM539.287 44.16C542.407 44.16 545.587 46.56 545.587 49.92V64.56C545.587 67.38 546.247 68.52 548.767 68.52V69H534.967V68.52C537.487 68.52 538.147 67.38 538.147 64.56V51.84C538.147 48.96 536.707 46.98 534.427 46.98C532.447 46.98 531.667 47.94 530.227 49.2V64.56C530.227 67.38 530.887 68.52 533.407 68.52V69H519.607V68.52C522.127 68.52 522.787 67.38 522.787 64.56V36.36C522.787 34.5 520.027 32.88 519.127 32.34V31.92C524.107 31.32 529.867 28.56 529.867 28.56H530.227V48.42C532.087 46.98 534.607 44.16 539.287 44.16ZM565.123 44.64C560.323 44.64 559.903 50.22 559.903 56.94C559.903 63.66 560.323 69.24 565.123 69.24C569.923 69.24 570.343 63.66 570.343 56.94C570.343 50.22 569.923 44.64 565.123 44.64ZM565.123 44.1C572.503 44.1 578.983 49.56 578.983 56.94C578.983 64.32 572.503 69.78 565.123 69.78C557.743 69.78 551.263 64.32 551.263 56.94C551.263 49.56 557.743 44.1 565.123 44.1ZM593.235 49.8C594.075 48.12 596.175 43.8 599.595 43.8C601.815 43.8 603.555 45.72 603.555 47.94C603.555 50.1 602.595 52.44 600.375 52.44C597.375 52.44 597.015 49.5 595.395 49.5C594.255 49.5 593.235 51.36 593.235 52.98V64.56C593.235 67.38 593.895 68.52 596.415 68.52V69H582.615V68.52C585.135 68.52 585.795 67.38 585.795 64.56V51.48C585.795 49.62 583.035 48 582.135 47.46V47.04C587.115 46.44 592.875 43.68 592.875 43.68H593.235V49.8Z" fill="white"/>
<path d="M643.425 20.3812V23.4309H645.514V24.4696H643.425V27.5967H642.199V20.3812H643.425ZM641.16 25.7182L641.227 26.6464C638.398 27.0663 635.149 27.0994 632.751 27.0884L632.608 26.0829C633.166 26.0829 633.773 26.0829 634.409 26.0718V22.3149H633.006V21.3315H640.497V22.3149H639.083V25.9116C639.796 25.8619 640.492 25.7956 641.16 25.7182ZM637.878 22.3149H635.602V26.0552C636.348 26.0387 637.11 26.0166 637.878 25.9779V22.3149ZM643.425 31.5746H635.801V33.1105H643.934V34.116H634.597V30.6464H642.21V29.2431H634.564V28.2707H643.425V31.5746ZM653.32 28.8895V31.5083H659.11V32.547H646.392V31.5083H652.104V28.8895H647.983V24.6022H656.292V22.4254H647.95V21.4088H657.508V25.6077H649.198V27.8729H657.828V28.8895H653.32ZM670.463 29.884V20.3923H671.711V34.2818H670.463V30.8343H667.27V29.884H670.463ZM664.739 26.5359C662.651 26.5249 661.214 25.4641 661.214 23.8066C661.214 22.1823 662.651 21.0773 664.739 21.0773C666.794 21.0773 668.242 22.1823 668.242 23.8066C668.242 25.4641 666.794 26.5249 664.739 26.5359ZM664.739 22.0387C663.336 22.0387 662.363 22.768 662.374 23.8066C662.363 24.8674 663.336 25.5856 664.739 25.5856C666.098 25.5856 667.071 24.8674 667.082 23.8066C667.071 22.768 666.098 22.0387 664.739 22.0387ZM669.391 27.2541L669.468 28.1713C668.093 28.4033 666.667 28.5414 665.281 28.6243V33.8398H664.054V28.6851C662.723 28.7403 661.452 28.7459 660.33 28.7459L660.153 27.7072C662.805 27.6961 666.33 27.6851 669.391 27.2541ZM688.307 20.3923H689.533V30.547H688.307V20.3923ZM682.03 28.1823C679.953 28.1934 678.384 26.7901 678.384 24.768C678.384 22.768 679.953 21.3646 682.03 21.3646C684.108 21.3646 685.666 22.768 685.666 24.768C685.666 26.7901 684.108 28.1934 682.03 28.1823ZM679.588 24.768C679.577 26.1492 680.627 27.1105 682.03 27.1105C683.412 27.1105 684.472 26.1492 684.472 24.768C684.472 23.4088 683.412 22.4365 682.03 22.4365C680.627 22.4365 679.577 23.4088 679.588 24.768ZM681.787 29.5083V32.9448H689.964V33.9613H680.561V29.5083H681.787ZM702.146 34.2707V20.3812H703.372V34.2707H702.146ZM692.709 21.895H699.262C699.251 25.884 697.394 29.4199 692.731 31.663L692.068 30.6575C695.825 28.8785 697.742 26.2044 698.013 22.8895H692.709V21.895Z" fill="white"/>
<path d="M635.983 44.6298H632.508V42.6851H641.773V44.6298H638.309V54H635.983V44.6298ZM653.091 48.3425C653.091 52.0331 650.803 54.1547 647.803 54.1547C644.792 54.1547 642.522 52.0221 642.522 48.3425C642.522 44.6519 644.792 42.5304 647.803 42.5304C650.803 42.5304 653.091 44.6519 653.091 48.3425ZM650.709 48.3425C650.709 45.9282 649.555 44.6133 647.803 44.6133C646.057 44.6133 644.903 45.9282 644.903 48.3425C644.903 50.7569 646.057 52.0718 647.803 52.0718C649.555 52.0718 650.709 50.7569 650.709 48.3425ZM654.784 42.6851H659.215C661.789 42.6851 663.265 44.2707 663.265 46.5083C663.265 48.7569 661.767 50.3149 659.165 50.3149H657.132V54H654.784V42.6851ZM657.132 48.4199H658.784C660.176 48.4199 660.85 47.6409 660.85 46.5083C660.85 45.3702 660.176 44.6133 658.778 44.6133H657.132V48.4199ZM672.567 54.1547C670.076 54.1547 668.297 52.7901 668.258 50.8177H670.628C670.667 51.6519 671.484 52.2099 672.573 52.2099C673.7 52.2099 674.506 51.5856 674.501 50.674C674.506 49.7514 673.689 49.0994 672.357 49.0994H671.308V47.3591H672.357C673.479 47.3591 674.258 46.7514 674.252 45.8564C674.258 44.9945 673.589 44.4033 672.589 44.4033C671.589 44.4033 670.772 44.9613 670.739 45.8287H668.484C668.523 43.884 670.28 42.5304 672.6 42.5304C674.954 42.5304 676.529 43.9282 676.518 45.7127C676.529 46.9834 675.645 47.884 674.368 48.1105V48.1989C676.037 48.4033 676.954 49.4144 676.943 50.8287C676.954 52.7624 675.114 54.1547 672.567 54.1547ZM688.134 55.4309V41.232H690.112V55.4309H688.134ZM682.758 47.8453C680.598 47.8564 679.018 46.6022 679.029 44.8343C679.018 43.0387 680.598 41.8011 682.758 41.8066C684.935 41.8011 686.515 43.0387 686.515 44.8343C686.515 46.6022 684.935 47.8564 682.758 47.8453ZM682.758 43.4033C681.703 43.3978 680.946 43.9227 680.952 44.8343C680.946 45.7182 681.703 46.232 682.758 46.2265C683.858 46.232 684.62 45.7182 684.626 44.8343C684.62 43.9227 683.858 43.3978 682.758 43.4033ZM687.272 48.1989L687.41 49.6685C686.245 49.9006 685.035 50.0497 683.852 50.1492V55.0166H681.852V50.2707C680.604 50.3204 679.421 50.3315 678.399 50.3425L678.156 48.7182C680.681 48.7127 684.25 48.663 687.272 48.1989ZM706.926 44.6685H708.838V46.326H706.926V49.7956H704.926V41.2099H706.926V44.6685ZM699.904 46.5028C699.268 47.8895 698.136 48.9945 696.484 49.5359L695.429 48C697.777 47.2376 698.843 45.4199 698.876 43.6409H695.97V42.0497H703.727V43.6409H700.887C700.893 45.3094 701.898 47.011 704.197 47.7569L703.186 49.2928C701.611 48.7845 700.528 47.768 699.904 46.5028ZM704.926 51.9945H697.351V50.4033H706.926V55.442H704.926V51.9945ZM720.688 46.663H722.699V48.3094H720.688V55.4088H718.693V41.2099H720.688V46.663ZM710.119 42.6685H716.892C716.881 46.9227 715.218 50.6022 710.439 52.9503L709.318 51.4254C712.677 49.7348 714.483 47.4696 714.859 44.2983H710.119V42.6685ZM733.201 49.1989V41.2099H735.179V49.1989H733.201ZM731.991 46.2431L732.234 47.8674C730.024 48.326 727.897 48.4972 725.345 48.5028H724.113V42.0387H726.113V46.8398C728.273 46.8122 730.09 46.6519 731.991 46.2431ZM735.179 55.2652H725.687V49.779H735.179V55.2652ZM733.229 51.337H727.648V53.7017H733.229V51.337ZM740.736 44.4144H748.576V45.9834H738.747V41.5083H748.466V43.0884H740.736V44.4144ZM737.129 48.337V46.7735H750.123V48.337H737.129ZM748.515 52.884H740.593V53.7735H748.885V55.3149H738.637V51.4641H746.548V50.674H738.626V49.1657H748.515V52.884Z" fill="white"/>
<path d="M642.309 75.442V61.2099H644.326V75.442H642.309ZM637.928 64.2155V65.0884C637.928 67.3923 639.116 69.8508 641.497 70.8398L640.425 72.4033C638.746 71.6961 637.591 70.2818 636.95 68.558C636.309 70.4309 635.133 71.989 633.453 72.7569L632.32 71.1934C634.674 70.1381 635.895 67.5028 635.901 65.0884V64.2155H632.878V62.5856H640.906V64.2155H637.928ZM657.381 66.9669H659.259V68.5746H646.254V66.9669H655.37C655.679 65.5525 655.723 64.453 655.734 63.4586H647.845V61.8674H657.723V63C657.723 64.105 657.723 65.337 657.381 66.9669ZM657.668 75.2818H647.789V70.0829H657.668V75.2818ZM655.684 71.6409H649.745V73.6851H655.684V71.6409ZM674.985 66.5359H677.084V68.1989H674.985V75.442H672.99V61.2099H674.985V66.5359ZM666.206 65.8066H669.161V62.3536H671.15V72.1436H664.217V62.3536H666.206V65.8066ZM666.206 70.5249H669.161V67.3591H666.206V70.5249ZM685.056 70.0718V72.221H690.603V73.8508H677.597V72.221H683.083V70.0718H679.095V65.2873H687.133V63.7403H679.072V62.1381H689.106V66.8508H681.083V68.453H689.437V70.0718H685.056ZM706.395 61.2099V64.5414H708.306V66.1934H706.395V69.6519H704.395V61.2099H706.395ZM699.312 66.3646C698.699 67.7956 697.594 68.9227 695.969 69.4751L694.897 67.9116C697.268 67.116 698.284 65.221 698.295 63.2597V61.9724H700.29V63.453C700.29 65.1768 701.295 66.8343 703.544 67.5249L702.489 69.0773C700.975 68.5801 699.925 67.6077 699.312 66.3646ZM701.726 69.9448C704.676 69.9392 706.527 70.9613 706.527 72.6796C706.527 74.4309 704.676 75.442 701.726 75.4365C698.732 75.442 696.853 74.4309 696.859 72.6796C696.853 70.9613 698.732 69.9392 701.726 69.9448ZM701.726 73.8785C703.577 73.8729 704.56 73.4917 704.56 72.6796C704.56 71.9116 703.577 71.4972 701.726 71.4972C699.864 71.4972 698.848 71.9116 698.853 72.6796C698.848 73.4917 699.864 73.8729 701.726 73.8785ZM710.173 65.3702H711.924V63.2099H710.079V61.6077H720.748V63.2099H718.897V65.3702H720.654V66.9669H710.173V65.3702ZM713.913 65.3702H716.891V63.2099H713.913V65.3702ZM721.913 67.8785V69.453H716.4V70.674H720.355V75.2818H710.444V70.674H714.416V69.453H708.941V67.8785H721.913ZM712.405 73.6851H718.411V72.2155H712.405V73.6851ZM733.847 68.0994H735.742V69.7072H730.195V75.453H728.184V69.7072H722.769V68.0994H731.835C732.195 66.2597 732.228 64.8674 732.233 63.6354H724.255V62.0497H734.217V63.326C734.211 64.6519 734.211 66.105 733.847 68.0994ZM746.592 65.0829H743.531C742.647 67.3315 740.625 68.8785 737.498 69.7293L736.719 68.1602C739.99 67.3039 741.592 65.7348 741.879 63.7845H737.481V62.1823H744.045C744.045 62.6409 744.012 63.0829 743.951 63.5083H746.592V61.232H748.581V69.4309H746.592V68.0331H743.398V66.4309H746.592V65.0829ZM743.84 69.5967C746.724 69.6022 748.675 70.7072 748.686 72.4751C748.675 74.2541 746.724 75.3757 743.84 75.3757C740.923 75.3757 738.973 74.2541 738.979 72.4751C738.973 70.7072 740.923 69.6022 743.84 69.5967ZM743.84 73.7956C745.608 73.7956 746.68 73.3481 746.686 72.4751C746.68 71.5967 745.608 71.1436 743.84 71.1492C742.039 71.1436 740.967 71.5967 740.973 72.4751C740.967 73.3481 742.039 73.7956 743.84 73.7956Z" fill="white"/>
</svg>
