<svg width="459" height="37" viewBox="0 0 459 37" fill="none" xmlns="http://www.w3.org/2000/svg">
<path d="M12.064 10.944V16.704H26.08V25.248H12.064V36H0.736V2.4H28.048V10.944H12.064ZM43.7339 36.48C40.8219 36.48 38.1979 35.904 35.8619 34.752C33.5579 33.568 31.7499 31.952 30.4379 29.904C29.1259 27.824 28.4699 25.472 28.4699 22.848C28.4699 20.224 29.1259 17.888 30.4379 15.84C31.7499 13.76 33.5579 12.144 35.8619 10.992C38.1979 9.84 40.8219 9.264 43.7339 9.264C46.6779 9.264 49.3019 9.84 51.6059 10.992C53.9419 12.144 55.7499 13.76 57.0299 15.84C58.3419 17.888 58.9979 20.224 58.9979 22.848C58.9979 25.472 58.3419 27.824 57.0299 29.904C55.7499 31.952 53.9419 33.568 51.6059 34.752C49.3019 35.904 46.6779 36.48 43.7339 36.48ZM43.7339 28.032C44.9819 28.032 46.0059 27.584 46.8059 26.688C47.6059 25.76 48.0059 24.48 48.0059 22.848C48.0059 21.216 47.6059 19.952 46.8059 19.056C46.0059 18.16 44.9819 17.712 43.7339 17.712C42.4859 17.712 41.4619 18.16 40.6619 19.056C39.8619 19.952 39.4619 21.216 39.4619 22.848C39.4619 24.48 39.8619 25.76 40.6619 26.688C41.4619 27.584 42.4859 28.032 43.7339 28.032ZM61.4331 0.383998H72.2811V36H61.4331V0.383998ZM76.1294 0.383998H86.9774V36H76.1294V0.383998ZM104.698 36.48C101.786 36.48 99.1616 35.904 96.8256 34.752C94.5216 33.568 92.7136 31.952 91.4016 29.904C90.0896 27.824 89.4336 25.472 89.4336 22.848C89.4336 20.224 90.0896 17.888 91.4016 15.84C92.7136 13.76 94.5216 12.144 96.8256 10.992C99.1616 9.84 101.786 9.264 104.698 9.264C107.642 9.264 110.266 9.84 112.57 10.992C114.906 12.144 116.714 13.76 117.994 15.84C119.306 17.888 119.962 20.224 119.962 22.848C119.962 25.472 119.306 27.824 117.994 29.904C116.714 31.952 114.906 33.568 112.57 34.752C110.266 35.904 107.642 36.48 104.698 36.48ZM104.698 28.032C105.946 28.032 106.97 27.584 107.77 26.688C108.57 25.76 108.97 24.48 108.97 22.848C108.97 21.216 108.57 19.952 107.77 19.056C106.97 18.16 105.946 17.712 104.698 17.712C103.45 17.712 102.426 18.16 101.626 19.056C100.826 19.952 100.426 21.216 100.426 22.848C100.426 24.48 100.826 25.76 101.626 26.688C102.426 27.584 103.45 28.032 104.698 28.032ZM166.478 9.744L157.358 36H146.798L142.814 23.856L138.686 36H128.126L119.006 9.744H129.278L133.79 23.616L138.494 9.744H147.71L152.27 23.76L156.974 9.744H166.478ZM194.842 22.848C194.842 23.008 194.794 23.856 194.698 25.392H176.458C176.842 26.384 177.482 27.152 178.378 27.696C179.274 28.208 180.394 28.464 181.738 28.464C182.89 28.464 183.85 28.32 184.618 28.032C185.418 27.744 186.282 27.248 187.21 26.544L192.874 32.256C190.314 35.072 186.49 36.48 181.402 36.48C178.234 36.48 175.45 35.904 173.05 34.752C170.65 33.568 168.794 31.936 167.482 29.856C166.17 27.776 165.514 25.44 165.514 22.848C165.514 20.224 166.154 17.888 167.434 15.84C168.746 13.76 170.522 12.144 172.762 10.992C175.034 9.84 177.578 9.264 180.394 9.264C183.05 9.264 185.466 9.792 187.642 10.848C189.85 11.904 191.594 13.456 192.874 15.504C194.186 17.552 194.842 20 194.842 22.848ZM180.49 16.656C179.37 16.656 178.442 16.96 177.706 17.568C176.97 18.176 176.49 19.04 176.266 20.16H184.714C184.49 19.072 184.01 18.224 183.274 17.616C182.538 16.976 181.61 16.656 180.49 16.656ZM207.625 12.576C209.545 10.368 212.377 9.264 216.121 9.264V18.864C215.257 18.736 214.457 18.672 213.721 18.672C210.009 18.672 208.153 20.56 208.153 24.336V36H197.305V9.744H207.625V12.576ZM248.178 2.4C251.282 2.4 253.986 2.912 256.29 3.936C258.594 4.96 260.37 6.432 261.618 8.352C262.866 10.272 263.49 12.512 263.49 15.072C263.49 17.632 262.866 19.872 261.618 21.792C260.37 23.712 258.594 25.184 256.29 26.208C253.986 27.232 251.282 27.744 248.178 27.744H243.33V36H232.002V2.4H248.178ZM247.458 19.008C248.994 19.008 250.146 18.672 250.914 18C251.682 17.296 252.066 16.32 252.066 15.072C252.066 13.824 251.682 12.864 250.914 12.192C250.146 11.488 248.994 11.136 247.458 11.136H243.33V19.008H247.458ZM276.698 12.576C278.618 10.368 281.45 9.264 285.194 9.264V18.864C284.33 18.736 283.53 18.672 282.794 18.672C279.082 18.672 277.226 20.56 277.226 24.336V36H266.378V9.744H276.698V12.576ZM300.946 36.48C298.034 36.48 295.41 35.904 293.074 34.752C290.77 33.568 288.962 31.952 287.65 29.904C286.338 27.824 285.682 25.472 285.682 22.848C285.682 20.224 286.338 17.888 287.65 15.84C288.962 13.76 290.77 12.144 293.074 10.992C295.41 9.84 298.034 9.264 300.946 9.264C303.89 9.264 306.514 9.84 308.818 10.992C311.154 12.144 312.962 13.76 314.242 15.84C315.554 17.888 316.21 20.224 316.21 22.848C316.21 25.472 315.554 27.824 314.242 29.904C312.962 31.952 311.154 33.568 308.818 34.752C306.514 35.904 303.89 36.48 300.946 36.48ZM300.946 28.032C302.194 28.032 303.218 27.584 304.018 26.688C304.818 25.76 305.218 24.48 305.218 22.848C305.218 21.216 304.818 19.952 304.018 19.056C303.218 18.16 302.194 17.712 300.946 17.712C299.698 17.712 298.674 18.16 297.874 19.056C297.074 19.952 296.674 21.216 296.674 22.848C296.674 24.48 297.074 25.76 297.874 26.688C298.674 27.584 299.698 28.032 300.946 28.032ZM347.686 0.383998V36H337.366V33.84C335.798 35.6 333.398 36.48 330.166 36.48C327.862 36.48 325.734 35.936 323.782 34.848C321.862 33.728 320.326 32.128 319.174 30.048C318.054 27.968 317.494 25.568 317.494 22.848C317.494 20.128 318.054 17.744 319.174 15.696C320.326 13.616 321.862 12.032 323.782 10.944C325.734 9.824 327.862 9.264 330.166 9.264C333.078 9.264 335.302 10.016 336.838 11.52V0.383998H347.686ZM332.758 28.032C334.006 28.032 335.03 27.584 335.83 26.688C336.63 25.76 337.03 24.48 337.03 22.848C337.03 21.216 336.63 19.952 335.83 19.056C335.03 18.16 334.006 17.712 332.758 17.712C331.51 17.712 330.486 18.16 329.686 19.056C328.886 19.952 328.486 21.216 328.486 22.848C328.486 24.48 328.886 25.76 329.686 26.688C330.486 27.584 331.51 28.032 332.758 28.032ZM380.233 9.744V36H369.913V33.504C368.953 34.496 367.833 35.248 366.553 35.76C365.273 36.24 363.913 36.48 362.473 36.48C359.145 36.48 356.473 35.472 354.457 33.456C352.441 31.408 351.433 28.336 351.433 24.24V9.744H362.281V22.368C362.281 24.16 362.569 25.44 363.145 26.208C363.721 26.976 364.569 27.36 365.689 27.36C366.745 27.36 367.625 26.944 368.329 26.112C369.033 25.248 369.385 23.904 369.385 22.08V9.744H380.233ZM398.197 36.48C395.221 36.48 392.549 35.904 390.181 34.752C387.845 33.6 386.005 31.984 384.661 29.904C383.349 27.824 382.693 25.472 382.693 22.848C382.693 20.224 383.349 17.888 384.661 15.84C386.005 13.76 387.845 12.144 390.181 10.992C392.549 9.84 395.221 9.264 398.197 9.264C401.397 9.264 404.133 9.952 406.405 11.328C408.677 12.704 410.245 14.608 411.109 17.04L402.709 21.168C401.685 18.864 400.165 17.712 398.149 17.712C396.869 17.712 395.797 18.16 394.933 19.056C394.101 19.952 393.685 21.216 393.685 22.848C393.685 24.512 394.101 25.792 394.933 26.688C395.797 27.584 396.869 28.032 398.149 28.032C400.165 28.032 401.685 26.88 402.709 24.576L411.109 28.704C410.245 31.136 408.677 33.04 406.405 34.416C404.133 35.792 401.397 36.48 398.197 36.48ZM432.469 35.088C430.837 36.016 428.613 36.48 425.797 36.48C422.117 36.48 419.285 35.6 417.301 33.84C415.317 32.048 414.325 29.376 414.325 25.824V19.104H410.725V11.184H414.325V3.84H425.173V11.184H430.549V19.104H425.173V25.728C425.173 26.528 425.381 27.152 425.797 27.6C426.213 28.048 426.757 28.272 427.429 28.272C428.357 28.272 429.173 28.032 429.877 27.552L432.469 35.088ZM444.515 36.48C442.275 36.48 440.067 36.24 437.891 35.76C435.715 35.28 433.955 34.656 432.611 33.888L435.587 26.736C436.803 27.472 438.243 28.048 439.907 28.464C441.571 28.88 443.187 29.088 444.755 29.088C446.003 29.088 446.867 28.992 447.347 28.8C447.859 28.576 448.115 28.256 448.115 27.84C448.115 27.424 447.795 27.136 447.155 26.976C446.547 26.816 445.539 26.656 444.131 26.496C441.987 26.24 440.163 25.92 438.659 25.536C437.155 25.12 435.827 24.336 434.675 23.184C433.555 22.032 432.995 20.384 432.995 18.24C432.995 16.544 433.507 15.024 434.531 13.68C435.555 12.336 437.075 11.264 439.091 10.464C441.139 9.664 443.587 9.264 446.435 9.264C448.419 9.264 450.355 9.456 452.243 9.84C454.163 10.192 455.795 10.72 457.139 11.424L454.163 18.576C451.859 17.296 449.331 16.656 446.579 16.656C444.211 16.656 443.027 17.072 443.027 17.904C443.027 18.32 443.347 18.624 443.987 18.816C444.627 18.976 445.635 19.136 447.011 19.296C449.155 19.552 450.963 19.888 452.435 20.304C453.939 20.72 455.251 21.504 456.371 22.656C457.523 23.808 458.099 25.456 458.099 27.6C458.099 29.232 457.587 30.72 456.563 32.064C455.539 33.408 454.003 34.48 451.955 35.28C449.907 36.08 447.427 36.48 444.515 36.48Z" fill="black"/>
</svg>
