<svg width="100" height="100" viewBox="0 0 100 100" fill="none" xmlns="http://www.w3.org/2000/svg">
<path fill-rule="evenodd" clip-rule="evenodd" d="M25.0019 75.0024C31.9047 81.9052 43.0956 81.9065 50 75.0061C56.9044 81.9065 68.0952 81.9052 74.9981 75.0024C81.9021 68.0982 81.9021 56.9045 74.9981 50.0004C81.9021 43.0962 81.9021 31.9025 74.9981 24.9983C68.0952 18.0955 56.9044 18.0942 50 24.9946C43.0956 18.0942 31.9048 18.0955 25.0019 24.9983C18.0979 31.9024 18.0979 43.0962 25.0019 50.0003C18.0979 56.9045 18.0979 68.0982 25.0019 75.0024Z" fill="#E2E2E2"/>
<circle cx="11.786" cy="11.786" r="11.786" transform="matrix(0.707103 0.707111 -0.707103 0.707111 50 33.3301)" fill="white"/>
</svg>
