<svg width="169" height="74" viewBox="0 0 169 74" fill="none" xmlns="http://www.w3.org/2000/svg">
<path d="M30.07 42.058H27.838L29.884 32.262H47.12L42.966 51.854C36.952 55.636 29.946 57.93 22.754 57.93C10.292 57.93 1.736 50.056 1.736 39.64C1.736 23.954 14.074 12.67 31 12.67C37.758 12.67 43.772 14.096 48.36 17.072L39.246 30.03C36.456 27.736 33.108 26.558 29.884 26.558C23.188 26.558 18.972 31.146 18.972 37.284C18.972 41.438 21.452 44.042 25.296 44.042C27.156 44.042 28.644 43.918 29.698 43.67L30.07 42.058Z" fill="#D3D3D3"/>
<path d="M30.07 42.058L31.0444 42.2829L31.3271 41.058H30.07V42.058ZM27.838 42.058L26.8591 41.8535L26.6076 43.058H27.838V42.058ZM29.884 32.262V31.262H29.0713L28.9051 32.0576L29.884 32.262ZM47.12 32.262L48.0983 32.4694L48.3543 31.262H47.12V32.262ZM42.966 51.854L43.4984 52.7005L43.8565 52.4753L43.9443 52.0614L42.966 51.854ZM48.36 17.072L49.1779 17.6473L49.7753 16.7981L48.9042 16.233L48.36 17.072ZM39.246 30.03L38.6109 30.8024L39.4437 31.4872L40.0639 30.6053L39.246 30.03ZM29.698 43.67L29.927 44.6434L30.5325 44.5009L30.6724 43.8949L29.698 43.67ZM30.07 41.058H27.838V43.058H30.07V41.058ZM28.8169 42.2624L30.8629 32.4664L28.9051 32.0576L26.8591 41.8535L28.8169 42.2624ZM29.884 33.262H47.12V31.262H29.884V33.262ZM46.1418 32.0546L41.9877 51.6466L43.9443 52.0614L48.0983 32.4694L46.1418 32.0546ZM42.4337 51.0075C36.5577 54.7026 29.7339 56.93 22.754 56.93V58.93C30.1581 58.93 37.3463 56.5694 43.4984 52.7005L42.4337 51.0075ZM22.754 56.93C10.7256 56.93 2.736 49.3921 2.736 39.64H0.736C0.736 50.7199 9.85838 58.93 22.754 58.93V56.93ZM2.736 39.64C2.736 24.5836 14.5456 13.67 31 13.67V11.67C13.6024 11.67 0.736 23.3244 0.736 39.64H2.736ZM31 13.67C37.6295 13.67 43.4367 15.0705 47.8158 17.911L48.9042 16.233C44.1073 13.1215 37.8865 11.67 31 11.67V13.67ZM47.5421 16.4967L38.4281 29.4547L40.0639 30.6053L49.1779 17.6473L47.5421 16.4967ZM39.8811 29.2576C36.9195 26.8225 33.349 25.558 29.884 25.558V27.558C32.867 27.558 35.9925 28.6495 38.6109 30.8024L39.8811 29.2576ZM29.884 25.558C26.2996 25.558 23.3051 26.7911 21.2056 28.9165C19.1091 31.0387 17.972 33.9827 17.972 37.284H19.972C19.972 34.4473 20.9429 32.0283 22.6284 30.322C24.3109 28.6189 26.7724 27.558 29.884 27.558V25.558ZM17.972 37.284C17.972 39.5588 18.6537 41.5125 19.964 42.9058C21.2802 44.3055 23.1397 45.042 25.296 45.042V43.042C23.6083 43.042 22.3058 42.4765 21.421 41.5357C20.5303 40.5885 19.972 39.1632 19.972 37.284H17.972ZM25.296 45.042C27.185 45.042 28.7624 44.9175 29.927 44.6434L29.469 42.6966C28.5256 42.9185 27.127 43.042 25.296 43.042V45.042ZM30.6724 43.8949L31.0444 42.2829L29.0956 41.8331L28.7236 43.4451L30.6724 43.8949Z" fill="#F2F2F2"/>
<path d="M166.444 18.8H150.014L151.998 9.5H168.428L166.444 18.8ZM158.384 56H142.388L149.828 20.908H165.824L158.384 56Z" fill="#D3D3D3"/>
<path d="M166.444 18.8V19.8H167.253L167.422 19.0086L166.444 18.8ZM150.014 18.8L149.036 18.5914L148.778 19.8H150.014V18.8ZM151.998 9.5V8.5H151.189L151.02 9.29136L151.998 9.5ZM168.428 9.5L169.406 9.70863L169.664 8.5H168.428V9.5ZM158.384 56V57H159.194L159.362 56.2074L158.384 56ZM142.388 56L141.41 55.7926L141.154 57H142.388V56ZM149.828 20.908V19.908H149.018L148.85 20.7006L149.828 20.908ZM165.824 20.908L166.802 21.1154L167.058 19.908H165.824V20.908ZM166.444 17.8H150.014V19.8H166.444V17.8ZM150.992 19.0086L152.976 9.70863L151.02 9.29136L149.036 18.5914L150.992 19.0086ZM151.998 10.5H168.428V8.5H151.998V10.5ZM167.45 9.29136L165.466 18.5914L167.422 19.0086L169.406 9.70863L167.45 9.29136ZM158.384 55H142.388V57H158.384V55ZM143.366 56.2074L150.806 21.1154L148.85 20.7006L141.41 55.7926L143.366 56.2074ZM149.828 21.908H165.824V19.908H149.828V21.908ZM164.846 20.7006L157.406 55.7926L159.362 56.2074L166.802 21.1154L164.846 20.7006Z" fill="#F2F2F2"/>
<path d="M114.834 56.868C106.898 56.868 102.186 51.226 102.186 43.29C102.186 32.75 110.308 19.978 122.522 19.978C125.994 19.978 128.908 21.094 131.016 24.256L133.992 10.244H149.988L140.254 56H124.258L125.002 52.59C121.592 55.752 118.182 56.868 114.834 56.868ZM122.088 43.972C125.374 43.972 127.42 41.12 127.978 38.392C128.722 35.478 127.358 32.874 124.444 32.874C120.29 32.874 118.554 37.276 118.554 40.128C118.554 42.422 119.794 43.972 122.088 43.972Z" fill="#D3D3D3"/>
<path d="M131.016 24.256L130.184 24.8107L131.501 26.7862L131.994 24.4638L131.016 24.256ZM133.992 10.244V9.244H133.182L133.014 10.0362L133.992 10.244ZM149.988 10.244L150.966 10.4521L151.223 9.244H149.988V10.244ZM140.254 56V57H141.064L141.232 56.2081L140.254 56ZM124.258 56L123.281 55.7868L123.016 57H124.258V56ZM125.002 52.59L125.979 52.8032L126.658 49.6906L124.322 51.8567L125.002 52.59ZM127.978 38.392L127.009 38.1446L127.003 38.168L126.998 38.1916L127.978 38.392ZM114.834 55.868C111.117 55.868 108.236 54.5549 106.276 52.3847C104.305 50.2024 103.186 47.0642 103.186 43.29H101.186C101.186 47.4518 102.423 51.1026 104.792 53.7253C107.172 56.3601 110.615 57.868 114.834 57.868V55.868ZM103.186 43.29C103.186 38.2553 105.134 32.6433 108.559 28.3007C111.976 23.9684 116.793 20.978 122.522 20.978V18.978C116.037 18.978 110.686 22.3736 106.989 27.0622C103.299 31.7407 101.186 37.7847 101.186 43.29H103.186ZM122.522 20.978C125.738 20.978 128.301 21.9865 130.184 24.8107L131.848 23.7013C129.515 20.2015 126.25 18.978 122.522 18.978V20.978ZM131.994 24.4638L134.97 10.4518L133.014 10.0362L130.038 24.0482L131.994 24.4638ZM133.992 11.244H149.988V9.244H133.992V11.244ZM149.01 10.0359L139.276 55.7919L141.232 56.2081L150.966 10.4521L149.01 10.0359ZM140.254 55H124.258V57H140.254V55ZM125.235 56.2132L125.979 52.8032L124.025 52.3768L123.281 55.7868L125.235 56.2132ZM124.322 51.8567C121.092 54.8515 117.924 55.868 114.834 55.868V57.868C118.44 57.868 122.092 56.6525 125.682 53.3233L124.322 51.8567ZM122.088 44.972C126.056 44.972 128.353 41.5475 128.958 38.5924L126.998 38.1916C126.487 40.6925 124.692 42.972 122.088 42.972V44.972ZM128.947 38.6394C129.37 36.984 129.219 35.3172 128.439 34.0238C127.637 32.6945 126.235 31.874 124.444 31.874V33.874C125.567 33.874 126.304 34.3555 126.726 35.0567C127.171 35.7938 127.33 36.886 127.009 38.1446L128.947 38.6394ZM124.444 31.874C121.952 31.874 120.196 33.216 119.104 34.884C118.032 36.5229 117.554 38.5317 117.554 40.128H119.554C119.554 38.8723 119.944 37.2541 120.778 35.979C121.593 34.733 122.782 33.874 124.444 33.874V31.874ZM117.554 40.128C117.554 41.4465 117.911 42.668 118.712 43.573C119.528 44.4952 120.703 44.972 122.088 44.972V42.972C121.179 42.972 120.587 42.6738 120.21 42.2475C119.817 41.804 119.554 41.1035 119.554 40.128H117.554Z" fill="#F2F2F2"/>
<path d="M58.096 56.93C46.316 56.93 39.62 50.916 39.62 40.996C39.62 29.464 49.85 19.978 63.49 19.978C75.208 19.978 81.904 25.868 81.904 35.726C81.904 47.32 71.674 56.93 58.096 56.93ZM60.266 43.91C63.924 43.91 65.536 40.438 65.536 37.524C65.536 34.548 63.552 32.936 61.32 32.936C58.22 32.936 56.05 35.354 56.05 39.26C56.05 42.298 58.034 43.91 60.266 43.91Z" fill="#D3D3D3"/>
<path d="M58.096 55.93C52.3658 55.93 48.0086 54.4674 45.0977 51.9293C42.2051 49.4072 40.62 45.7186 40.62 40.996H38.62C38.62 46.1934 40.3829 50.4718 43.7833 53.4367C47.1654 56.3856 52.0462 57.93 58.096 57.93V55.93ZM40.62 40.996C40.62 30.1182 50.2946 20.978 63.49 20.978V18.978C49.4054 18.978 38.62 28.8098 38.62 40.996H40.62ZM63.49 20.978C69.1929 20.978 73.5358 22.4115 76.4385 24.9128C79.3208 27.3966 80.904 31.0369 80.904 35.726H82.904C82.904 30.5571 81.1392 26.3234 77.744 23.3977C74.3692 20.4895 69.5051 18.978 63.49 18.978V20.978ZM80.904 35.726C80.904 46.6764 71.2177 55.93 58.096 55.93V57.93C72.1303 57.93 82.904 47.9636 82.904 35.726H80.904ZM60.266 44.91C62.4626 44.91 64.0701 43.847 65.0927 42.3822C66.0921 40.9507 66.536 39.1438 66.536 37.524H64.536C64.536 38.8182 64.1739 40.2043 63.4528 41.2373C62.7549 42.237 61.7274 42.91 60.266 42.91V44.91ZM66.536 37.524C66.536 35.8046 65.9573 34.392 64.9721 33.4069C63.9934 32.4281 62.6774 31.936 61.32 31.936V33.936C62.1946 33.936 62.9866 34.2499 63.5579 34.8211C64.1227 35.386 64.536 36.2674 64.536 37.524H66.536ZM61.32 31.936C59.4917 31.936 57.8904 32.6581 56.761 33.9851C55.6433 35.2984 55.05 37.1273 55.05 39.26H57.05C57.05 37.4867 57.5417 36.1536 58.284 35.2814C59.0146 34.4229 60.0483 33.936 61.32 33.936V31.936ZM55.05 39.26C55.05 41.0047 55.625 42.4326 56.6104 43.4278C57.5901 44.4174 58.9082 44.91 60.266 44.91V42.91C59.3919 42.91 58.6019 42.5966 58.0316 42.0207C57.467 41.4504 57.05 40.5532 57.05 39.26H55.05Z" fill="#F2F2F2"/>
<path d="M88.096 56.93C76.316 56.93 69.62 50.916 69.62 40.996C69.62 29.464 79.85 19.978 93.49 19.978C105.208 19.978 111.904 25.868 111.904 35.726C111.904 47.32 101.674 56.93 88.096 56.93ZM90.266 43.91C93.924 43.91 95.536 40.438 95.536 37.524C95.536 34.548 93.552 32.936 91.32 32.936C88.22 32.936 86.05 35.354 86.05 39.26C86.05 42.298 88.034 43.91 90.266 43.91Z" fill="#D3D3D3"/>
<path d="M88.096 55.93C82.3658 55.93 78.0086 54.4674 75.0977 51.9293C72.2051 49.4072 70.62 45.7186 70.62 40.996H68.62C68.62 46.1934 70.3829 50.4718 73.7833 53.4367C77.1654 56.3856 82.0462 57.93 88.096 57.93V55.93ZM70.62 40.996C70.62 30.1182 80.2946 20.978 93.49 20.978V18.978C79.4054 18.978 68.62 28.8098 68.62 40.996H70.62ZM93.49 20.978C99.1929 20.978 103.536 22.4115 106.438 24.9128C109.321 27.3966 110.904 31.0369 110.904 35.726H112.904C112.904 30.5571 111.139 26.3234 107.744 23.3977C104.369 20.4895 99.5051 18.978 93.49 18.978V20.978ZM110.904 35.726C110.904 46.6764 101.218 55.93 88.096 55.93V57.93C102.13 57.93 112.904 47.9636 112.904 35.726H110.904ZM90.266 44.91C92.4626 44.91 94.0701 43.847 95.0927 42.3822C96.0921 40.9507 96.536 39.1438 96.536 37.524H94.536C94.536 38.8182 94.1739 40.2043 93.4528 41.2373C92.7549 42.237 91.7274 42.91 90.266 42.91V44.91ZM96.536 37.524C96.536 35.8046 95.9573 34.392 94.9721 33.4069C93.9934 32.4281 92.6774 31.936 91.32 31.936V33.936C92.1946 33.936 92.9866 34.2499 93.5579 34.8211C94.1227 35.386 94.536 36.2674 94.536 37.524H96.536ZM91.32 31.936C89.4917 31.936 87.8904 32.6581 86.761 33.9851C85.6433 35.2984 85.05 37.1273 85.05 39.26H87.05C87.05 37.4867 87.5417 36.1536 88.284 35.2814C89.0146 34.4229 90.0483 33.936 91.32 33.936V31.936ZM85.05 39.26C85.05 41.0047 85.625 42.4326 86.6104 43.4278C87.5901 44.4174 88.9082 44.91 90.266 44.91V42.91C89.3919 42.91 88.6019 42.5966 88.0316 42.0207C87.467 41.4504 87.05 40.5532 87.05 39.26H85.05Z" fill="#F2F2F2"/>
<path fill-rule="evenodd" clip-rule="evenodd" d="M82.9997 47.0008C85.2089 49.21 88.7907 49.2101 91 47.001C93.2093 49.2101 96.7911 49.21 99.0003 47.0008C101.21 44.7915 101.21 41.2096 99.0003 39.0003C101.21 36.791 101.21 33.2091 99.0003 30.9998C96.7911 28.7906 93.2093 28.7905 91 30.9995C88.7907 28.7905 85.2089 28.7906 82.9997 30.9998C80.7904 33.2091 80.7904 36.791 82.9997 39.0003C80.7904 41.2096 80.7904 44.7915 82.9997 47.0008Z" fill="#F2F2F2"/>
<circle cx="91" cy="38.9999" r="3.77148" transform="rotate(45 91 38.9999)" fill="#D3D3D3"/>
</svg>
