<svg width="166" height="51" viewBox="0 0 166 51" fill="none" xmlns="http://www.w3.org/2000/svg">
<path fill-rule="evenodd" clip-rule="evenodd" d="M166 0H18.1752L0 32L0.000226706 32L21.8613 50.75L16.8613 32H166V0Z" fill="#49ED3F"/>
<path d="M34.42 23.2C33.3267 23.2 32.32 23.0267 31.4 22.68C30.4933 22.32 29.7 21.82 29.02 21.18C28.34 20.5267 27.8133 19.76 27.44 18.88C27.0667 18 26.88 17.04 26.88 16C26.88 14.96 27.0667 14 27.44 13.12C27.8133 12.24 28.34 11.48 29.02 10.84C29.7133 10.1867 30.52 9.68667 31.44 9.34C32.36 8.98 33.3667 8.8 34.46 8.8C35.6467 8.8 36.7133 8.99333 37.66 9.38C38.62 9.76667 39.4267 10.3333 40.08 11.08L38.44 12.68C37.8933 12.1333 37.3 11.7333 36.66 11.48C36.0333 11.2133 35.34 11.08 34.58 11.08C33.8467 11.08 33.1667 11.2 32.54 11.44C31.9133 11.68 31.3733 12.02 30.92 12.46C30.4667 12.9 30.1133 13.42 29.86 14.02C29.62 14.62 29.5 15.28 29.5 16C29.5 16.7067 29.62 17.36 29.86 17.96C30.1133 18.56 30.4667 19.0867 30.92 19.54C31.3733 19.98 31.9067 20.32 32.52 20.56C33.1333 20.8 33.8133 20.92 34.56 20.92C35.2533 20.92 35.92 20.8133 36.56 20.6C37.2133 20.3733 37.8333 20 38.42 19.48L39.9 21.42C39.1667 22.0067 38.3133 22.4533 37.34 22.76C36.38 23.0533 35.4067 23.2 34.42 23.2ZM37.44 21.08V15.84H39.9V21.42L37.44 21.08ZM47.4892 23.14C46.3959 23.14 45.4226 22.9067 44.5692 22.44C43.7159 21.96 43.0426 21.3067 42.5492 20.48C42.0559 19.6533 41.8092 18.7133 41.8092 17.66C41.8092 16.5933 42.0559 15.6533 42.5492 14.84C43.0426 14.0133 43.7159 13.3667 44.5692 12.9C45.4226 12.4333 46.3959 12.2 47.4892 12.2C48.5959 12.2 49.5759 12.4333 50.4292 12.9C51.2959 13.3667 51.9692 14.0067 52.4492 14.82C52.9426 15.6333 53.1892 16.58 53.1892 17.66C53.1892 18.7133 52.9426 19.6533 52.4492 20.48C51.9692 21.3067 51.2959 21.96 50.4292 22.44C49.5759 22.9067 48.5959 23.14 47.4892 23.14ZM47.4892 21C48.1026 21 48.6492 20.8667 49.1292 20.6C49.6092 20.3333 49.9826 19.9467 50.2492 19.44C50.5292 18.9333 50.6692 18.34 50.6692 17.66C50.6692 16.9667 50.5292 16.3733 50.2492 15.88C49.9826 15.3733 49.6092 14.9867 49.1292 14.72C48.6492 14.4533 48.1092 14.32 47.5092 14.32C46.8959 14.32 46.3492 14.4533 45.8692 14.72C45.4026 14.9867 45.0292 15.3733 44.7492 15.88C44.4692 16.3733 44.3292 16.9667 44.3292 17.66C44.3292 18.34 44.4692 18.9333 44.7492 19.44C45.0292 19.9467 45.4026 20.3333 45.8692 20.6C46.3492 20.8667 46.8892 21 47.4892 21ZM59.9798 23.14C58.8865 23.14 57.9132 22.9067 57.0598 22.44C56.2065 21.96 55.5332 21.3067 55.0398 20.48C54.5465 19.6533 54.2998 18.7133 54.2998 17.66C54.2998 16.5933 54.5465 15.6533 55.0398 14.84C55.5332 14.0133 56.2065 13.3667 57.0598 12.9C57.9132 12.4333 58.8865 12.2 59.9798 12.2C61.0865 12.2 62.0665 12.4333 62.9198 12.9C63.7865 13.3667 64.4598 14.0067 64.9398 14.82C65.4332 15.6333 65.6798 16.58 65.6798 17.66C65.6798 18.7133 65.4332 19.6533 64.9398 20.48C64.4598 21.3067 63.7865 21.96 62.9198 22.44C62.0665 22.9067 61.0865 23.14 59.9798 23.14ZM59.9798 21C60.5932 21 61.1398 20.8667 61.6198 20.6C62.0998 20.3333 62.4732 19.9467 62.7398 19.44C63.0198 18.9333 63.1598 18.34 63.1598 17.66C63.1598 16.9667 63.0198 16.3733 62.7398 15.88C62.4732 15.3733 62.0998 14.9867 61.6198 14.72C61.1398 14.4533 60.5998 14.32 59.9998 14.32C59.3865 14.32 58.8398 14.4533 58.3598 14.72C57.8932 14.9867 57.5198 15.3733 57.2398 15.88C56.9598 16.3733 56.8198 16.9667 56.8198 17.66C56.8198 18.34 56.9598 18.9333 57.2398 19.44C57.5198 19.9467 57.8932 20.3333 58.3598 20.6C58.8398 20.8667 59.3798 21 59.9798 21ZM72.1905 23.14C71.1638 23.14 70.2371 22.9133 69.4105 22.46C68.5971 21.9933 67.9571 21.3533 67.4905 20.54C67.0238 19.7267 66.7905 18.7667 66.7905 17.66C66.7905 16.5533 67.0238 15.5933 67.4905 14.78C67.9571 13.9667 68.5971 13.3333 69.4105 12.88C70.2371 12.4267 71.1638 12.2 72.1905 12.2C73.0838 12.2 73.8838 12.4 74.5905 12.8C75.2971 13.1867 75.8571 13.78 76.2705 14.58C76.6838 15.38 76.8905 16.4067 76.8905 17.66C76.8905 18.9 76.6905 19.9267 76.2905 20.74C75.8905 21.54 75.3371 22.14 74.6305 22.54C73.9238 22.94 73.1105 23.14 72.1905 23.14ZM72.4905 21C73.0905 21 73.6238 20.8667 74.0905 20.6C74.5705 20.3333 74.9505 19.9467 75.2305 19.44C75.5238 18.9333 75.6705 18.34 75.6705 17.66C75.6705 16.9667 75.5238 16.3733 75.2305 15.88C74.9505 15.3733 74.5705 14.9867 74.0905 14.72C73.6238 14.4533 73.0905 14.32 72.4905 14.32C71.8905 14.32 71.3505 14.4533 70.8705 14.72C70.4038 14.9867 70.0238 15.3733 69.7305 15.88C69.4505 16.3733 69.3105 16.9667 69.3105 17.66C69.3105 18.34 69.4505 18.9333 69.7305 19.44C70.0238 19.9467 70.4038 20.3333 70.8705 20.6C71.3505 20.8667 71.8905 21 72.4905 21ZM75.7305 23V20.48L75.8305 17.64L75.6305 14.8V8.16H78.1105V23H75.7305ZM81.0009 23V12.32H83.5009V23H81.0009ZM82.2609 10.56C81.7943 10.56 81.4076 10.4133 81.1009 10.12C80.8076 9.82667 80.6609 9.47333 80.6609 9.06C80.6609 8.63333 80.8076 8.28 81.1009 8C81.4076 7.70667 81.7943 7.56 82.2609 7.56C82.7276 7.56 83.1076 7.7 83.4009 7.98C83.7076 8.24667 83.8609 8.58667 83.8609 9C83.8609 9.44 83.7143 9.81333 83.4209 10.12C83.1276 10.4133 82.7409 10.56 82.2609 10.56ZM86.0222 14.54L85.8622 9H88.0222L87.8422 14.54H86.0222ZM93.6767 23.14C92.7834 23.14 91.9234 23.0267 91.0967 22.8C90.2834 22.56 89.6367 22.2733 89.1567 21.94L90.1167 20.04C90.5967 20.3467 91.1701 20.6 91.8367 20.8C92.5034 21 93.1701 21.1 93.8367 21.1C94.6234 21.1 95.1901 20.9933 95.5367 20.78C95.8967 20.5667 96.0767 20.28 96.0767 19.92C96.0767 19.6267 95.9567 19.4067 95.7167 19.26C95.4767 19.1 95.1634 18.98 94.7767 18.9C94.3901 18.82 93.9567 18.7467 93.4767 18.68C93.0101 18.6133 92.5367 18.5267 92.0567 18.42C91.5901 18.3 91.1634 18.1333 90.7767 17.92C90.3901 17.6933 90.0767 17.3933 89.8367 17.02C89.5967 16.6467 89.4767 16.1533 89.4767 15.54C89.4767 14.86 89.6701 14.2733 90.0567 13.78C90.4434 13.2733 90.9834 12.8867 91.6767 12.62C92.3834 12.34 93.2167 12.2 94.1767 12.2C94.8967 12.2 95.6234 12.28 96.3567 12.44C97.0901 12.6 97.6967 12.8267 98.1767 13.12L97.2167 15.02C96.7101 14.7133 96.1967 14.5067 95.6767 14.4C95.1701 14.28 94.6634 14.22 94.1567 14.22C93.3967 14.22 92.8301 14.3333 92.4567 14.56C92.0967 14.7867 91.9167 15.0733 91.9167 15.42C91.9167 15.74 92.0367 15.98 92.2767 16.14C92.5167 16.3 92.8301 16.4267 93.2167 16.52C93.6034 16.6133 94.0301 16.6933 94.4967 16.76C94.9767 16.8133 95.4501 16.9 95.9167 17.02C96.3834 17.14 96.8101 17.3067 97.1967 17.52C97.5967 17.72 97.9167 18.0067 98.1567 18.38C98.3967 18.7533 98.5167 19.24 98.5167 19.84C98.5167 20.5067 98.3167 21.0867 97.9167 21.58C97.5301 22.0733 96.9767 22.46 96.2567 22.74C95.5367 23.0067 94.6767 23.14 93.6767 23.14ZM105.637 23V9H111.397C112.637 9 113.697 9.2 114.577 9.6C115.47 10 116.157 10.5733 116.637 11.32C117.117 12.0667 117.357 12.9533 117.357 13.98C117.357 15.0067 117.117 15.8933 116.637 16.64C116.157 17.3867 115.47 17.96 114.577 18.36C113.697 18.76 112.637 18.96 111.397 18.96H107.077L108.237 17.74V23H105.637ZM108.237 18.02L107.077 16.76H111.277C112.424 16.76 113.284 16.52 113.857 16.04C114.444 15.5467 114.737 14.86 114.737 13.98C114.737 13.0867 114.444 12.4 113.857 11.92C113.284 11.44 112.424 11.2 111.277 11.2H107.077L108.237 9.92V18.02ZM119.509 23V12.32H122.009V23H119.509ZM120.769 10.56C120.302 10.56 119.915 10.4133 119.609 10.12C119.315 9.82667 119.169 9.47333 119.169 9.06C119.169 8.63333 119.315 8.28 119.609 8C119.915 7.70667 120.302 7.56 120.769 7.56C121.235 7.56 121.615 7.7 121.909 7.98C122.215 8.24667 122.369 8.58667 122.369 9C122.369 9.44 122.222 9.81333 121.929 10.12C121.635 10.4133 121.249 10.56 120.769 10.56ZM129.79 23.14C128.67 23.14 127.67 22.9067 126.79 22.44C125.923 21.96 125.243 21.3067 124.75 20.48C124.257 19.6533 124.01 18.7133 124.01 17.66C124.01 16.5933 124.257 15.6533 124.75 14.84C125.243 14.0133 125.923 13.3667 126.79 12.9C127.67 12.4333 128.67 12.2 129.79 12.2C130.83 12.2 131.743 12.4133 132.53 12.84C133.33 13.2533 133.937 13.8667 134.35 14.68L132.43 15.8C132.11 15.2933 131.717 14.92 131.25 14.68C130.797 14.44 130.303 14.32 129.77 14.32C129.157 14.32 128.603 14.4533 128.11 14.72C127.617 14.9867 127.23 15.3733 126.95 15.88C126.67 16.3733 126.53 16.9667 126.53 17.66C126.53 18.3533 126.67 18.9533 126.95 19.46C127.23 19.9533 127.617 20.3333 128.11 20.6C128.603 20.8667 129.157 21 129.77 21C130.303 21 130.797 20.88 131.25 20.64C131.717 20.4 132.11 20.0267 132.43 19.52L134.35 20.64C133.937 21.44 133.33 22.06 132.53 22.5C131.743 22.9267 130.83 23.14 129.79 23.14ZM138.053 20.62L138.113 17.48L143.693 12.32H146.693L141.953 17.08L140.633 18.18L138.053 20.62ZM136.013 23V8.16H138.513V23H136.013ZM144.073 23L140.173 18.18L141.753 16.18L147.113 23H144.073ZM148.488 18.36L148.008 9H150.968L150.468 18.36H148.488ZM149.488 23.14C149.022 23.14 148.635 22.9867 148.328 22.68C148.022 22.3733 147.868 22.0067 147.868 21.58C147.868 21.1533 148.022 20.7933 148.328 20.5C148.635 20.1933 149.022 20.04 149.488 20.04C149.955 20.04 150.335 20.1933 150.628 20.5C150.922 20.7933 151.068 21.1533 151.068 21.58C151.068 22.0067 150.922 22.3733 150.628 22.68C150.335 22.9867 149.955 23.14 149.488 23.14Z" fill="white"/>
</svg>
