<svg width="402" height="62" viewBox="0 0 402 62" fill="none" xmlns="http://www.w3.org/2000/svg">
<path d="M18.912 16.4C22.016 16.4 24.72 16.912 27.024 17.936C29.328 18.96 31.104 20.432 32.352 22.352C33.6 24.272 34.224 26.512 34.224 29.072C34.224 31.632 33.6 33.872 32.352 35.792C31.104 37.712 29.328 39.184 27.024 40.208C24.72 41.232 22.016 41.744 18.912 41.744H14.064V50H2.736V16.4H18.912ZM18.192 33.008C19.728 33.008 20.88 32.672 21.648 32C22.416 31.296 22.8 30.32 22.8 29.072C22.8 27.824 22.416 26.864 21.648 26.192C20.88 25.488 19.728 25.136 18.192 25.136H14.064V33.008H18.192ZM50.5151 50.48C47.6031 50.48 44.9791 49.904 42.6431 48.752C40.3391 47.568 38.5311 45.952 37.2191 43.904C35.9071 41.824 35.2511 39.472 35.2511 36.848C35.2511 34.224 35.9071 31.888 37.2191 29.84C38.5311 27.76 40.3391 26.144 42.6431 24.992C44.9791 23.84 47.6031 23.264 50.5151 23.264C53.4591 23.264 56.0831 23.84 58.3871 24.992C60.7231 26.144 62.5311 27.76 63.8111 29.84C65.1231 31.888 65.7791 34.224 65.7791 36.848C65.7791 39.472 65.1231 41.824 63.8111 43.904C62.5311 45.952 60.7231 47.568 58.3871 48.752C56.0831 49.904 53.4591 50.48 50.5151 50.48ZM50.5151 42.032C51.7631 42.032 52.7871 41.584 53.5871 40.688C54.3871 39.76 54.7871 38.48 54.7871 36.848C54.7871 35.216 54.3871 33.952 53.5871 33.056C52.7871 32.16 51.7631 31.712 50.5151 31.712C49.2671 31.712 48.2431 32.16 47.4431 33.056C46.6431 33.952 46.2431 35.216 46.2431 36.848C46.2431 38.48 46.6431 39.76 47.4431 40.688C48.2431 41.584 49.2671 42.032 50.5151 42.032ZM78.4864 50.48C76.2464 50.48 74.0384 50.24 71.8624 49.76C69.6864 49.28 67.9264 48.656 66.5824 47.888L69.5584 40.736C70.7744 41.472 72.2144 42.048 73.8784 42.464C75.5424 42.88 77.1584 43.088 78.7264 43.088C79.9744 43.088 80.8384 42.992 81.3184 42.8C81.8304 42.576 82.0864 42.256 82.0864 41.84C82.0864 41.424 81.7664 41.136 81.1264 40.976C80.5184 40.816 79.5104 40.656 78.1024 40.496C75.9584 40.24 74.1344 39.92 72.6304 39.536C71.1264 39.12 69.7984 38.336 68.6464 37.184C67.5264 36.032 66.9664 34.384 66.9664 32.24C66.9664 30.544 67.4784 29.024 68.5024 27.68C69.5264 26.336 71.0464 25.264 73.0624 24.464C75.1104 23.664 77.5584 23.264 80.4064 23.264C82.3904 23.264 84.3264 23.456 86.2144 23.84C88.1344 24.192 89.7664 24.72 91.1104 25.424L88.1344 32.576C85.8304 31.296 83.3024 30.656 80.5504 30.656C78.1824 30.656 76.9984 31.072 76.9984 31.904C76.9984 32.32 77.3184 32.624 77.9584 32.816C78.5984 32.976 79.6064 33.136 80.9824 33.296C83.1264 33.552 84.9344 33.888 86.4064 34.304C87.9104 34.72 89.2224 35.504 90.3424 36.656C91.4944 37.808 92.0704 39.456 92.0704 41.6C92.0704 43.232 91.5584 44.72 90.5344 46.064C89.5104 47.408 87.9744 48.48 85.9264 49.28C83.8784 50.08 81.3984 50.48 78.4864 50.48ZM113.739 49.088C112.107 50.016 109.883 50.48 107.067 50.48C103.387 50.48 100.555 49.6 98.571 47.84C96.587 46.048 95.595 43.376 95.595 39.824V33.104H91.995V25.184H95.595V17.84H106.443V25.184H111.819V33.104H106.443V39.728C106.443 40.528 106.651 41.152 107.067 41.6C107.483 42.048 108.027 42.272 108.699 42.272C109.627 42.272 110.443 42.032 111.147 41.552L113.739 49.088ZM145.36 50.768C140.208 50.768 136.192 49.376 133.312 46.592C130.432 43.808 128.992 39.904 128.992 34.88V16.4H140.32V34.544C140.32 37.008 140.752 38.8 141.616 39.92C142.512 41.04 143.792 41.6 145.456 41.6C147.12 41.6 148.384 41.04 149.248 39.92C150.144 38.8 150.592 37.008 150.592 34.544V16.4H161.728V34.88C161.728 39.904 160.288 43.808 157.408 46.592C154.528 49.376 150.512 50.768 145.36 50.768ZM183.144 23.264C185.448 23.264 187.56 23.824 189.48 24.944C191.432 26.032 192.968 27.616 194.088 29.696C195.24 31.776 195.816 34.176 195.816 36.896C195.816 39.616 195.24 42.016 194.088 44.096C192.968 46.144 191.432 47.728 189.48 48.848C187.56 49.936 185.448 50.48 183.144 50.48C180.232 50.48 178.008 49.728 176.472 48.224V59.312H165.624V23.744H175.944V25.904C177.512 24.144 179.912 23.264 183.144 23.264ZM180.552 42.032C181.8 42.032 182.824 41.584 183.624 40.688C184.424 39.792 184.824 38.528 184.824 36.896C184.824 35.264 184.424 34 183.624 33.104C182.824 32.176 181.8 31.712 180.552 31.712C179.304 31.712 178.28 32.176 177.48 33.104C176.68 34 176.28 35.264 176.28 36.896C176.28 38.528 176.68 39.792 177.48 40.688C178.28 41.584 179.304 42.032 180.552 42.032ZM208.594 26.576C210.514 24.368 213.346 23.264 217.09 23.264V32.864C216.226 32.736 215.426 32.672 214.69 32.672C210.978 32.672 209.122 34.56 209.122 38.336V50H198.274V23.744H208.594V26.576ZM232.842 50.48C229.93 50.48 227.306 49.904 224.97 48.752C222.666 47.568 220.858 45.952 219.546 43.904C218.234 41.824 217.578 39.472 217.578 36.848C217.578 34.224 218.234 31.888 219.546 29.84C220.858 27.76 222.666 26.144 224.97 24.992C227.306 23.84 229.93 23.264 232.842 23.264C235.786 23.264 238.41 23.84 240.714 24.992C243.05 26.144 244.858 27.76 246.138 29.84C247.45 31.888 248.106 34.224 248.106 36.848C248.106 39.472 247.45 41.824 246.138 43.904C244.858 45.952 243.05 47.568 240.714 48.752C238.41 49.904 235.786 50.48 232.842 50.48ZM232.842 42.032C234.09 42.032 235.114 41.584 235.914 40.688C236.714 39.76 237.114 38.48 237.114 36.848C237.114 35.216 236.714 33.952 235.914 33.056C235.114 32.16 234.09 31.712 232.842 31.712C231.594 31.712 230.57 32.16 229.77 33.056C228.97 33.952 228.57 35.216 228.57 36.848C228.57 38.48 228.97 39.76 229.77 40.688C230.57 41.584 231.594 42.032 232.842 42.032ZM261.645 23.264C266.253 23.264 269.773 24.304 272.205 26.384C274.637 28.432 275.853 31.6 275.853 35.888V50H265.773V46.544C264.525 49.168 262.045 50.48 258.333 50.48C256.253 50.48 254.477 50.128 253.005 49.424C251.565 48.688 250.461 47.712 249.693 46.496C248.957 45.248 248.589 43.856 248.589 42.32C248.589 39.728 249.581 37.76 251.565 36.416C253.549 35.072 256.557 34.4 260.589 34.4H264.957C264.605 32.352 262.957 31.328 260.013 31.328C258.829 31.328 257.629 31.52 256.413 31.904C255.197 32.256 254.157 32.752 253.293 33.392L249.837 26.24C251.341 25.312 253.149 24.592 255.261 24.08C257.405 23.536 259.533 23.264 261.645 23.264ZM261.597 43.952C262.365 43.952 263.053 43.744 263.661 43.328C264.269 42.912 264.717 42.288 265.005 41.456V39.632H262.317C260.109 39.632 259.005 40.368 259.005 41.84C259.005 42.448 259.229 42.96 259.677 43.376C260.157 43.76 260.797 43.952 261.597 43.952ZM309.09 14.384V50H298.77V47.84C297.202 49.6 294.802 50.48 291.57 50.48C289.266 50.48 287.138 49.936 285.186 48.848C283.266 47.728 281.73 46.128 280.578 44.048C279.458 41.968 278.898 39.568 278.898 36.848C278.898 34.128 279.458 31.744 280.578 29.696C281.73 27.616 283.266 26.032 285.186 24.944C287.138 23.824 289.266 23.264 291.57 23.264C294.482 23.264 296.706 24.016 298.242 25.52V14.384H309.09ZM294.162 42.032C295.41 42.032 296.434 41.584 297.234 40.688C298.034 39.76 298.434 38.48 298.434 36.848C298.434 35.216 298.034 33.952 297.234 33.056C296.434 32.16 295.41 31.712 294.162 31.712C292.914 31.712 291.89 32.16 291.09 33.056C290.29 33.952 289.89 35.216 289.89 36.848C289.89 38.48 290.29 39.76 291.09 40.688C291.89 41.584 292.914 42.032 294.162 42.032Z" fill="black"/>
<rect width="47.977" height="29.9995" rx="1" transform="matrix(0.984363 0.176151 -0.175982 0.984393 332.118 16.0087)" fill="black"/>
<path d="M335.577 22.2151L352.071 37.8651L373.949 29.0817" stroke="white" stroke-linecap="round"/>
<path fill-rule="evenodd" clip-rule="evenodd" d="M366.261 15.7071C364.833 19.6857 367.095 23.9763 371.315 25.2916C369.887 29.2706 372.151 33.5613 376.371 34.8756C380.592 36.1901 385.171 34.0299 386.6 30.0506C390.821 31.3647 395.4 29.2044 396.828 25.2253C398.257 21.2464 395.994 16.9554 391.774 15.6404C393.201 11.6615 390.938 7.37104 386.717 6.05675C382.497 4.74234 377.917 6.90241 376.489 10.8814C372.268 9.56792 367.689 11.7282 366.261 15.7071Z" fill="#49ED3F"/>
<ellipse cx="5.11951" cy="5.31609" rx="5.11951" ry="5.31609" transform="matrix(-0.0719535 0.99749 -0.998601 -0.0512061 387.151 15.8698)" fill="black"/>
</svg>
