<svg width="100" height="100" viewBox="0 0 100 100" fill="none" xmlns="http://www.w3.org/2000/svg">
<circle cx="50" cy="50" r="50" fill="#E2E2E2"/>
<path fill-rule="evenodd" clip-rule="evenodd" d="M34.0015 66.0007C38.4192 70.4184 45.5813 70.4192 50 66.0031C54.4187 70.4192 61.5808 70.4184 65.9985 66.0007C70.417 61.5821 70.417 54.4182 65.9985 49.9997C70.417 45.5811 70.417 38.4172 65.9985 33.9987C61.5808 29.5809 54.4187 29.5801 50 33.9963C45.5813 29.5801 38.4192 29.5809 34.0015 33.9987C29.583 38.4172 29.583 45.5811 34.0015 49.9997C29.583 54.4182 29.583 61.5821 34.0015 66.0007Z" fill="white"/>
<circle cx="7.54292" cy="7.54292" r="7.54292" transform="matrix(0.707103 0.707111 -0.707103 0.707111 50 39.3303)" fill="#E2E2E2"/>
</svg>
