<svg width="332" height="76" viewBox="0 0 332 76" fill="none" xmlns="http://www.w3.org/2000/svg">
<path d="M47.84 24L38.88 52H28.76L24.24 37.04L19.48 52H9.36L0.4 24H10.12L15 39.92L20.16 24H28.84L33.72 40.12L38.88 24H47.84ZM71.3347 41.04C71.3347 41.1733 71.2947 41.88 71.2147 43.16H56.0147C56.3347 43.9867 56.868 44.6267 57.6147 45.08C58.3614 45.5067 59.2947 45.72 60.4147 45.72C61.3747 45.72 62.1747 45.6 62.8147 45.36C63.4814 45.12 64.2014 44.7067 64.9747 44.12L69.6947 48.88C67.5614 51.2267 64.3747 52.4 60.1347 52.4C57.4947 52.4 55.1747 51.92 53.1747 50.96C51.1747 49.9733 49.628 48.6133 48.5347 46.88C47.4414 45.1467 46.8947 43.2 46.8947 41.04C46.8947 38.8533 47.428 36.9067 48.4947 35.2C49.588 33.4667 51.068 32.12 52.9347 31.16C54.828 30.2 56.948 29.72 59.2947 29.72C61.508 29.72 63.5214 30.16 65.3347 31.04C67.1747 31.92 68.628 33.2133 69.6947 34.92C70.788 36.6267 71.3347 38.6667 71.3347 41.04ZM59.3747 35.88C58.4414 35.88 57.668 36.1333 57.0547 36.64C56.4414 37.1467 56.0414 37.8667 55.8547 38.8H62.8947C62.708 37.8933 62.308 37.1867 61.6947 36.68C61.0814 36.1467 60.308 35.88 59.3747 35.88ZM74.1875 22.32H83.2275V52H74.1875V22.32ZM98.9944 52.4C96.5144 52.4 94.2877 51.92 92.3144 50.96C90.3677 50 88.8344 48.6533 87.7144 46.92C86.621 45.1867 86.0744 43.2267 86.0744 41.04C86.0744 38.8533 86.621 36.9067 87.7144 35.2C88.8344 33.4667 90.3677 32.12 92.3144 31.16C94.2877 30.2 96.5144 29.72 98.9944 29.72C101.661 29.72 103.941 30.2933 105.834 31.44C107.728 32.5867 109.034 34.1733 109.754 36.2L102.754 39.64C101.901 37.72 100.634 36.76 98.9544 36.76C97.8877 36.76 96.9944 37.1333 96.2744 37.88C95.581 38.6267 95.2344 39.68 95.2344 41.04C95.2344 42.4267 95.581 43.4933 96.2744 44.24C96.9944 44.9867 97.8877 45.36 98.9544 45.36C100.634 45.36 101.901 44.4 102.754 42.48L109.754 45.92C109.034 47.9467 107.728 49.5333 105.834 50.68C103.941 51.8267 101.661 52.4 98.9944 52.4ZM123.208 52.4C120.782 52.4 118.595 51.92 116.648 50.96C114.728 49.9733 113.222 48.6267 112.128 46.92C111.035 45.1867 110.488 43.2267 110.488 41.04C110.488 38.8533 111.035 36.9067 112.128 35.2C113.222 33.4667 114.728 32.12 116.648 31.16C118.595 30.2 120.782 29.72 123.208 29.72C125.662 29.72 127.848 30.2 129.768 31.16C131.715 32.12 133.222 33.4667 134.288 35.2C135.382 36.9067 135.928 38.8533 135.928 41.04C135.928 43.2267 135.382 45.1867 134.288 46.92C133.222 48.6267 131.715 49.9733 129.768 50.96C127.848 51.92 125.662 52.4 123.208 52.4ZM123.208 45.36C124.248 45.36 125.102 44.9867 125.768 44.24C126.435 43.4667 126.768 42.4 126.768 41.04C126.768 39.68 126.435 38.6267 125.768 37.88C125.102 37.1333 124.248 36.76 123.208 36.76C122.168 36.76 121.315 37.1333 120.648 37.88C119.982 38.6267 119.648 39.68 119.648 41.04C119.648 42.4 119.982 43.4667 120.648 44.24C121.315 44.9867 122.168 45.36 123.208 45.36ZM167.718 29.72C170.358 29.72 172.464 30.5333 174.038 32.16C175.638 33.7867 176.438 36.24 176.438 39.52V52H167.398V41.08C167.398 38.5733 166.584 37.32 164.958 37.32C164.104 37.32 163.411 37.64 162.878 38.28C162.371 38.92 162.118 39.9333 162.118 41.32V52H153.078V41.08C153.078 38.5733 152.264 37.32 150.638 37.32C149.784 37.32 149.091 37.64 148.558 38.28C148.051 38.92 147.798 39.9333 147.798 41.32V52H138.758V30.12H147.358V32.16C148.984 30.5333 151.051 29.72 153.558 29.72C155.024 29.72 156.344 30 157.518 30.56C158.691 31.0933 159.651 31.92 160.398 33.04C161.278 31.9733 162.344 31.16 163.598 30.6C164.851 30.0133 166.224 29.72 167.718 29.72ZM204.03 41.04C204.03 41.1733 203.99 41.88 203.91 43.16H188.71C189.03 43.9867 189.563 44.6267 190.31 45.08C191.057 45.5067 191.99 45.72 193.11 45.72C194.07 45.72 194.87 45.6 195.51 45.36C196.177 45.12 196.897 44.7067 197.67 44.12L202.39 48.88C200.257 51.2267 197.07 52.4 192.83 52.4C190.19 52.4 187.87 51.92 185.87 50.96C183.87 49.9733 182.323 48.6133 181.23 46.88C180.137 45.1467 179.59 43.2 179.59 41.04C179.59 38.8533 180.123 36.9067 181.19 35.2C182.283 33.4667 183.763 32.12 185.63 31.16C187.523 30.2 189.643 29.72 191.99 29.72C194.203 29.72 196.217 30.16 198.03 31.04C199.87 31.92 201.323 33.2133 202.39 34.92C203.483 36.6267 204.03 38.6667 204.03 41.04ZM192.07 35.88C191.137 35.88 190.363 36.1333 189.75 36.64C189.137 37.1467 188.737 37.8667 188.55 38.8H195.59C195.403 37.8933 195.003 37.1867 194.39 36.68C193.777 36.1467 193.003 35.88 192.07 35.88ZM234.995 51.24C233.635 52.0133 231.782 52.4 229.435 52.4C226.368 52.4 224.008 51.6667 222.355 50.2C220.702 48.7067 219.875 46.48 219.875 43.52V37.92H216.875V31.32H219.875V25.2H228.915V31.32H233.395V37.92H228.915V43.44C228.915 44.1067 229.088 44.6267 229.435 45C229.782 45.3733 230.235 45.56 230.795 45.56C231.568 45.56 232.248 45.36 232.835 44.96L234.995 51.24ZM248.248 52.4C245.821 52.4 243.634 51.92 241.688 50.96C239.768 49.9733 238.261 48.6267 237.168 46.92C236.074 45.1867 235.528 43.2267 235.528 41.04C235.528 38.8533 236.074 36.9067 237.168 35.2C238.261 33.4667 239.768 32.12 241.688 31.16C243.634 30.2 245.821 29.72 248.248 29.72C250.701 29.72 252.888 30.2 254.808 31.16C256.754 32.12 258.261 33.4667 259.328 35.2C260.421 36.9067 260.968 38.8533 260.968 41.04C260.968 43.2267 260.421 45.1867 259.328 46.92C258.261 48.6267 256.754 49.9733 254.808 50.96C252.888 51.92 250.701 52.4 248.248 52.4ZM248.248 45.36C249.288 45.36 250.141 44.9867 250.808 44.24C251.474 43.4667 251.808 42.4 251.808 41.04C251.808 39.68 251.474 38.6267 250.808 37.88C250.141 37.1333 249.288 36.76 248.248 36.76C247.208 36.76 246.354 37.1333 245.688 37.88C245.021 38.6267 244.688 39.68 244.688 41.04C244.688 42.4 245.021 43.4667 245.688 44.24C246.354 44.9867 247.208 45.36 248.248 45.36Z" fill="black"/>
<path fill-rule="evenodd" clip-rule="evenodd" d="M284.002 54.0007C288.419 58.4184 295.581 58.4192 300 54.0031C304.419 58.4192 311.581 58.4184 315.998 54.0007C320.417 49.5821 320.417 42.4182 315.999 37.9997C320.417 33.5811 320.417 26.4172 315.998 21.9987C311.581 17.5809 304.419 17.5801 300 21.9963C295.581 17.5801 288.419 17.5809 284.002 21.9987C279.583 26.4172 279.583 33.5811 284.001 37.9997C279.583 42.4182 279.583 49.5821 284.002 54.0007Z" fill="#49ED3F"/>
<circle cx="7.54292" cy="7.54292" r="7.54292" transform="matrix(0.707103 0.707111 -0.707103 0.707111 300 27.3313)" fill="black"/>
</svg>
